<svg xmlns="http://www.w3.org/2000/svg" viewBox="0 0 295.21 710.37"><defs><style>.cls-1{fill:#fff;stroke:#231815;stroke-miterlimit:10;stroke-width:4px;fill-rule:evenodd;}</style></defs><title>Asset 13</title><g id="Layer_2" data-name="Layer 2"><g id="圖層_1" data-name="圖層 1"><path class="cls-1" d="M131.55,122.83C99.85,117.49,81.89,97.17,82,67.74,82.06,33.42,110.51,2,146,2c36,0,64.38,32.87,64.91,66,.66,41.5-31.65,51.55-50.34,54.83-2.05,17.59,1.3,25.51,9,28.41,9.87,3.74,46.09,16.2,55.66,21.3,19,14.54,55.73,168.37,67.8,229.89,2.92,14.86-22.59,31-28.44,3.54L213.89,234.92l9.63,449.32a20.87,20.87,0,0,1-19.34,21.15c-9.5.7-19-15-19.84-24.55L153,411.2a3.52,3.52,0,0,0-7,.05l-28.5,272.09c-1.3,14.88-4.37,25.79-19.28,25h-.16c-8.9-.43-18.92-13.13-18.48-27.63-.8-144-1.4-443.77-1.4-443.77L30.4,415c-5,17.41-30.37,2.43-28.28-10.37,11.54-70.69,44.7-214.89,61-229.43,15.69-14,57.45-20.56,62.48-24C129.79,148.24,133.62,141.17,131.55,122.83Z"/></g></g></svg>