<svg xmlns="http://www.w3.org/2000/svg" viewBox="0 0 383.56 110.1"><defs><style>.cls-1{fill:none;stroke:#000;stroke-miterlimit:10;stroke-width:2px;}</style></defs><title>shoe 3</title><g id="Layer_2" data-name="Layer 2"><g id="Layer_1-2" data-name="Layer 1"><path class="cls-1" d="M123.15,3.07a4.82,4.82,0,0,0-8.06.21C107.15,16.08,89,43.63,75.92,50.11,58.76,58.61-6.34,71.3,1.68,90c1.3,3,109.75,17.4,165.31,4.83l3.06-76.17a2.45,2.45,0,0,0-3.81-2.15c-4.57,3-12.53,6.88-21.33,5S127.85,9.76,123.15,3.07Z"/><path class="cls-1" d="M1.39,89.87,5,100.64S115.44,117,166.49,104.23l.4-9.18"/><path class="cls-1" d="M260.41,3.07a4.83,4.83,0,0,1,8.07.21c7.93,12.8,26.1,40.35,39.16,46.83C324.8,58.61,389.9,71.3,381.88,90c-1.3,3-109.75,17.4-165.31,4.83l-3.06-76.17a2.46,2.46,0,0,1,3.81-2.15c4.57,3,12.54,6.88,21.33,5S255.72,9.76,260.41,3.07Z"/><path class="cls-1" d="M382.18,89.87l-3.59,10.77S268.12,117,217.07,104.23l-.4-9.18"/></g></g></svg>