<svg xmlns="http://www.w3.org/2000/svg" viewBox="0 0 230.01 66.05"><defs><style>.cls-1,.cls-2{fill-rule:evenodd;}.cls-2{fill:#fff;}</style></defs><title>shoe3</title><g id="Layer_2" data-name="Layer 2"><g id="圖層_1" data-name="圖層 1"><path class="cls-1" d="M67.17,65.87c-3.71,0-7.42,0-11.13,0-2.73,0-5.46-.22-8.18-.36-1.92-.1-3.83-.23-5.75-.38q-4.81-.35-9.63-.75c-2.61-.22-5.22-.48-7.84-.74-2.39-.24-4.79-.49-7.18-.76-2-.23-4.05-.46-6.06-.74-2.22-.31-4.44-.68-6.65-1A7.31,7.31,0,0,0,3.35,61c-.69,0-.94-.35-1.13-.94-.56-1.75-1.08-3.51-1.77-5.21A6.91,6.91,0,0,1,2,47.58a24.93,24.93,0,0,1,7.17-4.85c2.44-1.19,4.92-2.31,7.45-3.3,2.26-.9,4.61-1.59,6.92-2.38,2-.7,4.07-1.45,6.13-2.12,1.78-.57,3.6-1,5.37-1.61,2.34-.78,4.64-1.66,7-2.46A19.32,19.32,0,0,0,47,28.51a33.73,33.73,0,0,0,6.58-6.16C55,20.53,56.6,18.76,58,16.89q2.7-3.51,5.2-7.17C65,7.05,66.68,4.25,68.54,1.59a3.36,3.36,0,0,1,5.61-.16,44.12,44.12,0,0,0,7,7.75,14,14,0,0,0,6.77,3.31,13.59,13.59,0,0,0,7.65-1.15c1.23-.51,2.34-1.35,3.58-1.8.65-.22,1.33-.86,2.23-.23a2.27,2.27,0,0,1,1.1,2.2c-.06.78,0,1.56,0,2.34q-.18,5.64-.39,11.27c-.11,3.07-.24,6.14-.37,9.22s-.25,6.19-.37,9.29-.24,6.26-.38,9.39c-.11,2.51-.24,5-.38,7.52a12.19,12.19,0,0,1-.28,2,1,1,0,0,1-.56.64c-1.3.32-2.62.6-3.94.82-2.34.38-4.69.72-7,1.07a2.33,2.33,0,0,1-.37,0c-2.63.17-5.26.37-7.89.48-4.44.19-8.88.31-13.32.46Zm32.24-9.4a12.09,12.09,0,0,0,.33-1.74c.15-3.35.25-6.7.39-10.06.11-2.75.25-5.51.37-8.26.13-3.32.24-6.64.38-9.95.11-2.92.26-5.83.36-8.74.07-2.18.07-4.36.11-6.54a.81.81,0,0,0-.86-.94,2.44,2.44,0,0,0-1,.52A18.59,18.59,0,0,1,93,13.43a10.72,10.72,0,0,1-5.31.13,25.56,25.56,0,0,1-3.41-.93A20.06,20.06,0,0,1,78.19,8.1c-1.73-1.89-3.29-3.95-4.89-6a2.26,2.26,0,0,0-3.85.22c-.45.68-.89,1.35-1.35,2-3.26,4.74-6.41,9.58-9.85,14.2a86.88,86.88,0,0,1-7.07,7.93,20.18,20.18,0,0,1-8.6,5.38c-1.49.47-3,1-4.43,1.54-1.74.6-3.48,1.21-5.23,1.77s-3.49,1-5.21,1.59c-2.4.8-4.77,1.66-7.15,2.52-2.18.78-4.41,1.48-6.52,2.44-2.63,1.2-5.2,2.54-7.73,4a10.9,10.9,0,0,0-4.65,4.47C.49,52.54.81,54,3.79,54.31c1.55.19,3.09.51,4.63.77,2.05.35,4.11.73,6.17,1s4,.51,6,.73c2.43.27,4.86.54,7.28.76,2.93.27,5.86.5,8.79.74,1.7.13,3.4.24,5.09.34,2.14.14,4.28.28,6.42.37,3.65.15,7.32.35,11,.36,5.19,0,10.38-.14,15.57-.26,1.95,0,3.9-.23,5.85-.35,2.29-.14,4.58-.27,6.87-.43,1.24-.1,2.47-.25,3.69-.4.92-.11,1.84-.22,2.74-.4C95.67,57.24,97.49,56.85,99.41,56.47Zm-96,3.31c.79.16,1.47.35,2.17.45,1.86.27,3.72.51,5.58.74,2.14.26,4.29.52,6.43.76s4.54.51,6.82.74c2.64.26,5.29.53,7.93.75,3,.26,6,.48,9,.71,1.82.14,3.64.26,5.46.37,2.38.14,4.76.27,7.14.37,1.74.07,3.49.11,5.23.09,7.71-.1,15.42-.21,23.13-.37,2.1,0,4.2-.26,6.3-.43,1-.08,2-.22,3-.39,2-.33,4-.67,6-1.08.75-.15,1.78-.11,1.84-1.25s0-2.35,0-3.53a3.42,3.42,0,0,0-.64,0c-1.67.34-3.34.75-5,1q-2.88.46-5.78.74c-3.24.3-6.47.59-9.71.75-2.77.14-5.55.16-8.32.13Q58.72,60.23,47.53,60c-2.14,0-4.27-.23-6.4-.36-2.42-.15-4.83-.3-7.24-.47-.89-.06-1.78-.19-2.67-.27L22,58c-1.51-.14-3-.26-4.53-.41-1-.11-2.08-.24-3.11-.4q-3.24-.51-6.46-1c-1.24-.21-2.47-.47-3.7-.69l-2.41-.42Q2.63,57.59,3.37,59.78Z"/><path class="cls-1" d="M162.84,65.87c-3.71,0-7.42,0-11.13,0-2.1,0-4.21-.19-6.31-.37-2.27-.2-4.55-.43-6.81-.76-1.82-.25-3.61-.67-5.41-1-.84-.16-1.69-.32-2.53-.44a1,1,0,0,1-1-1.08c-.09-2.63-.24-5.26-.36-7.89q-.2-4.61-.37-9.21c-.13-3.16-.25-6.32-.38-9.48-.12-3-.25-5.95-.37-8.93s-.24-6.27-.38-9.4q-.12-3-.31-5.94a2.16,2.16,0,0,1,.93-1.94c.91-.74,1.77-.21,2.43.21a20.15,20.15,0,0,0,6.25,2.71,12.22,12.22,0,0,0,10.38-2.11,41.13,41.13,0,0,0,8.34-8.79,3.45,3.45,0,0,1,5.75.38c2.14,3.32,4.3,6.63,6.56,9.87,2,2.88,4.08,5.76,6.32,8.47,2.66,3.21,5.41,6.41,9,8.65a30.38,30.38,0,0,0,5,2.29c2.07.81,4.18,1.51,6.3,2.2s4.34,1.27,6.49,2c2.46.8,4.9,1.64,7.33,2.54,3.32,1.23,6.66,2.41,9.91,3.82a28.28,28.28,0,0,1,9.47,6,6.1,6.1,0,0,1,2.05,5A20.89,20.89,0,0,1,229.1,56c-.4,1.32-.95,2.6-1.31,3.93a1.25,1.25,0,0,1-1.31,1.08c-1.49.14-3,.44-4.46.65-1.07.16-2.14.29-3.21.41-1.54.16-3.08.26-4.62.44-2.82.33-5.63.69-8.45,1l-.37,0c-2.13.15-4.26.29-6.39.46-3.12.24-6.23.51-9.35.74-2.07.16-4.14.29-6.22.41-2.56.14-5.13.27-7.7.37-4.29.17-8.58.3-12.86.45A1.09,1.09,0,0,1,162.84,65.87Zm-32.51-9.42h.34c.53.15,1.05.34,1.59.44,2.24.39,4.47.8,6.72,1.1s4.72.54,7.09.76c1.51.15,3,.25,4.54.32,3.13.14,6.27.35,9.4.36,4.59,0,9.19-.13,13.78-.25,3.11-.08,6.21-.23,9.31-.36l9.58-.43c.44,0,.87,0,1.31-.08,2.09-.21,4.17-.44,6.26-.63,1.94-.17,3.89-.28,5.83-.46,1.24-.1,2.46-.25,3.69-.41,1.52-.2,3-.43,4.57-.63,1.31-.16,2.64-.28,3.95-.44.92-.11,1.83-.24,2.74-.41,1.8-.33,3.62-.63,5.4-1.06.89-.22,2.11-.1,2.39-1.39a3.15,3.15,0,0,0-.51-2.7,17.08,17.08,0,0,0-3.07-3.32,42.7,42.7,0,0,0-6-3.53c-2.44-1.2-5-2.2-7.51-3.22-1.56-.63-3.18-1.12-4.78-1.67s-3.35-1.16-5-1.71-3.46-1.08-5.19-1.63-3.49-1.14-5.22-1.74-3.76-1.27-5.6-2a22.41,22.41,0,0,1-8.23-6c-2.28-2.47-4.45-5.05-6.52-7.69s-3.89-5.2-5.73-7.88c-1.65-2.39-3.17-4.86-4.74-7.31-.65-1-1.88-1.69-2.74-1.24a6.77,6.77,0,0,0-1.84,1.67c-1.16,1.36-2.17,2.86-3.38,4.18-2.51,2.73-5.24,5.22-9,6.16a24.11,24.11,0,0,1-4,.56,6.62,6.62,0,0,1-2-.31,22.41,22.41,0,0,1-3.49-.94c-1.41-.58-2.73-1.37-4.1-2.06-1.06-.53-1.55-.25-1.5.94.09,2.47.25,4.95.35,7.42.14,3.57.24,7.14.38,10.7.11,2.63.26,5.26.37,7.89.14,3.45.27,6.9.37,10.34C130.2,50.69,130.26,53.57,130.33,56.45Zm.26,1.17c0,1.24,0,2.36,0,3.47,0,.56.16,1,.92,1.13,1.54.25,3,.72,4.56,1,1.76.31,3.53.57,5.3.74,3,.29,6,.54,9,.71,2.11.12,4.24.15,6.35.12q10.35-.15,20.7-.38c2.38-.05,4.76-.22,7.14-.36,1.82-.11,3.64-.23,5.46-.37,3-.24,6.05-.48,9.07-.75q3.88-.35,7.75-.75,3.41-.35,6.81-.74c2.09-.24,4.16-.5,6.24-.75l6.68-.77,1.64-4.84-2.44.43c-1.9.34-3.79.72-5.69,1-1.25.2-2.51.29-3.77.46-2.4.33-4.8.72-7.21,1s-4.66.54-7,.75c-3.08.28-6.16.51-9.25.76-1.69.13-3.39.26-5.09.36-2.5.14-5,.3-7.52.37-2.8.09-5.6.15-8.4.12-7.31-.09-14.61-.24-21.92-.37-1.4,0-2.8,0-4.2-.15-1.93-.17-3.86-.45-5.79-.68-1.25-.15-2.52-.26-3.77-.43-.82-.11-1.64-.27-2.45-.43C132.68,58.09,131.67,57.86,130.59,57.62Z"/><path class="cls-2" d="M99.41,56.47c-1.92.38-3.74.77-5.58,1.11-.9.18-1.82.29-2.74.4-1.22.15-2.45.3-3.69.4-2.29.16-4.58.29-6.87.43-2,.12-3.9.3-5.85.35-5.19.12-10.38.26-15.57.26-3.66,0-7.33-.21-11-.36-2.14-.09-4.28-.23-6.42-.37-1.69-.1-3.39-.21-5.09-.34-2.93-.24-5.86-.47-8.79-.74-2.42-.22-4.85-.49-7.28-.76-2-.22-4-.44-6-.73s-4.12-.69-6.17-1c-1.54-.26-3.08-.58-4.63-.77-3-.35-3.3-1.77-2.13-4.14A10.9,10.9,0,0,1,6.31,45.7c2.53-1.41,5.1-2.75,7.73-4,2.11-1,4.34-1.66,6.52-2.44,2.38-.86,4.75-1.72,7.15-2.52,1.72-.58,3.48-1,5.21-1.59s3.49-1.17,5.23-1.77c1.47-.51,2.94-1.07,4.43-1.54a20.18,20.18,0,0,0,8.6-5.38,86.88,86.88,0,0,0,7.07-7.93C61.69,14,64.84,9.12,68.1,4.38c.46-.67.9-1.34,1.35-2a2.26,2.26,0,0,1,3.85-.22c1.6,2,3.16,4.07,4.89,6a20.06,20.06,0,0,0,6.08,4.53,25.56,25.56,0,0,0,3.41.93A10.72,10.72,0,0,0,93,13.43a18.59,18.59,0,0,0,6.49-2.67,2.44,2.44,0,0,1,1-.52.81.81,0,0,1,.86.94c0,2.18,0,4.36-.11,6.54-.1,2.91-.25,5.82-.36,8.74-.14,3.31-.25,6.63-.38,9.95-.12,2.75-.26,5.51-.37,8.26-.14,3.36-.24,6.71-.39,10.06A12.09,12.09,0,0,1,99.41,56.47Z"/><path class="cls-2" d="M3.37,59.78q-.75-2.19-1.6-4.71l2.41.42c1.23.22,2.46.48,3.7.69q3.22.54,6.46,1c1,.16,2.07.29,3.11.4,1.51.15,3,.27,4.53.41l9.24.84c.89.08,1.78.21,2.67.27,2.41.17,4.82.32,7.24.47,2.13.13,4.26.32,6.4.36q11.19.24,22.38.38c2.77,0,5.55,0,8.32-.13,3.24-.16,6.47-.45,9.71-.75q2.9-.27,5.78-.74c1.68-.28,3.35-.69,5-1a3.42,3.42,0,0,1,.64,0c0,1.18.05,2.36,0,3.53s-1.09,1.1-1.84,1.25c-2,.41-4,.75-6,1.08-1,.17-2,.31-3,.39-2.1.17-4.2.39-6.3.43-7.71.16-15.42.27-23.13.37-1.74,0-3.49,0-5.23-.09-2.38-.1-4.76-.23-7.14-.37-1.82-.11-3.64-.23-5.46-.37-3-.23-6-.45-9-.71-2.64-.22-5.29-.49-7.93-.75q-3.42-.34-6.82-.74c-2.14-.24-4.29-.5-6.43-.76-1.86-.23-3.72-.47-5.58-.74C4.84,60.13,4.16,59.94,3.37,59.78Z"/><path class="cls-2" d="M130.33,56.45c-.07-2.88-.13-5.76-.22-8.64-.1-3.44-.23-6.89-.37-10.34-.11-2.63-.26-5.26-.37-7.89-.14-3.56-.24-7.13-.38-10.7-.1-2.47-.26-4.95-.35-7.42,0-1.19.44-1.47,1.5-.94,1.37.69,2.69,1.48,4.1,2.06a22.41,22.41,0,0,0,3.49.94,6.62,6.62,0,0,0,2,.31,24.11,24.11,0,0,0,4-.56c3.74-.94,6.47-3.43,9-6.16,1.21-1.32,2.22-2.82,3.38-4.18a6.77,6.77,0,0,1,1.84-1.67c.86-.45,2.09.22,2.74,1.24,1.57,2.45,3.09,4.92,4.74,7.31,1.84,2.68,3.72,5.33,5.73,7.88s4.24,5.22,6.52,7.69a22.41,22.41,0,0,0,8.23,6c1.84.73,3.72,1.35,5.6,2s3.48,1.17,5.22,1.74,3.47,1.07,5.19,1.63,3.37,1.13,5,1.71,3.22,1,4.78,1.67c2.53,1,5.07,2,7.51,3.22a42.7,42.7,0,0,1,6,3.53,17.08,17.08,0,0,1,3.07,3.32,3.15,3.15,0,0,1,.51,2.7c-.28,1.29-1.5,1.17-2.39,1.39-1.78.43-3.6.73-5.4,1.06-.91.17-1.82.3-2.74.41-1.31.16-2.64.28-3.95.44-1.53.2-3.05.43-4.57.63-1.23.16-2.45.31-3.69.41-1.94.18-3.89.29-5.83.46-2.09.19-4.17.42-6.26.63-.44,0-.87.06-1.31.08l-9.58.43c-3.1.13-6.2.28-9.31.36-4.59.12-9.19.25-13.78.25-3.13,0-6.27-.22-9.4-.36-1.51-.07-3-.17-4.54-.32-2.37-.22-4.74-.44-7.09-.76s-4.48-.71-6.72-1.1c-.54-.1-1.06-.29-1.59-.44Z"/><path class="cls-2" d="M130.59,57.62c1.08.24,2.09.47,3.1.68.81.16,1.63.32,2.45.43,1.25.17,2.52.28,3.77.43,1.93.23,3.86.51,5.79.68,1.4.12,2.8.12,4.2.15,7.31.13,14.61.28,21.92.37,2.8,0,5.6,0,8.4-.12,2.51-.07,5-.23,7.52-.37,1.7-.1,3.4-.23,5.09-.36,3.09-.25,6.17-.48,9.25-.76q3.51-.31,7-.75c2.41-.29,4.81-.68,7.21-1,1.26-.17,2.52-.26,3.77-.46,1.9-.31,3.79-.69,5.69-1l2.44-.43-1.64,4.84-6.68.77c-2.08.25-4.15.51-6.24.75q-3.4.39-6.81.74-3.87.4-7.75.75c-3,.27-6,.51-9.07.75-1.82.14-3.64.26-5.46.37-2.38.14-4.76.31-7.14.36q-10.35.24-20.7.38c-2.11,0-4.24,0-6.35-.12-3-.17-6-.42-9-.71-1.77-.17-3.54-.43-5.3-.74-1.53-.27-3-.74-4.56-1-.76-.13-.9-.57-.92-1.13C130.56,60,130.59,58.86,130.59,57.62Z"/></g></g></svg>