<svg xmlns="http://www.w3.org/2000/svg" viewBox="0 0 251.02 44.3"><defs><style>.cls-1,.cls-2{fill-rule:evenodd;}.cls-2{fill:#fff;}</style></defs><title>shoe1</title><g id="Layer_2" data-name="Layer 2"><g id="圖層_1" data-name="圖層 1"><path class="cls-1" d="M106.86,2.44c.84,2.31,1.68,4.37,2.35,6.49s1.1,4.1,1.6,6.16,1,4.34,1.43,6.52c.23,1.16.27,2.36.45,3.53.66,4.15.42,8.33.34,12.5,0,2.2-.44,4.41-.68,6.66H82.85l-.58-6.72c-1.36.06-2.8-.43-4.15.44a19.35,19.35,0,0,1-6,2.58c-2.3.56-4.61,1.11-6.95,1.53a45.4,45.4,0,0,1-6,.74c-5,.19-9.93.31-14.9.31a52.36,52.36,0,0,1-6-.62c-1.18-.13-2.36-.28-3.54-.43-2.11-.27-4.22-.47-6.31-.84-2.25-.39-4.48-.94-6.72-1.4-1.42-.3-2.87-.51-4.29-.85-1.76-.42-3.5-.93-5.25-1.4-1.53-.41-3.1-.74-4.6-1.26a31.27,31.27,0,0,1-7.12-3c-.77-.51-.33-1.12-.16-1.63.24-.67.74-1.25,1-1.92a1.29,1.29,0,0,1,1.19-1c.56-.06.78-.37.79-.94a8.73,8.73,0,0,1,1.45-4.7,4.84,4.84,0,0,1,3.78-2.34,22.11,22.11,0,0,1,6.87.7,14.26,14.26,0,0,0,2.58.4,101.6,101.6,0,0,0,10.45.33,25.49,25.49,0,0,0,9.21-2.43,35.32,35.32,0,0,0,6.19-3.8,1.6,1.6,0,0,0,.78-1.43c0-1.46,1-2.13,2.11-2.81,3.08-2,6.12-4,9.24-5.88S62.44,2.06,65.75.18A1.34,1.34,0,0,1,67.6.74,20.63,20.63,0,0,0,74.07,7a23.59,23.59,0,0,0,5.27,2.17c3.64,1.08,7.35.76,11,.63a31.38,31.38,0,0,0,5.18-1,19.57,19.57,0,0,0,7.23-3.06c1.11-.75,2.09-1.7,3.13-2.55C106.17,3,106.45,2.77,106.86,2.44ZM66.18,1.21c-1,.57-2.08,1.13-3.11,1.76Q59,5.45,54.87,8c-2.79,1.75-5.57,3.52-8.3,5.36A2.39,2.39,0,0,0,45.7,15a2.35,2.35,0,0,1-1,1.78,28,28,0,0,1-11.8,6,41.44,41.44,0,0,1-6.87.81,28.86,28.86,0,0,1-4.92-.05c-2.54-.26-5-.71-7.58-1.06a31.81,31.81,0,0,1-3.43-.47,3.69,3.69,0,0,0-2.67.38C5,23.53,4.55,25.88,4.29,28.42,6,29,7.68,29.51,9.36,29.94c1.85.47,3.73.82,5.6,1.22,2.24.47,4.47,1,6.72,1.4,2.71.46,5.43.83,8.16,1.15s5.29.53,7.94.74c2,.16,3.95.35,5.93.34q8.82-.06,17.66-.26c2.57-.05,5.14-.23,7.71-.39,2-.12,3.88-.29,5.82-.46,1.09-.1,2.18-.23,3.26-.39,2.19-.32,4.37-.69,6.55-1,1.88-.29,3.76-.54,5.64-.83.76-.11,1.53-.25,2.28-.41,1.54-.33,3.07-.7,4.62-1,1.39-.3,2.81-.51,4.19-.84,1.86-.44,3.7-.95,5.54-1.43l4.59-1.19a6,6,0,0,0,0-.61c-.27-2.1-.52-4.21-.84-6.3-.19-1.22-.45-2.43-.76-3.63-.43-1.66-.93-3.31-1.43-5-.63-2-1.29-4.08-2-6.1a.72.72,0,0,0-.65-.05,23.74,23.74,0,0,1-7.71,4.36,26.35,26.35,0,0,1-7.55,1.69c-4.69.29-9.43.5-14-1.36A18.37,18.37,0,0,1,71,6.26C69.35,4.7,67.84,3,66.18,1.21Zm45.71,26.56a1.83,1.83,0,0,0-.55,0c-2.16.59-4.31,1.24-6.48,1.79S100.29,30.6,98,31.08c-2.51.53-5,1-7.56,1.5-2.29.42-4.59.79-6.9,1.14-1.88.28-3.76.54-5.65.76-2.42.28-4.85.53-7.27.77-1.56.15-3.13.29-4.7.37C63,35.78,60,36,57.06,36c-4.68,0-9.37-.13-14.06-.26-2,0-4-.2-6-.37q-4.26-.36-8.5-.82c-1.79-.19-3.58-.46-5.37-.74-2.48-.38-5-.78-7.45-1.2-.76-.12-1.52-.3-2.27-.48-1.38-.33-2.76-.66-4.12-1-1.16-.3-2.29-.7-3.44-1-1-.24-1.9-.89-3-.2-.77.48-.78,1.31-1.24,1.89s0,.93.34,1.1a46.84,46.84,0,0,0,4.7,1.93c2.3.74,4.65,1.34,7,2s4.75,1.28,7.14,1.82,5.09,1.06,7.65,1.51,5.12.81,7.68,1.14c2.33.3,4.67.6,7,.72,2.77.14,5.55.15,8.32.09s5.66-.22,8.48-.39c1.5-.08,3-.26,4.48-.43a20.27,20.27,0,0,0,2.2-.4c1.38-.33,2.76-.64,4.11-1.06a27.54,27.54,0,0,0,4.81-1.73c2-1.06,3.87-2,6.21-1.77,1.6.13,1.71.07,1.79,1.73s.24,3.42.36,5.13a4.91,4.91,0,0,0,.51,0q13.07,0,26.13,0c.75,0,.9-.45,1-1a18.69,18.69,0,0,0,.37-3C111.91,35.49,111.89,31.68,111.89,27.77Z"/><path class="cls-1" d="M168.88,37.53c-.2,2.3-.39,4.48-.59,6.75H138.84c-2.3-14.38.17-28.17,5.41-41.75a3.75,3.75,0,0,1,.69.45,20.06,20.06,0,0,0,8.11,5.07,22.08,22.08,0,0,0,6.17,1.49,72.77,72.77,0,0,0,9.21.27,19.18,19.18,0,0,0,10-3.68A23.89,23.89,0,0,0,183.54.76a1.3,1.3,0,0,1,2-.46c3.65,2.12,7.32,4.23,10.93,6.43,3.12,1.9,6.17,3.9,9.24,5.87.75.48.73,1.34.95,2.09a2.5,2.5,0,0,0,.59,1.22,31.19,31.19,0,0,0,8.09,4.67c4.73,1.82,9.61,2,14.54,1.74,2.19-.13,4.35-.74,6.54-1a58.91,58.91,0,0,1,6.36-.44,5.2,5.2,0,0,1,4.38,3.48c.33,1.21.51,2.47.8,3.69.07.28.36.72.56.72A1.66,1.66,0,0,1,250,30c.33.79.72,1.55,1,2.36a1,1,0,0,1-.32,1c-1.65.83-3.31,1.66-5,2.33s-3.7,1.28-5.58,1.82c-1.68.48-3.4.83-5.11,1.24l-6,1.44c-.72.17-1.46.3-2.19.42-2.58.41-5.16.82-7.75,1.19-1.94.28-3.9.47-5.84.78-6.38,1-12.8.79-19.2.65a59.87,59.87,0,0,1-7.18-.76,48.3,48.3,0,0,1-5.55-1.13,29.94,29.94,0,0,1-8.69-3.51,3.46,3.46,0,0,0-1.6-.24C170.24,37.5,169.56,37.53,168.88,37.53Zm-29.37-11c1.94.55,3.73,1.11,5.55,1.55s3.8.83,5.7,1.23l7.09,1.49c.79.16,1.58.29,2.38.43,2.07.36,4.15.73,6.22,1.07,1.05.18,2.11.29,3.16.44,2.38.34,4.74.75,7.13,1,2.61.3,5.23.51,7.85.71,2.29.17,4.58.37,6.87.36,5.82,0,11.65-.08,17.47-.26,3.4-.11,6.81-.44,10.21-.74,2.14-.19,4.28-.47,6.42-.76,2.65-.37,5.29-.78,7.93-1.19.74-.11,1.47-.26,2.19-.44,1.89-.45,3.77-.91,5.64-1.4s3.65-1,5.59-1.52a16.85,16.85,0,0,0-.57-3,5.14,5.14,0,0,0-2-2.84,4.62,4.62,0,0,0-3.49-.7c-1.28.26-2.61.3-3.91.46-1,.12-2,.29-3,.43a45.39,45.39,0,0,1-4.62.64c-3.48.12-7,.24-10.39-.69a27.86,27.86,0,0,1-4.59-1.32,62.9,62.9,0,0,1-6.61-3.69c-1.17-.74-2.48-1.51-2.34-3.32,0-.36-.46-.84-.82-1.13-.68-.54-1.43-1-2.16-1.46-2.4-1.54-4.78-3.11-7.21-4.6-3.41-2.1-6.86-4.14-10.31-6.21-.44.51-.79.89-1.1,1.29a23.64,23.64,0,0,1-5.17,5.06,20,20,0,0,1-10,3.53,81.65,81.65,0,0,1-9.5-.26,22.29,22.29,0,0,1-6.27-1.47,21.7,21.7,0,0,1-7.63-4.31,5.31,5.31,0,0,0-.75-.41c-1,3.73-2.08,7.29-3,10.86A58.81,58.81,0,0,0,139.51,26.48ZM167.2,43.21c.15-1.36.29-2.63.41-3.9,0-.54,0-1.08,0-1.61.07-1.24.28-1.42,1.47-1.36.88,0,1.77,0,2.65.09a3.91,3.91,0,0,1,1.71.49c2.4,1.67,5.18,2.4,7.9,3.22a37.38,37.38,0,0,0,5.35,1.12,70.46,70.46,0,0,0,7.09.77c2.83.15,5.68.06,8.51.09a64.22,64.22,0,0,0,10.9-.74c2.7-.44,5.42-.76,8.14-1.15,1.75-.26,3.49-.53,5.24-.82.73-.11,1.47-.25,2.19-.42,1.41-.33,2.81-.71,4.22-1s2.68-.51,4-.87c2-.55,4-1.13,6-1.81s3.82-1.55,5.77-2.19c1.09-.36,1.08-.81.66-1.7-.78-1.67-1.48-2-3.2-1.47-1.37.43-2.76.82-4.16,1.16s-2.65.56-4,.86c-1.54.34-3.07.76-4.62,1-1.8.33-3.62.55-5.43.83-2.25.35-4.48.77-6.73,1-2.74.33-5.48.58-8.22.77s-5.65.37-8.47.37c-4.72,0-9.44-.13-14.16-.25-2.16-.06-4.33-.21-6.49-.39-2.89-.23-5.79-.5-8.68-.8-2-.21-4-.47-5.94-.75-2.46-.35-4.91-.75-7.37-1.13-1.75-.28-3.5-.55-5.24-.84-.74-.13-1.47-.29-2.19-.45-1.44-.33-2.88-.69-4.33-1s-2.68-.53-4-.86c-1.72-.43-3.43-1-5.14-1.41-.58-.15-1.16-.26-1.79-.39l0,.61c0,4.56-.27,9.12.38,13.66a8.67,8.67,0,0,0,.36,1.23Z"/><path class="cls-2" d="M66.18,1.21C67.84,3,69.35,4.7,71,6.26A18.37,18.37,0,0,0,76.7,9.58c4.53,1.86,9.27,1.65,14,1.36a26.35,26.35,0,0,0,7.55-1.69,23.74,23.74,0,0,0,7.71-4.36.72.72,0,0,1,.65.05c.68,2,1.34,4.06,2,6.1.5,1.64,1,3.29,1.43,5,.31,1.2.57,2.41.76,3.63.32,2.09.57,4.2.84,6.3a6,6,0,0,1,0,.61L107,27.72c-1.84.48-3.68,1-5.54,1.43-1.38.33-2.8.54-4.19.84-1.55.33-3.08.7-4.62,1-.75.16-1.52.3-2.28.41-1.88.29-3.76.54-5.64.83-2.18.34-4.36.71-6.55,1-1.08.16-2.17.29-3.26.39-1.94.17-3.87.34-5.82.46-2.57.16-5.14.34-7.71.39q-8.84.19-17.66.26c-2,0-4-.18-5.93-.34-2.65-.21-5.3-.43-7.94-.74s-5.45-.69-8.16-1.15c-2.25-.38-4.48-.93-6.72-1.4-1.87-.4-3.75-.75-5.6-1.22C7.68,29.51,6,29,4.29,28.42c.26-2.54.66-4.89,3.18-6.11a3.69,3.69,0,0,1,2.67-.38,31.81,31.81,0,0,0,3.43.47c2.53.35,5,.8,7.58,1.06a28.86,28.86,0,0,0,4.92.05,41.44,41.44,0,0,0,6.87-.81,28,28,0,0,0,11.8-6,2.35,2.35,0,0,0,1-1.78,2.39,2.39,0,0,1,.87-1.6c2.73-1.84,5.51-3.61,8.3-5.36s5.46-3.37,8.2-5C64.1,2.34,65.17,1.78,66.18,1.21Z"/><path class="cls-2" d="M111.89,27.77c0,3.91,0,7.72,0,11.54a18.69,18.69,0,0,1-.37,3c-.09.52-.24,1-1,1q-13.07,0-26.13,0a4.91,4.91,0,0,1-.51,0c-.12-1.71-.28-3.42-.36-5.13s-.19-1.6-1.79-1.73c-2.34-.19-4.24.71-6.21,1.77a27.54,27.54,0,0,1-4.81,1.73c-1.35.42-2.73.73-4.11,1.06a20.27,20.27,0,0,1-2.2.4c-1.49.17-3,.35-4.48.43-2.82.17-5.65.34-8.48.39s-5.55,0-8.32-.09c-2.34-.12-4.68-.42-7-.72-2.56-.33-5.13-.7-7.68-1.14s-5.11-.94-7.65-1.51S16,37.45,13.63,36.82s-4.69-1.23-7-2a46.84,46.84,0,0,1-4.7-1.93c-.37-.17-.89-.41-.34-1.1s.47-1.41,1.24-1.89c1.11-.69,2,0,3,.2,1.15.27,2.28.67,3.44,1,1.36.36,2.74.69,4.12,1,.75.18,1.51.36,2.27.48,2.48.42,5,.82,7.45,1.2,1.79.28,3.58.55,5.37.74q4.24.47,8.5.82c2,.17,4,.32,6,.37,4.69.13,9.38.26,14.06.26,2.95,0,5.91-.21,8.85-.37,1.57-.08,3.14-.22,4.7-.37,2.42-.24,4.85-.49,7.27-.77,1.89-.22,3.77-.48,5.65-.76,2.31-.35,4.61-.72,6.9-1.14,2.53-.46,5-1,7.56-1.5,2.3-.48,4.59-1,6.87-1.55s4.32-1.2,6.48-1.79A1.83,1.83,0,0,1,111.89,27.77Z"/><path class="cls-2" d="M139.51,26.48a58.81,58.81,0,0,1,2-11.12c1-3.57,2-7.13,3-10.86a5.31,5.31,0,0,1,.75.41,21.7,21.7,0,0,0,7.63,4.31,22.29,22.29,0,0,0,6.27,1.47,81.65,81.65,0,0,0,9.5.26,20,20,0,0,0,10-3.53,23.64,23.64,0,0,0,5.17-5.06c.31-.4.66-.78,1.1-1.29,3.45,2.07,6.9,4.11,10.31,6.21,2.43,1.49,4.81,3.06,7.21,4.6.73.47,1.48.92,2.16,1.46.36.29.85.77.82,1.13-.14,1.81,1.17,2.58,2.34,3.32a62.9,62.9,0,0,0,6.61,3.69,27.86,27.86,0,0,0,4.59,1.32c3.42.93,6.91.81,10.39.69a45.39,45.39,0,0,0,4.62-.64c1-.14,2-.31,3-.43,1.3-.16,2.63-.2,3.91-.46a4.62,4.62,0,0,1,3.49.7,5.14,5.14,0,0,1,2,2.84,16.85,16.85,0,0,1,.57,3c-1.94.52-3.76,1-5.59,1.52s-3.75,1-5.64,1.4c-.72.18-1.45.33-2.19.44-2.64.41-5.28.82-7.93,1.19-2.14.29-4.28.57-6.42.76-3.4.3-6.81.63-10.21.74-5.82.18-11.65.24-17.47.26-2.29,0-4.58-.19-6.87-.36-2.62-.2-5.24-.41-7.85-.71-2.39-.27-4.75-.68-7.13-1-1.05-.15-2.11-.26-3.16-.44-2.07-.34-4.15-.71-6.22-1.07-.8-.14-1.59-.27-2.38-.43l-7.09-1.49c-1.9-.4-3.81-.76-5.7-1.23S141.45,27,139.51,26.48Z"/><path class="cls-2" d="M167.2,43.21H140a8.67,8.67,0,0,1-.36-1.23c-.65-4.54-.41-9.1-.38-13.66l0-.61c.63.13,1.21.24,1.79.39,1.71.46,3.42,1,5.14,1.41,1.32.33,2.67.56,4,.86s2.89.68,4.33,1c.72.16,1.45.32,2.19.45,1.74.29,3.49.56,5.24.84,2.46.38,4.91.78,7.37,1.13,2,.28,3.95.54,5.94.75,2.89.3,5.79.57,8.68.8,2.16.18,4.33.33,6.49.39,4.72.12,9.44.25,14.16.25,2.82,0,5.65-.18,8.47-.37s5.48-.44,8.22-.77c2.25-.27,4.48-.69,6.73-1,1.81-.28,3.63-.5,5.43-.83,1.55-.28,3.08-.7,4.62-1,1.33-.3,2.66-.53,4-.86s2.79-.73,4.16-1.16c1.72-.54,2.42-.2,3.2,1.47.42.89.43,1.34-.66,1.7-1.95.64-3.83,1.52-5.77,2.19s-4,1.26-6,1.81c-1.31.36-2.67.56-4,.87s-2.81.7-4.22,1c-.72.17-1.46.31-2.19.42-1.75.29-3.49.56-5.24.82-2.72.39-5.44.71-8.14,1.15a64.22,64.22,0,0,1-10.9.74c-2.83,0-5.68.06-8.51-.09a70.46,70.46,0,0,1-7.09-.77,37.38,37.38,0,0,1-5.35-1.12c-2.72-.82-5.5-1.55-7.9-3.22a3.91,3.91,0,0,0-1.71-.49c-.88-.09-1.77,0-2.65-.09-1.19-.06-1.4.12-1.47,1.36,0,.53,0,1.07,0,1.61C167.49,40.58,167.35,41.85,167.2,43.21Z"/></g></g></svg>