<svg xmlns="http://www.w3.org/2000/svg" viewBox="0 0 259.84 68.5"><defs><style>.cls-1,.cls-2{fill-rule:evenodd;}.cls-2{fill:#fff;}</style></defs><title>shoe4</title><g id="Layer_2" data-name="Layer 2"><g id="圖層_1" data-name="圖層 1"><path class="cls-1" d="M148.33,36.28c0-1.74,0-3.47,0-5.2.11-5.78.22-11.56.37-17.33.08-3,.23-5.92.38-8.87a16.8,16.8,0,0,1,.34-2.55c.26-1.27,2-1.66,3.39-.94a40.38,40.38,0,0,0,5.82,2.71,18.43,18.43,0,0,0,8.28.75,66,66,0,0,0,6.51-1.35c1.89-.46,3.78-1,5.63-1.57,1.42-.46,2.78-1.09,4.19-1.6C185-.32,186.34-.09,187,2c.71,2.21,1.65,4.35,2.45,6.53s1.54,4.34,2.33,6.5,1.68,4.46,2.51,6.7a13.93,13.93,0,0,0,.87,2.45,4.83,4.83,0,0,0,1.63,1.51c3.66,2.24,7.37,4.4,11,6.65,2.63,1.6,5.23,3.25,7.76,5,.55.39.73,1.3,1.09,2a4.81,4.81,0,0,0,.91,1.57,27.68,27.68,0,0,0,7,4.09c1.42.56,2.95.85,4.42,1.27a29,29,0,0,0,9.9.66c2.31-.13,4.59-.72,6.89-1a37.9,37.9,0,0,1,6.88-.37,4.63,4.63,0,0,1,3.75,3.33,35,35,0,0,1,.81,3.43,1.39,1.39,0,0,0,.61.9,3.63,3.63,0,0,1,2,4c-.16.94-1,1.3-1.7,1.58-1.86.75-3.77,1.37-5.68,2s-3.82,1.24-5.75,1.75-3.61.8-5.41,1.2c-1.51.34-3,.7-4.52,1-.71.16-1.43.31-2.15.41-1.91.29-3.81.57-5.72.81-3.31.41-6.62,1-9.95,1.13-4.93.25-9.87.3-14.81.26a42.85,42.85,0,0,1-6.76-.72,49.79,49.79,0,0,1-11.17-3,6.76,6.76,0,0,1-1.73-.9,5.24,5.24,0,0,0-3.88-.94c-.68,0-1,.4-1,1-.12,1.32-.24,2.63-.37,4a2.21,2.21,0,0,1-1.71,1.72,5,5,0,0,1-.55,0c-8.21,0-16.41,0-24.62,0a2.46,2.46,0,0,1-2.48-2.41c-.26-3.34-.59-6.68-.83-10-.18-2.46-.28-4.92-.37-7.38-.14-4.14-.25-8.27-.38-12.41ZM256.09,52.92a7.84,7.84,0,0,0-1.59-5,4.31,4.31,0,0,0-3.73-1.53c-1.3.06-2.59.38-3.89.56-1.12.16-2.25.29-3.37.44-1.6.22-3.2.58-4.81.64-3.29.11-6.59.24-9.82-.67-1.58-.45-3.2-.83-4.74-1.4a23.88,23.88,0,0,1-6.35-3.5c-.9-.68-2.09-1.22-2.19-2.53a2.75,2.75,0,0,0-1.36-2.2c-2.65-1.74-5.3-3.47-8-5.14s-5.57-3.27-8.3-5c-1.56-1-3.78-1.31-4.16-3.67a3.78,3.78,0,0,0-.22-.88c-.95-2.51-1.94-5-2.86-7.52-.82-2.21-1.56-4.45-2.36-6.67S186.66,4.28,185.84,2c-.22-.59-.59-.95-1.21-.83a16.85,16.85,0,0,0-2.06.63c-1.91.66-3.8,1.4-5.73,2A42.83,42.83,0,0,1,172.09,5a56.53,56.53,0,0,1-6.58,1,23.66,23.66,0,0,1-5-.34A14.82,14.82,0,0,1,157,4.73a54.78,54.78,0,0,1-5.23-2.54c-.66-.35-.92.05-1.15.41a2.67,2.67,0,0,0-.31,1.23c-.15,2.64-.28,5.29-.38,7.93q-.21,5.93-.37,11.84c0,1.58-.08,3.16-.06,4.74.09,7.19.22,14.39.29,21.59a1,1,0,0,0,.82,1c1,.3,2,.55,3,.78,1.74.42,3.49.79,5.23,1.2,2.41.58,4.81,1.21,7.23,1.75,1.93.43,3.87.78,5.82,1.12,2.28.4,4.56.8,6.86,1.12,2.88.41,5.76.79,8.66,1.1,2.74.3,5.5.53,8.26.75,2,.15,3.93.32,5.9.31q8.67,0,17.33-.25c2.65-.06,5.29-.24,7.93-.41,1.5-.09,3-.26,4.5-.41,1-.11,1.94-.22,2.91-.38,2-.32,4-.69,6-1,1.62-.28,3.26-.48,4.86-.83,1.86-.4,3.69-.91,5.53-1.39S254.24,53.41,256.09,52.92ZM149.81,51.86c0,.62,0,1.14,0,1.66.11,1.91.21,3.81.38,5.71.2,2.14.51,4.27.71,6.4.11,1.27.52,1.74,1.78,1.74h20c1.42,0,2.85,0,4.27,0,.59,0,1-.21,1.12-.82.15-1.09.31-2.19.36-3.29.08-1.9.76-2.64,2.64-2.59a5.88,5.88,0,0,1,2.65.36,35.87,35.87,0,0,0,8.19,3.31,39.11,39.11,0,0,0,5.25,1.08,74,74,0,0,0,7.42.77c3.26.14,6.52.08,9.78.08,1.39,0,2.79,0,4.17-.14,2.65-.27,5.29-.65,7.94-1,1.28-.16,2.56-.27,3.84-.44.81-.11,1.62-.26,2.43-.42l5-1c1.4-.28,2.81-.52,4.19-.84s2.57-.67,3.85-1c1.6-.41,3.23-.74,4.81-1.23,2.08-.65,4.14-1.38,6.17-2.16a3.5,3.5,0,0,0,1.85-1.25,2.38,2.38,0,0,0-.47-2A1.86,1.86,0,0,0,256,54c-.86.25-1.72.52-2.59.75-2.8.73-5.6,1.49-8.42,2.14-2,.46-3.93.81-5.91,1.12-2.66.41-5.32.8-8,1.11s-5.43.55-8.15.75c-2.43.18-4.86.36-7.29.36-4.6,0-9.2-.11-13.79-.25q-5.06-.13-10.08-.48c-2.2-.15-4.39-.47-6.58-.7-1.4-.15-2.82-.23-4.21-.44-2.71-.42-5.41-.93-8.11-1.38-1.71-.29-3.43-.54-5.15-.83-.72-.12-1.43-.27-2.14-.43-1.51-.33-3-.68-4.52-1-1.24-.28-2.49-.53-3.73-.84s-2.62-.68-3.93-1C152.27,52.55,151.12,52.23,149.81,51.86Z"/><path class="cls-1" d="M95.27,68.48H82.91a2.1,2.1,0,0,1-2.26-2.12c-.09-1.23-.23-2.45-.36-3.67-.07-.6-.41-.84-1-.93-1.74-.25-3.11.58-4.6,1.28A37.78,37.78,0,0,1,69,65.12c-2.06.6-4.17,1-6.28,1.45a21.87,21.87,0,0,1-2.91.39c-2.61.17-5.23.36-7.84.41-3.13.07-6.25.06-9.38-.05-1.83-.07-3.65-.39-5.47-.6-1.16-.14-2.32-.3-3.48-.43-1.31-.15-2.63-.23-3.92-.45-1.71-.28-3.4-.68-5.1-1-1.5-.29-3-.52-4.49-.83s-2.83-.66-4.24-1c-1.14-.27-2.29-.54-3.43-.83-1.51-.39-3.05-.73-4.53-1.22-2-.65-3.95-1.39-5.89-2.16-.94-.37-1.91-.75-2-2a3.78,3.78,0,0,1,1.85-3.53,1.62,1.62,0,0,0,.76-.87c.31-1.1.45-2.25.78-3.34a5.15,5.15,0,0,1,4.36-3.6,22.19,22.19,0,0,1,6.83.7,12.51,12.51,0,0,0,2.44.37,81.38,81.38,0,0,0,10.34.33A27.55,27.55,0,0,0,41.72,41.3a5.9,5.9,0,0,0,1.8-3,2.66,2.66,0,0,1,.9-1.12c2.3-1.57,4.6-3.13,6.95-4.61,2.93-1.85,5.91-3.62,8.89-5.4,1.14-.68,2.42-1.16,3.49-1.93A4.2,4.2,0,0,0,65,23.32c1.32-3.53,2.52-7.1,3.82-10.64C70,9.49,71.25,6.32,72.45,3.14c.22-.59.29-1.25.56-1.81A2.69,2.69,0,0,1,76.56.25c2.3.9,4.65,1.69,7,2.47,1.6.53,3.22,1,4.85,1.4a20.53,20.53,0,0,0,2.81.44c1.34.16,2.69.34,4,.37A21.52,21.52,0,0,0,107,1.46c1.85-1.14,3.43-.33,3.52,1.82.12,3.05.27,6.1.37,9.15.14,4.41.28,8.82.37,13.24.11,6.11.24,12.23.24,18.34,0,3.64-.17,7.29-.37,10.92-.16,2.91-.44,5.82-.74,8.73a24.59,24.59,0,0,1-.68,3.48,1.8,1.8,0,0,1-2,1.34ZM3.77,52.85l1.74.5c1.68.47,3.35,1,5,1.39,1.26.32,2.54.57,3.82.84,1.6.34,3.2.7,4.8,1,1.08.2,2.19.29,3.27.46,2.15.33,4.29.73,6.44,1q3.56.44,7.14.68c2.92.2,5.85.43,8.78.43,5,0,10.07-.17,15.1-.31,2,0,4-.2,6-.36,2.64-.21,5.27-.47,7.89-.75,2-.2,3.89-.45,5.83-.73,2.45-.35,4.89-.74,7.33-1.12,1.68-.27,3.37-.53,5-.81.72-.12,1.43-.28,2.15-.44,1.48-.33,3-.67,4.43-1l4-1c1.14-.28,2.28-.59,3.43-.87s2.28-.54,3.4-.88a1.06,1.06,0,0,0,.67-.7c.16-1.87.35-3.74.33-5.61q-.09-11.08-.31-22.16c-.07-4-.25-8-.36-12,0-1.73,0-3.47-.06-5.2a10.65,10.65,0,0,0-.35-2.45c-.14-.49-.51-1-1.21-.5-.43.29-.92.5-1.38.76a22.19,22.19,0,0,1-9.16,3,52.32,52.32,0,0,1-7.28-.33,11.17,11.17,0,0,1-2.06-.39c-1.7-.45-3.39-.91-5.06-1.43s-3.38-1.16-5.07-1.74c-.94-.32-1.87-.67-2.82-.9-.66-.16-1,.24-1.26.88-.54,1.58-1.15,3.14-1.73,4.71-.66,1.83-1.32,3.65-2,5.48S69,16,68.27,17.82s-1.38,3.81-2.1,5.71c-.42,1.1-.7,2.33-2,2.83a9.29,9.29,0,0,0-1.25.55c-2.2,1.32-4.4,2.65-6.58,4-3.64,2.27-7.29,4.55-10.88,6.9a2.58,2.58,0,0,0-1.12,1.62,2.87,2.87,0,0,1-1.19,2.11c-.84.64-1.7,1.26-2.57,1.86a26.69,26.69,0,0,1-10.68,4.2,56.2,56.2,0,0,1-6.63.42A18.36,18.36,0,0,1,20.22,48c-2.43-.3-4.84-.71-7.26-1-1.18-.17-2.38-.23-3.55-.45a4.66,4.66,0,0,0-4.08,1.39A7.87,7.87,0,0,0,3.77,52.85Zm106.11-.91c-.46.1-1,.19-1.45.31-1.72.45-3.43.93-5.16,1.37-1.23.31-2.47.56-3.71.84-1.41.33-2.82.71-4.24,1s-3.06.54-4.58.84-3.26.74-4.91,1c-2,.33-4,.54-6.08.82-2.43.34-4.84.76-7.27,1-2.78.32-5.57.56-8.36.74s-5.6.37-8.4.37c-4.35,0-8.7-.12-13-.25-2.3-.06-4.61-.19-6.9-.37-2.79-.22-5.57-.5-8.34-.8-1.76-.19-3.51-.46-5.26-.73-2.44-.37-4.88-.77-7.31-1.17-.72-.12-1.44-.26-2.15-.44-1.29-.32-2.56-.68-3.85-1a39.67,39.67,0,0,1-4.61-1.26,2,2,0,0,0-2.43.5c-1,1-.92,2.43.35,2.9,2.88,1.07,5.79,2.08,8.72,3,1.64.51,3.34.81,5,1.19q3.32.75,6.64,1.47c.74.16,1.5.28,2.24.42,1.7.34,3.39.72,5.09,1,1.3.22,2.62.3,3.93.46,1,.12,2.06.27,3.1.39,2,.22,3.9.54,5.86.63,2.72.12,5.46.12,8.19.06,2.93-.07,5.85-.25,8.78-.43a20.21,20.21,0,0,0,3-.4c2-.43,4-.85,6-1.41a36.33,36.33,0,0,0,4.88-1.75c1.82-.83,3.49-2,5.68-1.64a2.28,2.28,0,0,1,2.12,2c.11,1.22.26,2.44.35,3.66,0,.8.49,1,1.2,1,8.17,0,16.34,0,24.52,0a1.36,1.36,0,0,0,1.06-.6,6.65,6.65,0,0,0,.41-2c.26-2.39.49-4.77.73-7.15,0-.43.18-.84.19-1.26C109.9,54.87,109.88,53.39,109.88,51.94Z"/><path class="cls-2" d="M256.09,52.92c-1.85.49-3.67,1-5.5,1.46s-3.67,1-5.53,1.39c-1.6.35-3.24.55-4.86.83-2,.34-4,.71-6,1-1,.16-1.94.27-2.91.38-1.5.15-3,.32-4.5.41-2.64.17-5.28.35-7.93.41q-8.67.2-17.33.25c-2,0-3.94-.16-5.9-.31-2.76-.22-5.52-.45-8.26-.75-2.9-.31-5.78-.69-8.66-1.1-2.3-.32-4.58-.72-6.86-1.12-2-.34-3.89-.69-5.82-1.12-2.42-.54-4.82-1.17-7.23-1.75-1.74-.41-3.49-.78-5.23-1.2-1-.23-2-.48-3-.78a1,1,0,0,1-.82-1c-.07-7.2-.2-14.4-.29-21.59,0-1.58,0-3.16.06-4.74q.16-5.91.37-11.84c.1-2.64.23-5.29.38-7.93a2.67,2.67,0,0,1,.31-1.23c.23-.36.49-.76,1.15-.41A54.78,54.78,0,0,0,157,4.73a14.82,14.82,0,0,0,3.59.93,23.66,23.66,0,0,0,5,.34,56.53,56.53,0,0,0,6.58-1,42.83,42.83,0,0,0,4.75-1.19c1.93-.6,3.82-1.34,5.73-2a16.85,16.85,0,0,1,2.06-.63c.62-.12,1,.24,1.21.83.82,2.28,1.69,4.53,2.51,6.81s1.54,4.46,2.36,6.67c.92,2.52,1.91,5,2.86,7.52a3.78,3.78,0,0,1,.22.88c.38,2.36,2.6,2.67,4.16,3.67,2.73,1.74,5.56,3.31,8.3,5s5.34,3.4,8,5.14a2.75,2.75,0,0,1,1.36,2.2c.1,1.31,1.29,1.85,2.19,2.53a23.88,23.88,0,0,0,6.35,3.5c1.54.57,3.16,1,4.74,1.4,3.23.91,6.53.78,9.82.67,1.61-.06,3.21-.42,4.81-.64,1.12-.15,2.25-.28,3.37-.44,1.3-.18,2.59-.5,3.89-.56a4.31,4.31,0,0,1,3.73,1.53A7.84,7.84,0,0,1,256.09,52.92Z"/><path class="cls-2" d="M149.81,51.86c1.31.37,2.46.69,3.62,1,1.31.35,2.62.71,3.93,1s2.49.56,3.73.84c1.5.34,3,.69,4.52,1,.71.16,1.42.31,2.14.43,1.72.29,3.44.54,5.15.83,2.7.45,5.4,1,8.11,1.38,1.39.21,2.81.29,4.21.44,2.19.23,4.38.55,6.58.7q5,.34,10.08.48c4.59.14,9.19.24,13.79.25,2.43,0,4.86-.18,7.29-.36,2.72-.2,5.44-.44,8.15-.75s5.34-.7,8-1.11c2-.31,4-.66,5.91-1.12,2.82-.65,5.62-1.41,8.42-2.14.87-.23,1.73-.5,2.59-.75a1.86,1.86,0,0,1,2.07.79,2.38,2.38,0,0,1,.47,2A3.5,3.5,0,0,1,256.72,58c-2,.78-4.09,1.51-6.17,2.16-1.58.49-3.21.82-4.81,1.23-1.28.34-2.55.72-3.85,1s-2.79.56-4.19.84l-5,1c-.81.16-1.62.31-2.43.42-1.28.17-2.56.28-3.84.44-2.65.33-5.29.71-7.94,1-1.38.14-2.78.13-4.17.14-3.26,0-6.52.06-9.78-.08a74,74,0,0,1-7.42-.77,39.11,39.11,0,0,1-5.25-1.08A35.87,35.87,0,0,1,183.69,61a5.88,5.88,0,0,0-2.65-.36c-1.88-.05-2.56.69-2.64,2.59-.05,1.1-.21,2.2-.36,3.29-.09.61-.53.82-1.12.82-1.42,0-2.85,0-4.27,0h-20c-1.26,0-1.67-.47-1.78-1.74-.2-2.13-.51-4.26-.71-6.4-.17-1.9-.27-3.8-.38-5.71C149.78,53,149.81,52.48,149.81,51.86Z"/><path class="cls-2" d="M3.77,52.85a7.87,7.87,0,0,1,1.56-5,4.66,4.66,0,0,1,4.08-1.39c1.17.22,2.37.28,3.55.45,2.42.34,4.83.75,7.26,1a18.36,18.36,0,0,0,3.06.05,56.2,56.2,0,0,0,6.63-.42,26.69,26.69,0,0,0,10.68-4.2c.87-.6,1.73-1.22,2.57-1.86a2.87,2.87,0,0,0,1.19-2.11,2.58,2.58,0,0,1,1.12-1.62c3.59-2.35,7.24-4.63,10.88-6.9,2.18-1.36,4.38-2.69,6.58-4a9.29,9.29,0,0,1,1.25-.55c1.29-.5,1.57-1.73,2-2.83.72-1.9,1.41-3.8,2.1-5.71s1.34-3.72,2-5.57,1.31-3.65,2-5.48C72.83,5.2,73.44,3.64,74,2.06c.23-.64.6-1,1.26-.88,1,.23,1.88.58,2.82.9,1.69.58,3.37,1.2,5.07,1.74s3.36,1,5.06,1.43a11.17,11.17,0,0,0,2.06.39A52.32,52.32,0,0,0,97.53,6a22.19,22.19,0,0,0,9.16-3c.46-.26,1-.47,1.38-.76.7-.49,1.07,0,1.21.5a10.65,10.65,0,0,1,.35,2.45c.06,1.73,0,3.47.06,5.2.11,4,.29,8,.36,12q.21,11.07.31,22.16c0,1.87-.17,3.74-.33,5.61a1.06,1.06,0,0,1-.67.7c-1.12.34-2.27.59-3.4.88s-2.29.59-3.43.87l-4,1c-1.48.35-2.95.69-4.43,1-.72.16-1.43.32-2.15.44-1.68.28-3.37.54-5,.81-2.44.38-4.88.77-7.33,1.12-1.94.28-3.88.53-5.83.73-2.62.28-5.25.54-7.89.75-2,.16-4,.31-6,.36-5,.14-10.07.3-15.1.31-2.93,0-5.86-.23-8.78-.43q-3.59-.24-7.14-.68c-2.15-.27-4.29-.67-6.44-1-1.08-.17-2.19-.26-3.27-.46-1.6-.29-3.2-.65-4.8-1-1.28-.27-2.56-.52-3.82-.84-1.69-.43-3.36-.92-5-1.39Z"/><path class="cls-2" d="M109.88,51.94c0,1.45,0,2.93,0,4.4,0,.42-.14.83-.19,1.26-.24,2.38-.47,4.76-.73,7.15a6.65,6.65,0,0,1-.41,2,1.36,1.36,0,0,1-1.06.6c-8.18,0-16.35,0-24.52,0-.71,0-1.15-.24-1.2-1-.09-1.22-.24-2.44-.35-3.66a2.28,2.28,0,0,0-2.12-2c-2.19-.35-3.86.81-5.68,1.64A36.33,36.33,0,0,1,68.74,64c-2,.56-4,1-6,1.41a20.21,20.21,0,0,1-3,.4c-2.93.18-5.85.36-8.78.43-2.73.06-5.47.06-8.19-.06-2-.09-3.91-.41-5.86-.63-1-.12-2.07-.27-3.1-.39-1.31-.16-2.63-.24-3.93-.46-1.7-.28-3.39-.66-5.09-1-.74-.14-1.5-.26-2.24-.42q-3.33-.72-6.64-1.47c-1.68-.38-3.38-.68-5-1.19-2.93-.93-5.84-1.94-8.72-3-1.27-.47-1.39-1.9-.35-2.9a2,2,0,0,1,2.43-.5,39.67,39.67,0,0,0,4.61,1.26c1.29.33,2.56.69,3.85,1,.71.18,1.43.32,2.15.44,2.43.4,4.87.8,7.31,1.17,1.75.27,3.5.54,5.26.73,2.77.3,5.55.58,8.34.8,2.29.18,4.6.31,6.9.37,4.35.13,8.7.25,13,.25,2.8,0,5.61-.18,8.4-.37s5.58-.42,8.36-.74c2.43-.27,4.84-.69,7.27-1,2-.28,4.06-.49,6.08-.82,1.65-.26,3.27-.68,4.91-1s3.06-.52,4.58-.84,2.83-.67,4.24-1c1.24-.28,2.48-.53,3.71-.84,1.73-.44,3.44-.92,5.16-1.37C108.92,52.13,109.42,52,109.88,51.94Z"/></g></g></svg>