<svg xmlns="http://www.w3.org/2000/svg" viewBox="0 0 413.97 73.14"><defs><style>.cls-1{fill:none;stroke:#000;stroke-miterlimit:10;stroke-width:2px;}</style></defs><title>shoe 1</title><g id="Layer_2" data-name="Layer 2"><g id="Layer_1-2" data-name="Layer 1"><path class="cls-1" d="M6.45,47.77s-.66-10.54,7.24-12.51S49.91,47.11,74.28,26l.66-3.95S107.87.36,109.84,1s7.9,16.47,32.27,16.47S175.7,5.62,175.7,5.62s14.49,33.59,8.56,66.52H137.5l-1-11.53-6.91.33s-9.55,8.89-44.45,9.55C54.2,71.08,5.79,59,1.18,53.7l2.31-4.94Z"/><path class="cls-1" d="M6.12,47.44S79,74.11,185.9,44.15"/><path class="cls-1" d="M407.52,47.77s.66-10.54-7.24-12.51S364.06,47.11,339.69,26L339,22.09S306.11.36,304.13,1s-7.9,16.47-32.27,16.47S238.28,5.62,238.28,5.62s-14.49,33.59-8.56,66.52h46.75l1-11.53,6.91.33s9.55,8.89,44.46,9.55c30.94.59,79.35-11.52,84-16.79l-2.3-4.94Z"/><path class="cls-1" d="M407.85,47.44S335,74.11,228.07,44.15"/></g></g></svg>