<svg xmlns="http://www.w3.org/2000/svg" viewBox="0 0 436.52 115.21"><defs><style>.cls-1{fill:none;stroke:#000;stroke-miterlimit:10;stroke-width:2px;}</style></defs><title>shoe 4</title><g id="Layer_2" data-name="Layer 2"><g id="Layer_1-2" data-name="Layer 1"><path class="cls-1" d="M184.86,5.33c.89,18,3.39,77.64-1.1,106.54a2.76,2.76,0,0,1-2.72,2.34H139.13a2.74,2.74,0,0,1-2.73-2.51l-.55-6.38a2.75,2.75,0,0,0-2.87-2.51l-3.4.16a2.82,2.82,0,0,0-1.5.54c-2.62,1.88-13.91,8.49-43.82,9-28.24.54-71-9.5-81.79-15.26a2.76,2.76,0,0,1-1.21-3.6l.84-1.8a2.75,2.75,0,0,1,1.62-1.44h0a2.72,2.72,0,0,0,1.87-2.39c.2-3.09,1.35-9.27,7.22-10.74,7.81-2,35.61,11.56,59.79-8.55a2.79,2.79,0,0,0,1-1.68l.29-1.76a2.76,2.76,0,0,1,1.2-1.84c5-3.3,27.62-18,32.89-20.17a2.68,2.68,0,0,0,1.5-1.59L123.71,2.8a2.75,2.75,0,0,1,3.64-1.59c6,2.49,21.19,8.23,32.91,8.23A36.92,36.92,0,0,0,180.59,3.2,2.74,2.74,0,0,1,184.86,5.33Z"/><path class="cls-1" d="M5.23,89.51S78.11,116.19,185,86.22"/><path class="cls-1" d="M251.66,5.33c-.89,18-3.39,77.64,1.1,106.54a2.75,2.75,0,0,0,2.72,2.34h41.9a2.74,2.74,0,0,0,2.74-2.51l.55-6.38a2.74,2.74,0,0,1,2.87-2.51l3.4.16a2.82,2.82,0,0,1,1.5.54c2.61,1.88,13.9,8.49,43.82,9,28.23.54,71-9.5,81.78-15.26a2.76,2.76,0,0,0,1.22-3.6l-.84-1.8a2.77,2.77,0,0,0-1.62-1.44h0a2.72,2.72,0,0,1-1.87-2.39c-.2-3.09-1.35-9.27-7.22-10.74-7.81-2-35.61,11.56-59.79-8.55a2.79,2.79,0,0,1-1-1.68l-.3-1.76a2.71,2.71,0,0,0-1.19-1.84c-5-3.3-27.62-18-32.89-20.17a2.69,2.69,0,0,1-1.51-1.59L312.8,2.8a2.74,2.74,0,0,0-3.63-1.59c-6,2.49-21.19,8.23-32.91,8.23A36.92,36.92,0,0,1,255.93,3.2,2.74,2.74,0,0,0,251.66,5.33Z"/><path class="cls-1" d="M431.29,89.51s-72.88,26.68-179.79-3.29"/></g></g></svg>