<svg xmlns="http://www.w3.org/2000/svg" viewBox="0 0 309.15 61.2"><defs><style>.cls-1{fill:none;stroke:#000;stroke-miterlimit:10;stroke-width:2px;}</style></defs><title>shoe 2</title><g id="Layer_2" data-name="Layer 2"><g id="Layer_1-2" data-name="Layer 1"><path class="cls-1" d="M1.47,49.32s81.7,26.28,144.22-2.85c0,0-1.51-31.71-8.43-44.45a1.94,1.94,0,0,0-3.36-.1c-3.31,5.44-12.18,17.2-26.93,17.2-13.91,0-20-9.72-22.26-15.06a2.81,2.81,0,0,0-4.23-1.2C69.22,10.93,28.8,36.63,14.26,37.24-2.79,38,1.47,49.32,1.47,49.32Z"/><path class="cls-1" d="M6.75,38.62c.41,0,83.34,26.24,138.14-2.49"/><path class="cls-1" d="M307.67,49.32S226,75.6,163.45,46.47c0,0,1.51-31.71,8.43-44.45a1.94,1.94,0,0,1,3.36-.1c3.31,5.44,12.18,17.2,26.93,17.2,13.92,0,20-9.72,22.26-15.06a2.82,2.82,0,0,1,4.24-1.2c11.26,8.07,51.67,33.77,66.22,34.38C311.94,38,307.67,49.32,307.67,49.32Z"/><path class="cls-1" d="M302.4,38.62c-.41,0-83.34,26.24-138.14-2.49"/></g></g></svg>