<svg xmlns="http://www.w3.org/2000/svg" viewBox="0 0 225.47 44.75"><defs><style>.cls-1,.cls-2{fill-rule:evenodd;}.cls-2{fill:#fff;}</style></defs><title>shoe2</title><g id="Layer_2" data-name="Layer 2"><g id="圖層_1" data-name="圖層 1"><path class="cls-1" d="M107.17,34.35c-2.36,1-4.45,2-6.59,2.78-2,.75-4,1.39-6,2s-3.86,1.19-5.82,1.7c-1.58.42-3.2.71-4.8,1-2.31.45-4.61.89-6.93,1.29a37,37,0,0,1-3.79.49c-3,.23-6.09.47-9.14.59-4.22.16-8.45.32-12.67.31-3.25,0-6.49-.22-9.73-.46-3-.21-6-.53-9-.9-3.16-.39-6.31-.87-9.45-1.39-2.35-.38-4.69-.83-7-1.33s-4.61-1.12-6.91-1.68c-2.05-.5-4.09-1.05-6.16-1.47C.5,36.81-.66,34.45.37,31.9c1.31-3.24,3.84-4.6,7.07-5a47.16,47.16,0,0,0,6.53-1,57.74,57.74,0,0,0,8.41-3.2c4.15-2,8.24-4.08,12.26-6.3,3.75-2.08,7.42-4.31,11-6.59C50,7.07,54.2,4.23,58.45,1.47c1.77-1.15,3.48-.31,4.5,2a16.48,16.48,0,0,0,9,8.78,16.4,16.4,0,0,0,8.52.94A20.58,20.58,0,0,0,90.75,8.53a28.71,28.71,0,0,0,6.07-7c1-1.63,3-2.08,3.81-.83a15.73,15.73,0,0,1,1.43,3.05c.63,1.72,1.23,3.45,1.71,5.21s.73,3.27,1,4.92c.46,2.58.92,5.15,1.26,7.74.28,2.17.39,4.36.58,6.53ZM8.75,27.82l-.14.29c.24.19.46.48.73.56.82.22,1.66.34,2.49.54,3,.72,6,1.5,9,2.16,2.36.53,4.74,1,7.13,1.36,3,.5,6.05,1,9.09,1.36s5.82.65,8.74.92a57.06,57.06,0,0,0,5.84.38c6.77-.07,13.53-.24,20.3-.38a3.73,3.73,0,0,0,.56-.07L81,33.71c1.11-.17,2.23-.28,3.31-.55,2.15-.52,4.28-1.12,6.4-1.71,1.74-.48,3.5-.89,5.19-1.51,2.56-1,5.06-2.07,7.58-3.14,1-.41,1.77-.85,1.4-2.24a36.34,36.34,0,0,1-.49-3.79c-.44-2.77-.79-5.55-1.4-8.28S101.52,6.8,100.66,4a15.74,15.74,0,0,0-1.43-2.68l-.45,0c-.24.33-.51.65-.73,1a28.44,28.44,0,0,1-7.36,8.09,19.94,19.94,0,0,1-11.84,4.2,20,20,0,0,1-4.57-.43,22.49,22.49,0,0,1-4.93-1.71,16.71,16.71,0,0,1-7.47-8c-1.26-2.56-1.4-2.56-3.71-1.14l-.09.06c-3.95,2.57-7.83,5.25-11.85,7.69-5.15,3.12-10.32,6.21-15.64,9-4.33,2.3-8.83,4.32-13.36,6.2a17.08,17.08,0,0,1-7.15,1.54C9.64,27.81,9.19,27.82,8.75,27.82Zm96.45-.27c-1.8.75-3.49,1.5-5.21,2.17-2.3.9-4.61,1.82-7,2.58-1.94.61-3.94,1-5.93,1.47-2.6.6-5.2,1.23-7.83,1.69-2.44.42-4.91.71-7.38.92-2.89.24-5.79.45-8.69.45-4.07,0-8.15-.18-12.23-.29-1.81,0-3.64,0-5.45-.19-3.39-.34-6.77-.82-10.16-1.25-2.53-.32-5.06-.63-7.58-1-1-.13-2-.31-3-.52-1.85-.4-3.7-.85-5.55-1.24s-3.45-.59-5.15-1c-2.56-.65-5.09-1.48-7.66-2.11a3.59,3.59,0,0,0-2.27.2,4.7,4.7,0,0,0-2.6,5,1.42,1.42,0,0,0,.68,1,45.92,45.92,0,0,0,4.42,1.35c2.23.55,4.49,1,6.73,1.48,2.54.56,5.06,1.21,7.61,1.68,2.32.43,4.67.69,7,1,1.22.17,2.45.36,3.67.51,3.46.42,6.93.87,10.39,1.24a48.53,48.53,0,0,0,5.64.36c5.67,0,11.33-.1,17-.31,3.45-.14,6.89-.57,10.33-.9,1.53-.14,3.07-.26,4.58-.55,2.55-.5,5.07-1.11,7.59-1.7a61,61,0,0,0,6-1.5c4-1.38,7.87-2.94,11.79-4.46a1.18,1.18,0,0,0,.65-.81C105.56,31.1,105.36,29.32,105.2,27.55Z"/><path class="cls-1" d="M170.1,44.6c-1.86,0-3.72.09-5.57,0-3-.19-6.07-.51-9.11-.78-2-.18-4.06-.29-6.06-.58-2.21-.32-4.4-.8-6.6-1.23-1.68-.32-3.37-.61-5-1-2-.5-3.9-1.08-5.83-1.67s-4.08-1.23-6.07-2c-2.25-.84-4.47-1.81-6.68-2.77-.2-.09-.35-.57-.33-.85.11-2,.25-4.05.43-6.08.14-1.72.29-3.44.53-5.15.42-3,.82-6,1.38-9,.52-2.72,1.16-5.43,1.91-8.1a24,24,0,0,1,1.82-4.31A2.1,2.1,0,0,1,128.52,1a29.53,29.53,0,0,0,8.24,8.82,15.66,15.66,0,0,0,7.29,3,26.23,26.23,0,0,0,5.71.33c4.58-.6,8.49-2.58,11.12-6.57.81-1.24,1.55-2.54,2.26-3.85a2.84,2.84,0,0,1,4.35-1.19c5.57,3.58,11,7.3,16.69,10.75C188.69,15,193.34,17.58,198,20a112.51,112.51,0,0,0,10.78,4.92,21.45,21.45,0,0,0,7.37,1.58,11.53,11.53,0,0,1,7.14,2.31,5.16,5.16,0,0,1,2.07,3.61c0,.41.07.83.07,1.24,0,2.73-.26,3-2.85,3.66-2.26.54-4.49,1.21-6.75,1.75-1.66.4-3.35.66-5,1-1.85.39-3.69.84-5.54,1.23-1,.21-2.06.39-3.09.53-1.49.21-3,.33-4.47.54-2.85.4-5.7.84-8.55,1.26l-.22,0-10.73.6-8.12.47ZM126.62,1a8.76,8.76,0,0,0-.78,1.26c-.66,1.74-1.36,3.49-1.91,5.27-.44,1.41-.71,2.87-1,4.31-.43,2-.89,4.07-1.25,6.13-.34,1.91-.62,3.84-.82,5.78-.09.89-.6,2,.55,2.6a46.82,46.82,0,0,0,5.4,2.34c3.36,1.17,6.75,2.29,10.18,3.23,3.18.87,6.41,1.56,9.66,2.16,2.39.45,4.83.71,7.25.92,2.93.25,5.87.48,8.81.47,4.68,0,9.36-.2,14-.38,2.71-.11,5.42-.34,8.13-.52l.34,0,8.44-1.25c2.25-.34,4.51-.65,6.76-1,.89-.13,1.77-.28,2.64-.48,2.42-.56,4.83-1.15,7.25-1.71,2.12-.49,4.26-.94,6.38-1.45.25-.06.44-.37.69-.6a42.78,42.78,0,0,1-5.82-.8,54.54,54.54,0,0,1-7.2-2.66c-3.06-1.36-6.07-2.84-9-4.4-3.41-1.79-6.79-3.64-10.1-5.61-4.17-2.48-8.26-5.1-12.36-7.69-2.15-1.35-4.23-2.82-6.38-4.16-1-.64-1.53-.34-2.08.69a32.78,32.78,0,0,1-2.66,4.42,16.59,16.59,0,0,1-10.46,6.44A19.76,19.76,0,0,1,141,13.52a23.26,23.26,0,0,1-10.68-7.74C129.14,4.35,128.05,2.87,126.62,1ZM224.17,35.3c0-.86-.07-1.8-.17-2.73a4,4,0,0,0-4.49-3.38c-.72.13-1.42.37-2.14.56-1.53.41-3.06.85-4.6,1.22s-3.19.7-4.79,1.05c-1.77.4-3.53.87-5.32,1.2-2.12.39-4.28.66-6.42,1-2.5.41-5,.92-7.52,1.26-2.94.38-5.89.69-8.85.91-3.15.23-6.32.44-9.48.44-3.93,0-7.85-.14-11.78-.31-2.9-.12-5.8-.27-8.68-.6-2.37-.27-4.7-.82-7.05-1.25-1.86-.34-3.76-.58-5.59-1.05-2.34-.62-4.66-1.35-6.94-2.18-2.91-1.06-5.78-2.24-8.64-3.43-1-.4-1.34-.28-1.39.74-.07,1.4-.11,2.8-.08,4.2a1,1,0,0,0,.55.75c1.56.69,3.13,1.37,4.74,1.95,2.92,1.05,5.85,2.11,8.82,3,2,.62,4.16,1,6.26,1.45,2.88.61,5.76,1.24,8.66,1.72,2.48.4,5,.68,7.48.88,3.12.24,6.25.48,9.37.48,4.49,0,9-.16,13.47-.39,3.64-.18,7.29-.51,10.91-.9,3.42-.36,6.83-.88,10.24-1.36,2.1-.3,4.21-.64,6.31-1,.88-.15,1.75-.34,2.62-.53L215,37.8c1.48-.34,3-.64,4.43-1S222.35,35.87,224.17,35.3Z"/><path class="cls-2" d="M8.75,27.82c.44,0,.89,0,1.33,0a17.08,17.08,0,0,0,7.15-1.54c4.53-1.88,9-3.9,13.36-6.2,5.32-2.82,10.49-5.91,15.64-9,4-2.44,7.9-5.12,11.85-7.69l.09-.06c2.31-1.42,2.45-1.42,3.71,1.14a16.71,16.71,0,0,0,7.47,8,22.49,22.49,0,0,0,4.93,1.71,20,20,0,0,0,4.57.43,19.94,19.94,0,0,0,11.84-4.2,28.44,28.44,0,0,0,7.36-8.09c.22-.35.49-.67.73-1l.45,0A15.74,15.74,0,0,1,100.66,4c.86,2.81,1.69,5.63,2.32,8.5s1,5.51,1.4,8.28a36.34,36.34,0,0,0,.49,3.79c.37,1.39-.43,1.83-1.4,2.24-2.52,1.07-5,2.18-7.58,3.14-1.69.62-3.45,1-5.19,1.51-2.12.59-4.25,1.19-6.4,1.71-1.08.27-2.2.38-3.31.55l-8.55,1.23a3.73,3.73,0,0,1-.56.07c-6.77.14-13.53.31-20.3.38A57.06,57.06,0,0,1,45.74,35c-2.92-.27-5.83-.55-8.74-.92s-6.07-.86-9.09-1.36c-2.39-.39-4.77-.83-7.13-1.36-3-.66-6-1.44-9-2.16-.83-.2-1.67-.32-2.49-.54-.27-.08-.49-.37-.73-.56Z"/><path class="cls-2" d="M105.2,27.55c.16,1.77.36,3.55.47,5.34a1.18,1.18,0,0,1-.65.81c-3.92,1.52-7.82,3.08-11.79,4.46a61,61,0,0,1-6,1.5c-2.52.59-5,1.2-7.59,1.7-1.51.29-3,.41-4.58.55-3.44.33-6.88.76-10.33.9-5.66.21-11.32.27-17,.31a48.53,48.53,0,0,1-5.64-.36c-3.46-.37-6.93-.82-10.39-1.24-1.22-.15-2.45-.34-3.67-.51-2.33-.32-4.68-.58-7-1-2.55-.47-5.07-1.12-7.61-1.68-2.24-.5-4.5-.93-6.73-1.48a45.92,45.92,0,0,1-4.42-1.35,1.42,1.42,0,0,1-.68-1,4.7,4.7,0,0,1,2.6-5,3.59,3.59,0,0,1,2.27-.2c2.57.63,5.1,1.46,7.66,2.11,1.7.43,3.44.66,5.15,1s3.7.84,5.55,1.24c1,.21,2,.39,3,.52,2.52.35,5,.66,7.58,1,3.39.43,6.77.91,10.16,1.25,1.81.19,3.64.14,5.45.19,4.08.11,8.16.3,12.23.29,2.9,0,5.8-.21,8.69-.45,2.47-.21,4.94-.5,7.38-.92,2.63-.46,5.23-1.09,7.83-1.69,2-.45,4-.86,5.93-1.47,2.35-.76,4.66-1.68,7-2.58C101.71,29.05,103.4,28.3,105.2,27.55Z"/><path class="cls-2" d="M126.62,1c1.43,1.88,2.52,3.36,3.65,4.79A23.26,23.26,0,0,0,141,13.52a19.76,19.76,0,0,0,10.31.75,16.59,16.59,0,0,0,10.46-6.44,32.78,32.78,0,0,0,2.66-4.42c.55-1,1.06-1.33,2.08-.69,2.15,1.34,4.23,2.81,6.38,4.16,4.1,2.59,8.19,5.21,12.36,7.69,3.31,2,6.69,3.82,10.1,5.61,3,1.56,6,3,9,4.4a54.54,54.54,0,0,0,7.2,2.66,42.78,42.78,0,0,0,5.82.8c-.25.23-.44.54-.69.6-2.12.51-4.26,1-6.38,1.45-2.42.56-4.83,1.15-7.25,1.71-.87.2-1.75.35-2.64.48-2.25.34-4.51.65-6.76,1l-8.44,1.25-.34,0c-2.71.18-5.42.41-8.13.52-4.68.18-9.36.37-14,.38-2.94,0-5.88-.22-8.81-.47-2.42-.21-4.86-.47-7.25-.92-3.25-.6-6.48-1.29-9.66-2.16-3.43-.94-6.82-2.06-10.18-3.23a46.82,46.82,0,0,1-5.4-2.34c-1.15-.56-.64-1.71-.55-2.6.2-1.94.48-3.87.82-5.78.36-2.06.82-4.09,1.25-6.13.31-1.44.58-2.9,1-4.31.55-1.78,1.25-3.53,1.91-5.27A8.76,8.76,0,0,1,126.62,1Z"/><path class="cls-2" d="M224.17,35.3c-1.82.57-3.28,1.06-4.77,1.46s-3,.7-4.43,1L209.67,39c-.87.19-1.74.38-2.62.53-2.1.34-4.21.68-6.31,1-3.41.48-6.82,1-10.24,1.36-3.62.39-7.27.72-10.91.9-4.48.23-9,.38-13.47.39-3.12,0-6.25-.24-9.37-.48-2.5-.2-5-.48-7.48-.88-2.9-.48-5.78-1.11-8.66-1.72-2.1-.44-4.22-.83-6.26-1.45-3-.91-5.9-2-8.82-3-1.61-.58-3.18-1.26-4.74-1.95a1,1,0,0,1-.55-.75c0-1.4,0-2.8.08-4.2.05-1,.43-1.14,1.39-.74,2.86,1.19,5.73,2.37,8.64,3.43,2.28.83,4.6,1.56,6.94,2.18,1.83.47,3.73.71,5.59,1.05,2.35.43,4.68,1,7.05,1.25,2.88.33,5.78.48,8.68.6,3.93.17,7.85.33,11.78.31,3.16,0,6.33-.21,9.48-.44,3-.22,5.91-.53,8.85-.91,2.52-.34,5-.85,7.52-1.26,2.14-.34,4.3-.61,6.42-1,1.79-.33,3.55-.8,5.32-1.2,1.6-.35,3.2-.67,4.79-1.05s3.07-.81,4.6-1.22c.72-.19,1.42-.43,2.14-.56A4,4,0,0,1,224,32.57C224.1,33.5,224.12,34.44,224.17,35.3Z"/></g></g></svg>