<svg xmlns="http://www.w3.org/2000/svg" viewBox="0 0 446.41 309.38"><defs><style>.cls-1{fill:none;stroke:#000;stroke-miterlimit:10;stroke-width:2px;}</style></defs><title>top 1</title><g id="Layer_2" data-name="Layer 2"><g id="Layer_1-2" data-name="Layer 1"><path class="cls-1" d="M214.56,115.62s-27.84,41.85-20.36,79.26c0,0,35.55-28.06,31.81-78.58"/><path class="cls-1" d="M233.72,115.62s27.84,41.85,20.35,79.26c0,0-35.54-28.06-31.8-78.58"/><path class="cls-1" d="M221.38,308.08c34.61,1.72,104.4-6.41,113-7.37a1.18,1.18,0,0,0,1.05-1.2c-1.44-64.25-.5-147.92,2.78-164.43a1.19,1.19,0,0,1,2.31-.09l13.38,46.82a1.21,1.21,0,0,0,1.21.88c47.53-2.12,84.08-34.83,89.91-40.34a1.2,1.2,0,0,0,.09-1.64L352.5,31.41a1.21,1.21,0,0,0-.49-.34L274.68,1.61a1.18,1.18,0,0,0-1.46.53l-49,87.06a1.19,1.19,0,0,1-2.07,0l-49-87.06a1.18,1.18,0,0,0-1.46-.53L94.39,31.07a1.24,1.24,0,0,0-.48.34L1.28,140.71a1.19,1.19,0,0,0,.1,1.64c5.83,5.51,42.38,38.22,89.91,40.34a1.22,1.22,0,0,0,1.21-.88L105.87,135a1.19,1.19,0,0,1,2.32.09c3.27,16.51,2.35,102,.91,166.3a1.17,1.17,0,0,0,1.05,1.2c8.61,1,76.52,7.22,111.13,5.5Z"/><path class="cls-1" d="M172.69,1.24,94.11,31.18S184.17,88,218.66,83Z"/><path class="cls-1" d="M105.64,26.78s85.27,50,107.5,46.37"/><path class="cls-1" d="M274,1.24l78.58,29.94S262.49,88,228,83Z"/><path class="cls-1" d="M341,26.78s-85.27,50-107.5,46.37"/><polyline class="cls-1" points="183.29 19.33 222.27 33.98 263.55 19.33"/><polyline class="cls-1" points="201.09 51.74 222.27 62.05 243.86 54.33"/><polyline class="cls-1" points="206.89 62.05 222.27 69.53 238.9 63.14"/><path class="cls-1" d="M15.74,123.65s36.77,41.44,82.36,38.56"/><path class="cls-1" d="M348.35,162.36s68.08-22,82.32-38.71"/><path class="cls-1" d="M224.14,116.3h7.63a3.21,3.21,0,0,0,2.68-1.43l10.68-16a3.23,3.23,0,0,0-2.68-5H205.83a3.23,3.23,0,0,0-2.68,5l10.68,16a3.21,3.21,0,0,0,2.68,1.43Z"/><path class="cls-1" d="M178.82,74.86c3.32,24,33.48,37.72,33.48,37.72"/><line class="cls-1" x1="203.56" y1="93.85" x2="196.07" y2="80.76"/><path class="cls-1" d="M236,112.58s30.16-13.68,33.48-37.72"/><line class="cls-1" x1="244.72" y1="93.85" x2="252.2" y2="80.76"/></g></g></svg>