<svg xmlns="http://www.w3.org/2000/svg" viewBox="0 0 429.41 460.28"><defs><style>.cls-1{fill:none;stroke:#000;stroke-miterlimit:10;stroke-width:3px;}</style></defs><title>Asset 7</title><g id="Layer_2" data-name="Layer 2"><g id="Layer_1-2" data-name="Layer 1"><polygon class="cls-1" points="216.71 56.44 219.41 138.84 234.25 137.76 234.25 54.81 216.71 56.44"/><path class="cls-1" d="M184.7,29l25.62,23.72a97.2,97.2,0,0,0-41.66,19.71,95.73,95.73,0,0,0-19.67,22l.56-66C155.54,23.05,181.61,1,221,1.51c43.59.52,70.67,28.16,75.45,33.22L286.9,93.84a101.21,101.21,0,0,0-52.65-39l22-25.88A86.39,86.39,0,0,0,184.7,29Z"/><path class="cls-1" d="M296.47,43.25,352,63.93q-2.19,60.36-4.37,120.72-.65,30.21-1.05,60.7-1.39,104.91,0,206.62a1252.3,1252.3,0,0,1-137,6.79c-44.81-.24-86.33-2.87-124-6.83q1.69-104-.2-214.08-1.6-88.15-5.55-172.33l69.6-26.27"/><path class="cls-1" d="M86.33,313.75C65,297.85,18.39,267.81,1.64,246.41,14,200.28,47.05,86.71,79.86,65.89"/><path class="cls-1" d="M343.08,313.75c21.37-15.9,67.94-45.94,84.69-67.34-12.39-46.13-45.41-159.7-78.22-180.52"/></g></g></svg>