<svg xmlns="http://www.w3.org/2000/svg" viewBox="0 0 391.29 339.32"><defs><style>.cls-1{fill:none;stroke:#000;stroke-miterlimit:10;stroke-width:2px;}</style></defs><title>top 3</title><g id="Layer_2" data-name="Layer 2"><g id="Layer_1-2" data-name="Layer 1"><path class="cls-1" d="M195.64,313.63s7.49,13.1,11.23,18.71,91.68,3.74,91.68,3.74c-6.44-12.87-8.72-146.13-9.24-183.19a1.62,1.62,0,0,1,3.14-.56C319.38,228.91,334.09,338,334.09,338l56.13-20.58c-4.67-52.39-56.55-235-71.64-282a20,20,0,0,0-13.06-12.95l-50-15.63L243.6,2a2.85,2.85,0,0,0-4.54,1.09L197.51,169.57,159.5,2.89a2.85,2.85,0,0,0-4.35-1.35L135.77,6.79l-50,15.63A19.93,19.93,0,0,0,72.71,35.37c-15.09,47-67,229.61-71.65,282L57.19,338s14.71-109,41.64-185.62a1.62,1.62,0,0,1,3.15.56c-.52,37.06-2.8,170.32-9.24,183.19,0,0,87.94,1.87,91.68-3.74S195.64,313.63,195.64,313.63Z"/><polyline class="cls-1" points="136.71 6.79 129.22 38.6 153.55 38.6 144.19 59.18 198.45 169.57 196.58 313.63"/><polyline class="cls-1" points="256.45 6.79 263.93 38.6 239.61 38.6 248.97 59.18 198.45 169.57 196.58 313.63"/><polyline class="cls-1" points="162.31 12.58 196.58 31.12 236.06 12.58"/><polyline class="cls-1" points="174.35 54.12 196.58 31.12 222.88 54.12"/><polyline class="cls-1" points="183.21 44.95 190.97 61.05 205.93 61.05 212.4 44.95"/><line class="cls-1" x1="190.97" y1="61.05" x2="185.35" y2="113.44"/><line class="cls-1" x1="205.93" y1="61.05" x2="211.55" y2="113.44"/><circle class="cls-1" cx="188.16" cy="206.05" r="4.68"/><circle class="cls-1" cx="188.16" cy="237.86" r="4.68"/><circle class="cls-1" cx="188.16" cy="269.66" r="4.68"/></g></g></svg>