<svg xmlns="http://www.w3.org/2000/svg" viewBox="0 0 308.86 364.87"><defs><style>.cls-1{fill:none;stroke:#000;stroke-miterlimit:10;stroke-width:2px;}</style></defs><title>top 2</title><g id="Layer_2" data-name="Layer 2"><g id="Layer_1-2" data-name="Layer 1"><circle class="cls-1" cx="139.4" cy="187.56" r="4.68"/><circle class="cls-1" cx="139.4" cy="219.37" r="4.68"/><circle class="cls-1" cx="139.4" cy="251.18" r="4.68"/><path class="cls-1" d="M61.51,99.36,60,156.77C49.43,194.54,49.43,313.9,49.43,313.9l-7.56,22.66-4.53,27.19L1.08,359.22l3-34.75C1.08,306.34,40.36,45,54,26.83S99.29,2.66,99.29,2.66l55.14,105"/><path class="cls-1" d="M247.35,99.36l1.51,57.41c10.58,37.77,10.58,157.13,10.58,157.13L267,336.56l4.53,27.19,36.26-4.53-3-34.75c3-18.13-36.26-279.51-49.86-297.64S209.58,2.66,209.58,2.66l-55.15,105V349.4"/><polyline class="cls-1" points="258.68 313.14 254.15 353.93 161.99 349.4 146.88 349.4 54.72 353.93 50.18 313.14"/><path class="cls-1" d="M151.68,1,107.77,9.11a2.51,2.51,0,0,0-.63,4.72L136.75,28a2.5,2.5,0,0,0,3.19-.91l14.3-22.25A2.51,2.51,0,0,0,151.68,1Z"/><path class="cls-1" d="M158.92,1l43.91,8.07a2.5,2.5,0,0,1,.63,4.72L173.85,28a2.5,2.5,0,0,1-3.19-.91L156.36,4.86A2.51,2.51,0,0,1,158.92,1Z"/><polyline class="cls-1" points="141.05 25.39 151.56 36.95 159.04 36.95 168.4 23.86"/><polyline class="cls-1" points="147.72 32.73 127.24 50.05 140.33 66.89 155.95 36.95"/><path class="cls-1" d="M162.88,32.73l20.48,17.32L171.73,65a1.53,1.53,0,0,1-2.57-.23L154.65,37"/><line class="cls-1" x1="146.88" y1="16.37" x2="163.76" y2="16.37"/></g></g></svg>