<svg xmlns="http://www.w3.org/2000/svg" viewBox="0 0 313 377.16"><defs><style>.cls-1{fill:none;}.cls-1,.cls-2{stroke:#000;stroke-miterlimit:10;stroke-width:2px;}.cls-2{fill:#fff;}</style></defs><title>top 4</title><g id="Layer_2" data-name="Layer 2"><g id="Layer_1-2" data-name="Layer 1"><path class="cls-1" d="M161,105s38.87-47.83,34.89-89.46c0,0,64.73,21.66,78.13,33.22s-6,138.43-14.57,146.4S257.71,338.5,254.33,355c0,0-72.73,22.18-100.34,21.15l1.85,0c-27.64,0-99.49-24.88-99.49-24.88C53.59,334.7,63.26,197.91,55,189.62s-20.73-134-6.91-145.09,74.61-33.16,74.61-33.16C117.15,52.82,161,105,161,105Z"/><path class="cls-1" d="M46.68,43.15S-8.59,236.6,2.46,336.08c0,0,32.16,8.3,53.39,0"/><path class="cls-1" d="M278.63,62.5S309.21,250.42,312,316.74c0,0-24.85,16.54-56.65,16.56"/><polygon class="cls-2" points="149.79 39.49 127.34 2.08 103.02 48.85 131.09 32.01 149.79 39.49"/><polygon class="cls-2" points="170.38 39.49 187.21 2.08 219.02 50.72 185.34 35.75 170.38 39.49"/><polyline class="cls-1" points="146.16 37.62 161.02 58.2 175.99 37.62"/><line class="cls-1" x1="161.02" y1="58.2" x2="161.02" y2="104.04"/></g></g></svg>