<svg xmlns="http://www.w3.org/2000/svg" viewBox="0 0 300.73 208.56"><defs><style>.cls-1,.cls-2{fill-rule:evenodd;}.cls-2{fill:#fff;}</style></defs><title>top1</title><g id="Layer_2" data-name="Layer 2"><g id="圖層_1" data-name="圖層 1"><path class="cls-1" d="M72,91.35c-.86,2.88-1.75,5.76-2.59,8.65-.49,1.7-.88,3.42-1.36,5.12-.63,2.19-1.33,4.35-2,6.53-.48,1.64-.92,3.29-1.37,4.94-.58,2.1-1.12,4.22-1.77,6.3a1.39,1.39,0,0,1-1,.76c-1.87,0-3.74-.17-5.61-.34-1.31-.11-2.63-.28-3.92-.51-1.92-.35-3.84-.76-5.74-1.19s-3.59-.83-5.35-1.36c-2.14-.65-4.29-1.32-6.34-2.17-3.06-1.28-6.11-2.59-9-4.14-3.81-2-7.59-4.11-11.22-6.44A88.34,88.34,0,0,1,1.54,97.41C1.13,97,.73,96.61.35,96.2c-.67-.73-.24-1.44.2-2,2.45-3,5-5.9,7.46-8.85,2.7-3.2,5.4-6.41,8.11-9.6,1.86-2.2,3.77-4.35,5.63-6.55,2.74-3.26,5.45-6.55,8.19-9.81,1.17-1.38,2.41-2.7,3.58-4.08,2.74-3.26,5.45-6.54,8.19-9.8,1.19-1.4,2.43-2.76,3.62-4.17,3-3.47,5.89-7,8.84-10.45,2.55-3,5.12-6,7.66-9a5.37,5.37,0,0,0,.58-1.22L116.67,0c.89,1.56,1.79,3.06,2.64,4.59,1.33,2.38,2.62,4.78,4,7.16.67,1.18,2,1.25,3.11,1.7,2.46,1,5,1.94,7.45,2.86,2.86,1.06,5.73,2.06,8.59,3.11A40.35,40.35,0,0,1,148,21.57c1.72.94,3.08.23,4.57-.3l5.44-1.9c2.11-.74,4.22-1.47,6.33-2.22,1.81-.65,3.61-1.32,5.42-2,2.32-.84,4.66-1.65,7-2.53a2.13,2.13,0,0,0,1-.92c1.89-3.37,3.73-6.77,5.62-10.15A2.79,2.79,0,0,1,184.33.4a2.19,2.19,0,0,1,1.46.11c2.34.89,4.65,1.87,7,2.76S197.71,5,200.15,6c2.71,1,5.39,2.17,8.1,3.22,2,.78,4.11,1.46,6.15,2.23s3.95,1.61,5.95,2.36,4.1,1.49,6.14,2.26c1.59.59,3.17,1.24,4.76,1.85l6.1,2.33,1.13.46a7.13,7.13,0,0,0,.67,1.33c3.54,4.19,7.11,8.37,10.67,12.56q4.55,5.36,9.08,10.74c2.43,2.87,4.87,5.72,7.3,8.59l9.09,10.74q4.62,5.45,9.24,10.88,3.64,4.3,7.28,8.63,4.2,5,8.41,10a2,2,0,0,1-.32,2.93c-2.14,1.73-4.22,3.54-6.43,5.19-2.86,2.14-5.73,4.31-8.77,6.19-3.55,2.21-7.22,4.26-11,6.13-3.07,1.54-6.28,2.78-9.48,4-2.36.92-4.78,1.74-7.22,2.42a63.54,63.54,0,0,1-6.55,1.39c-2.83.47-5.68.82-8.52,1.21-.52.07-1.05,0-1.57,0-2.18.08-2.49-.25-3-2.3-.41-1.85-1-3.65-1.56-5.47s-.9-3.35-1.37-5-1.08-3.56-1.59-5.36-.9-3.41-1.37-5.12-.85-3.15-1.3-4.71-.9-2.9-1.41-4.53a7.88,7.88,0,0,0-.58,1.6c-.2,1.79-.36,3.6-.47,5.41-.18,3-.31,6-.45,9.08s-.34,6-.41,9.08c-.17,8.42-.33,16.85-.42,25.28-.13,12.24-.27,24.49-.28,36.74,0,7.55.25,15.09.4,22.64,0,1.7,0,2.44-2.38,2.56-2.1.1-4.19.51-6.28.76-1.38.16-2.77.31-4.15.43-2.19.18-4.38.29-6.56.5-3.53.36-7.05.78-10.57,1.17l-.31,0c-2.75.16-5.5.31-8.25.49-2.19.14-4.38.33-6.56.48s-4.38.31-6.57.42c-3.41.16-6.83.32-10.25.42q-6.75.19-13.51.28c-.79,0-1.58-.26-2.37-.25-1.36,0-2.71.25-4.06.26-4.7,0-9.39.06-14.08,0-3.74-.06-7.47-.25-11.2-.41-2.61-.11-5.22-.27-7.83-.42-2.3-.13-4.59-.27-6.89-.42-1.95-.13-3.89-.27-5.84-.42-3.67-.28-7.35-.55-11-.85-3.09-.25-6.17-.54-9.25-.83-1.45-.13-2.91-.24-4.35-.43a1.44,1.44,0,0,1-1.39-1.6c0-2,.06-4,.08-6,0-3.09,0-6.17.06-9.25q.19-15.58.42-31.17c.11-8.28.27-16.57.35-24.85,0-4.35,0-8.69-.07-13-.1-5.24-.25-10.48-.42-15.71-.07-2.13-.19-4.25-.38-6.36-.17-1.84-.48-3.66-.73-5.49ZM63.52,21.91c-.67.82-1.32,1.64-2,2.43q-3.36,4-6.74,8c-3.56,4.18-7.15,8.34-10.71,12.53s-7,8.24-10.46,12.36c-2.38,2.81-4.78,5.62-7.16,8.44q-4.68,5.58-9.36,11.16c-1.68,2-3.37,4-5.11,6-.4.45-.41.68,0,1.08,2.76,2.55,5.36,5.29,8.28,7.65A107.72,107.72,0,0,0,30,98.37a69.68,69.68,0,0,0,17,8,60.51,60.51,0,0,0,9.1,2.07,79.67,79.67,0,0,0,8.76.46,1.25,1.25,0,0,0,.95-.7c.52-1.58.93-3.2,1.36-4.8s.87-3.43,1.35-5.13c.66-2.35,1.35-4.69,2-7,.23-.76.63-1.37,1.58-1.29.66.06,1.23.22,1.34,1,.27,2,.62,4,.79,6.09.23,2.71.38,5.43.43,8.14q.27,14,.42,27.9c0,2.58-.24,5.15-.27,7.73q-.24,20.2-.42,40.41c0,5,0,9.94-.12,14.92,0,2.08-.21,4.17-.28,6.25,0,.55.11,1.1.87,1.17,1.11.09,2.21.27,3.31.37,3.25.3,6.51.59,9.76.86,3.44.28,6.88.55,10.32.79q6.24.43,12.5.83c2.4.15,4.79.31,7.19.41,4.71.19,9.42.42,14.13.48,6.54.08,13.09.07,19.64,0,5.17,0,10.34-.21,15.51-.36,2.82-.09,5.64-.26,8.46-.41q3.44-.19,6.87-.43c1.81-.12,3.61-.28,5.42-.4,2.43-.17,4.87-.27,7.3-.47,2.73-.23,5.46-.57,8.19-.82,2.22-.2,4.44-.33,6.66-.52,1.31-.11,2.63-.25,3.93-.41,3.1-.38,6.18-.83,9.28-1.14,2.1-.21,2.11-.13,1.92-2.18a3,3,0,0,1,0-.42c0-7.42-.12-14.85-.12-22.27q0-20.4.08-40.78c0-4.89.2-9.78.34-14.67.12-4.47.25-8.93.42-13.4.1-2.68.22-5.36.43-8,.25-3.15.62-6.29.91-9.44,0-.63.29-1.07.94-1.12s1.37-.3,1.66.61.72,2.1,1,3.17c.49,1.65,1,3.32,1.41,5,.34,1.21.63,2.44,1,3.65.5,1.79,1.11,3.56,1.54,5.37.2.84.65.84,1.21.65,2.24-.78,4.45-1.61,6.68-2.4,2.52-.9,5.05-1.74,7.55-2.66s4.93-1.89,7.37-2.88c2.21-.9,4.42-1.83,6.61-2.79s4.5-1.93,6.68-3c4.12-2.1,8.25-4.2,12.26-6.5a47.23,47.23,0,0,0,5.44-4.1c.32-.26.76-.64.27-1.19s-.95-1.12-1.43-1.68Q284,77,280.48,72.8c-3.4-4-6.81-8-10.21-12q-4.42-5.22-8.85-10.45c-1.19-1.4-2.42-2.77-3.61-4.17l-8.15-9.7q-3-3.59-6-7.16c-1.91-2.25-3.85-4.47-5.74-6.74a.8.8,0,0,0-1.18-.22L233.8,24.1c-4.53,2.65-9,5.34-13.59,7.92s-9,5-13.56,7.38c-2.58,1.37-5.2,2.64-7.83,3.89s-5.32,2.51-8,3.69c-2.48,1.09-5,2.09-7.53,3.1A1.84,1.84,0,0,0,182,51.66a19.37,19.37,0,0,1-2.38,6.84,34.93,34.93,0,0,1-8.13,10A54.53,54.53,0,0,1,160,76.16,2.16,2.16,0,0,0,158.86,79c.73,1.17,1.48,2.34,2.09,3.56,1.63,3.24,3.33,6.46,4.75,9.8,1.5,3.5,2.83,7.09,4,10.72a68.7,68.7,0,0,1,1.79,7.82,46.52,46.52,0,0,1,1.14,7.47c.09,3.83-.2,7.67-.39,11.5a18.34,18.34,0,0,1-.6,2.81c-10.25-8.79-16.82-19.72-20.58-32.62-3.77,12.95-10.33,23.85-20.69,32.72-.34-2.61-.79-4.86-.9-7.12a49.46,49.46,0,0,1,.73-12.38c.38-1.85.5-3.77,1-5.6.69-2.66,1.53-5.28,2.42-7.88a74.45,74.45,0,0,1,3.1-8.26c2.11-4.38,4.51-8.62,6.79-12.92.1-.2.24-.55.15-.65a7.17,7.17,0,0,0-1.77-1.79,59.09,59.09,0,0,1-12.33-8.62,32.66,32.66,0,0,1-7-9,23.41,23.41,0,0,1-2.44-6.73,2,2,0,0,0-1.06-1.22c-2.36-1.05-4.79-2-7.15-3Q106,45,100.16,42.21q-4.41-2.1-8.72-4.38c-3.77-2-7.49-4.08-11.21-6.16-3.29-1.84-6.55-3.7-9.81-5.6C68.14,24.75,65.9,23.35,63.52,21.91Zm164.76-3.62L184.93,1.78l-26.4,46.93c2.66.38,5-.41,7.4-.93a47.46,47.46,0,0,0,4.75-1.49c2.15-.72,4.32-1.4,6.43-2.24,2.5-1,4.95-2.1,7.4-3.21,3.51-1.59,7-3.16,10.51-4.84,3.19-1.54,6.33-3.19,9.47-4.83,4.41-2.3,8.82-4.6,13.19-7C221.19,22.32,224.65,20.32,228.28,18.29ZM142.59,49l-3.92-7-5-8.91c-1.53-2.7-3.07-5.38-4.59-8.07s-3-5.44-4.55-8.16l-4.74-8.45c-1.11-2-2.21-3.94-3.34-5.89-.2-.36-.23-.79-1-.46-2,.85-4,1.46-6,2.21-1.64.62-3.25,1.34-4.89,2S101.33,7.41,99.73,8L94.59,9.94c-1.59.61-3.16,1.25-4.75,1.84-2,.76-4.1,1.45-6.13,2.23-2.42.92-4.83,1.89-7.24,2.84l-3.64,1.44c1,.59,1.86,1.07,2.69,1.52C82,23.33,88.4,26.92,94.92,30.33c5.34,2.79,10.78,5.39,16.2,8,2.63,1.28,5.27,2.51,7.95,3.67,2.19.94,4.44,1.76,6.66,2.61,1.64.62,3.28,1.25,5,1.79s3.58,1,5.39,1.53a23.34,23.34,0,0,0,2.62.52C139.9,48.66,141.13,48.77,142.59,49Zm93.08,61c.36,1.43.67,2.83,1.05,4.2.65,2.36,1.32,4.72,2.06,7.05.17.52.13,1.38,1.13,1.29,2.33-.2,4.66-.33,7-.53a18.68,18.68,0,0,0,2.66-.44q3.24-.75,6.47-1.6c2.06-.55,4.15-1.06,6.16-1.79a84.18,84.18,0,0,0,7.93-3.27c4-2,8.06-4,11.92-6.29a115.89,115.89,0,0,0,9.8-6.68C294.3,100,296.56,97.9,299,96c.67-.54.47-.84,0-1.36-1.38-1.6-2.68-3.25-4.05-4.85-1.52-1.77-3.08-3.51-4.51-5.13a75.3,75.3,0,0,1-7.29,5.21c-4.79,2.65-9.7,5.08-14.66,7.38-4.27,2-8.67,3.66-13,5.44-3.12,1.26-6.24,2.51-9.39,3.67C242.65,107.57,239.22,108.69,235.67,109.9ZM10.56,84.46l-.55.65c-2.65,3.1-5.27,6.23-8,9.27-.74.83-.59,1.34.14,1.92,3.38,2.67,6.67,5.49,10.18,8A125.77,125.77,0,0,0,23.11,111c3.27,1.84,6.69,3.46,10.13,5,2.65,1.17,5.43,2.08,8.19,3,1.74.57,3.55,1,5.34,1.36s3.82.85,5.73,1.21c1.2.22,2.41.36,3.61.49,1.83.19,3.66.35,5.54.54l3.48-12.14c-3.68-.37-7.24-.68-10.78-1.1a30.43,30.43,0,0,1-4.86-.92A73.13,73.13,0,0,1,42.4,106a71.65,71.65,0,0,1-8.78-4c-3.81-2.19-7.45-4.66-11.06-7.16A89.9,89.9,0,0,1,10.56,84.46ZM125,14.32l-.29.33c.16.06.39.08.46.2,1.4,2.48,2.8,5,4.18,7.47,1.74,3.15,3.41,6.33,5.22,9.43.76,1.31,1.36,2.74,3,3.48,3.83,1.75,7.58,3.68,11.38,5.52.38.19.88.47,1.21.36,2.05-.69,4.07-1.48,6.1-2.22,1.75-.64,3.52-1.21,5.26-1.88,1-.39,2.22-.45,2.83-1.56,1.88-3.38,3.74-6.78,5.64-10.15,2-3.61,4.1-7.2,6.15-10.8a23.42,23.42,0,0,0-3.32,1c-2.21.77-4.44,1.47-6.65,2.25-2.58.91-5.13,1.88-7.7,2.82-2.25.82-4.5,1.67-6.78,2.42a7.08,7.08,0,0,1-2.45.37,6.47,6.47,0,0,1-1.78-.67c-2.08-.8-4.16-1.61-6.24-2.4s-4-1.48-6-2.22l-6.23-2.35Zm45.87,115.87c.23-1.63.51-2.86.56-4.1a60.37,60.37,0,0,0,0-6.31c-.13-2.17-.47-4.33-.78-6.49-.27-1.84-.54-3.68-1-5.49s-1-3.6-1.58-5.38-1.1-3.72-1.82-5.51c-1-2.46-2-4.9-3.21-7.27-1.68-3.39-3.49-6.71-5.27-10a1,1,0,0,0-.67-.51c-2.2,0-4.4,0-6.66,0a59,59,0,0,0,1.59,19.22,61.54,61.54,0,0,0,7.05,17.37A60.65,60.65,0,0,0,170.84,130.19ZM149.18,79.07a10.24,10.24,0,0,1-1.58,0,3.53,3.53,0,0,0-4.37,2.37c-1.34,3-3.11,5.91-4.54,8.94-1.13,2.39-2,4.9-3,7.37-.55,1.38-1.1,2.76-1.56,4.18s-.92,3.06-1.3,4.62-.68,3.07-.93,4.63c-.43,2.55-.86,5.11-1.13,7.68a35.3,35.3,0,0,0-.05,5c.09,2,.31,4,.5,6.27a9.52,9.52,0,0,0,1.16-.92c2.12-2.35,4.38-4.6,6.27-7.13a72,72,0,0,0,5.52-8.58,80.67,80.67,0,0,0,3.79-8.36,61,61,0,0,0,2-5.85,7.9,7.9,0,0,0,.41-2.95c-.28-2.46-1-4.89-1.1-7.36C149,85.77,149.18,82.51,149.18,79.07Zm5.69-23.65a32.12,32.12,0,0,0,10.31-.84,60.44,60.44,0,0,0,7.08-2c3.42-1.11,6.85-2.19,10.18-3.52,3.73-1.48,7.38-3.16,11-4.86,5-2.36,10-4.72,14.93-7.26C213,34.6,217.49,32,222,29.49q4.93-2.74,9.8-5.59c1.38-.8,2.69-1.7,4.15-2.63-2-.8-3.77-1.54-5.58-2.21a1.5,1.5,0,0,0-1.08.08c-.9.45-1.73,1-2.61,1.5-4.62,2.54-9.23,5.11-13.87,7.61-3.75,2-7.52,4-11.31,5.91-3.46,1.75-7,3.44-10.45,5.1-2.38,1.14-4.78,2.2-7.19,3.27-2.19,1-4.37,1.95-6.59,2.83-2,.8-4.13,1.5-6.22,2.18-1.55.51-3.12,1-4.7,1.34a26,26,0,0,1-6,1.09c-2,0-3.19.44-3.94,2.25C156,53.29,155.43,54.29,154.87,55.42Zm-8.51.28c-.88-1.6-1.5-2.86-2.26-4-.39-.61-.36-1.67-1.5-1.62a28,28,0,0,1-9.72-1.64c-3.06-1-6.15-1.91-9.14-3.07-3.69-1.42-7.32-3-10.91-4.64-3.39-1.55-6.73-3.24-10.06-4.92-5.55-2.82-11.13-5.6-16.61-8.54-4.86-2.61-9.61-5.43-14.43-8.13a1.38,1.38,0,0,0-1-.14c-1.89.71-3.75,1.48-5.73,2.27.36.24.63.44.91.61,4.21,2.49,8.41,5,12.65,7.45,3.06,1.76,6.14,3.51,9.28,5.14q7.26,3.81,14.6,7.43c3.15,1.55,6.37,3,9.58,4.41,2.19,1,4.39,2,6.62,2.84,2,.8,4.13,1.51,6.21,2.21,1.86.63,3.73,1.24,5.62,1.77,2.1.58,4.22,1.1,6.34,1.57a29.46,29.46,0,0,0,3.39.5C142.17,55.37,144.13,55.51,146.36,55.7Zm4.72,8.23H139c-1.38,0-2,.63-1.58,1.94a11.31,11.31,0,0,0,1.51,2.65c1.6,2.48,3.23,5,4.85,7.42a3.38,3.38,0,0,0,3.38,1.91,54.4,54.4,0,0,1,7.66,0,3.28,3.28,0,0,0,3.43-1.81c.13-.23.21-.5.36-.72,1.95-2.94,3.93-5.85,5.81-8.82a2.27,2.27,0,0,0,.18-1.88c-.17-.39-1-.66-1.56-.67C159.06,63.91,155.07,63.93,151.08,63.93Zm-17.63-8.49c1.35,2.34,2.57,4.4,3.72,6.51a1.2,1.2,0,0,0,1.25.75c7.85,0,15.7,0,23.54,0,2.72,0,2.72,0,4-2.29.13-.23.24-.46.37-.69l2.52-4.59a7.62,7.62,0,0,0-1.11.07c-1.61.37-3.19.91-4.81,1.12a41.82,41.82,0,0,1-7,.42c-1.67-.06-2.66.44-3.25,1.92-.15.37-.38.71-.55,1.07-.35.73-.75,1.38-1.7,1.38s-1.34-.67-1.69-1.39c-1.44-2.91-1.44-2.91-4.64-2.91a6.06,6.06,0,0,1-.74,0c-2-.25-4-.5-6.06-.77C136.11,55.85,134.92,55.66,133.45,55.44Zm47.49-3.93-.37-.28-1.06.35c-2.24.75-4.51,1.46-6.72,2.3-.83.31-1.87.16-2.43,1.2-1.4,2.59-2.9,5.14-4.37,7.69a1.55,1.55,0,0,0-.13,1.4,4.27,4.27,0,0,1-.25,2.84,55.94,55.94,0,0,1-3.08,4.91c-.39.61-.81,1.21-1.21,1.82l.33.33c2.82-2,5.79-3.86,8.42-6.1,3.81-3.24,7.18-6.94,9.18-11.63C179.91,54.77,180.38,53.12,180.94,51.51Zm-59.36.13-.24.34C124.18,62.41,131.86,68.6,140.73,74c0-.39,0-.59-.07-.72-1.23-1.84-2.44-3.72-3.75-5.51a3.5,3.5,0,0,1-.46-4,.91.91,0,0,0-.14-.71c-1.19-2.17-2.44-4.3-3.6-6.48a4.34,4.34,0,0,0-3.3-2.45,35.84,35.84,0,0,1-4.61-1.49Zm19.86-8.08a15.25,15.25,0,0,0,.66,1.71q3.93,7,7.9,14a2.4,2.4,0,0,0,.45.45,2.74,2.74,0,0,0,.43-.48c1.92-3.35,3.85-6.7,5.74-10.07.91-1.61,1.76-3.25,2.74-5.06a8.48,8.48,0,0,0-1.19.25c-2.31.91-4.61,1.86-6.93,2.74a3.4,3.4,0,0,1-1.94.33A19.11,19.11,0,0,1,146.55,46C145,45.24,143.36,44.48,141.44,43.56ZM138,36.88l-.29.3a16.93,16.93,0,0,0,1,2,7.87,7.87,0,0,0,2,2.49c2.45,1.41,5.08,2.51,7.6,3.83a3.07,3.07,0,0,0,3,.09c2-.88,4-1.49,6.05-2.27,1.63-.63,3.43-1,4.15-3a26.57,26.57,0,0,1,1.23-2.43l-4.49,1.65c-2.21.8-4.42,1.64-6.65,2.39-.78.26-1.79.66-2.42.39-2.73-1.2-5.35-2.63-8-4C140.16,37.84,139.08,37.37,138,36.88Z"/><path class="cls-2" d="M63.52,21.91c2.38,1.44,4.62,2.84,6.9,4.16,3.26,1.9,6.52,3.76,9.81,5.6,3.72,2.08,7.44,4.16,11.21,6.16q4.31,2.28,8.72,4.38Q106,45,111.9,47.59c2.36,1,4.79,1.95,7.15,3a2,2,0,0,1,1.06,1.22,23.41,23.41,0,0,0,2.44,6.73,32.66,32.66,0,0,0,7,9,59.09,59.09,0,0,0,12.33,8.62,7.17,7.17,0,0,1,1.77,1.79c.09.1,0,.45-.15.65-2.28,4.3-4.68,8.54-6.79,12.92a74.45,74.45,0,0,0-3.1,8.26c-.89,2.6-1.73,5.22-2.42,7.88-.47,1.83-.59,3.75-1,5.6a49.46,49.46,0,0,0-.73,12.38c.11,2.26.56,4.51.9,7.12,10.36-8.87,16.92-19.77,20.69-32.72,3.76,12.9,10.33,23.83,20.58,32.62a18.34,18.34,0,0,0,.6-2.81c.19-3.83.48-7.67.39-11.5a46.52,46.52,0,0,0-1.14-7.47A68.7,68.7,0,0,0,169.7,103c-1.17-3.63-2.5-7.22-4-10.72-1.42-3.34-3.12-6.56-4.75-9.8-.61-1.22-1.36-2.39-2.09-3.56A2.16,2.16,0,0,1,160,76.16a54.53,54.53,0,0,0,11.49-7.69,34.93,34.93,0,0,0,8.13-10A19.37,19.37,0,0,0,182,51.66a1.84,1.84,0,0,1,1.27-1.58c2.52-1,5-2,7.53-3.1,2.7-1.18,5.37-2.42,8-3.69s5.25-2.52,7.83-3.89c4.54-2.42,9.08-4.85,13.56-7.38s9.06-5.27,13.59-7.92l2.92-1.75a.8.8,0,0,1,1.18.22c1.89,2.27,3.83,4.49,5.74,6.74s4,4.77,6,7.16l8.15,9.7c1.19,1.4,2.42,2.77,3.61,4.17q4.44,5.22,8.85,10.45c3.4,4,6.81,8,10.21,12Q284,77,287.57,81.18c.48.56.93,1.14,1.43,1.68s.05.93-.27,1.19a47.23,47.23,0,0,1-5.44,4.1c-4,2.3-8.14,4.4-12.26,6.5-2.18,1.11-4.44,2.06-6.68,3s-4.4,1.89-6.61,2.79c-2.44,1-4.9,2-7.37,2.88s-5,1.76-7.55,2.66c-2.23.79-4.44,1.62-6.68,2.4-.56.19-1,.19-1.21-.65-.43-1.81-1-3.58-1.54-5.37-.35-1.21-.64-2.44-1-3.65-.45-1.67-.92-3.34-1.41-5-.32-1.07-.69-2.12-1-3.17s-1-.66-1.66-.61-.89.49-.94,1.12c-.29,3.15-.66,6.29-.91,9.44-.21,2.68-.33,5.36-.43,8-.17,4.47-.3,8.93-.42,13.4-.14,4.89-.32,9.78-.34,14.67q-.1,20.39-.08,40.78c0,7.42.08,14.85.12,22.27a3,3,0,0,0,0,.42c.19,2,.18,2-1.92,2.18-3.1.31-6.18.76-9.28,1.14-1.3.16-2.62.3-3.93.41-2.22.19-4.44.32-6.66.52-2.73.25-5.46.59-8.19.82-2.43.2-4.87.3-7.3.47-1.81.12-3.61.28-5.42.4q-3.44.24-6.87.43c-2.82.15-5.64.32-8.46.41-5.17.15-10.34.31-15.51.36-6.55.06-13.1.07-19.64,0-4.71-.06-9.42-.29-14.13-.48-2.4-.1-4.79-.26-7.19-.41q-6.25-.41-12.5-.83c-3.44-.24-6.88-.51-10.32-.79-3.25-.27-6.51-.56-9.76-.86-1.1-.1-2.2-.28-3.31-.37-.76-.07-.88-.62-.87-1.17.07-2.08.25-4.17.28-6.25.07-5,.07-10,.12-14.92q.19-20.21.42-40.41c0-2.58.29-5.15.27-7.73q-.14-13.95-.42-27.9c0-2.71-.2-5.43-.43-8.14-.17-2-.52-4.06-.79-6.09-.11-.77-.68-.93-1.34-1-1-.08-1.35.53-1.58,1.29-.7,2.34-1.39,4.68-2,7-.48,1.7-.89,3.42-1.35,5.13s-.84,3.22-1.36,4.8a1.25,1.25,0,0,1-.95.7,79.67,79.67,0,0,1-8.76-.46,60.51,60.51,0,0,1-9.1-2.07,69.68,69.68,0,0,1-17-8,107.72,107.72,0,0,1-9.68-6.86c-2.92-2.36-5.52-5.1-8.28-7.65-.43-.4-.42-.63,0-1.08,1.74-2,3.43-4,5.11-6q4.7-5.56,9.36-11.16c2.38-2.82,4.78-5.63,7.16-8.44Q38.86,51,44.08,44.86c3.56-4.19,7.15-8.35,10.71-12.53q3.39-4,6.74-8C62.2,23.55,62.85,22.73,63.52,21.91Z"/><path class="cls-2" d="M228.28,18.29c-3.63,2-7.09,4-10.6,5.92-4.37,2.36-8.78,4.66-13.19,7-3.14,1.64-6.28,3.29-9.47,4.83-3.47,1.68-7,3.25-10.51,4.84-2.45,1.11-4.9,2.22-7.4,3.21-2.11.84-4.28,1.52-6.43,2.24a47.46,47.46,0,0,1-4.75,1.49c-2.38.52-4.74,1.31-7.4.93l26.4-46.93Z"/><path class="cls-2" d="M142.59,49c-1.46-.18-2.69-.29-3.9-.47a23.34,23.34,0,0,1-2.62-.52c-1.81-.48-3.61-1-5.39-1.53s-3.31-1.17-5-1.79c-2.22-.85-4.47-1.67-6.66-2.61-2.68-1.16-5.32-2.39-7.95-3.67-5.42-2.64-10.86-5.24-16.2-8-6.52-3.41-12.94-7-19.4-10.52-.83-.45-1.64-.93-2.69-1.52l3.64-1.44c2.41-1,4.82-1.92,7.24-2.84,2-.78,4.09-1.47,6.13-2.23,1.59-.59,3.16-1.23,4.75-1.84L99.73,8c1.6-.6,3.21-1.17,4.81-1.79s3.25-1.35,4.89-2c2-.75,4-1.36,6-2.21.76-.33.79.1,1,.46,1.13,2,2.23,3.92,3.34,5.89l4.74,8.45c1.52,2.72,3,5.44,4.55,8.16s3.06,5.37,4.59,8.07l5,8.91Z"/><path class="cls-2" d="M235.67,109.9c3.55-1.21,7-2.33,10.38-3.56,3.15-1.16,6.27-2.41,9.39-3.67,4.36-1.78,8.76-3.47,13-5.44,5-2.3,9.87-4.73,14.66-7.38a75.3,75.3,0,0,0,7.29-5.21c1.43,1.62,3,3.36,4.51,5.13,1.37,1.6,2.67,3.25,4.05,4.85.45.52.65.82,0,1.36-2.4,1.92-4.66,4-7.13,5.86a115.89,115.89,0,0,1-9.8,6.68c-3.86,2.29-7.89,4.31-11.92,6.29a84.18,84.18,0,0,1-7.93,3.27c-2,.73-4.1,1.24-6.16,1.79s-4.31,1.1-6.47,1.6a18.68,18.68,0,0,1-2.66.44c-2.32.2-4.65.33-7,.53-1,.09-1-.77-1.13-1.29-.74-2.33-1.41-4.69-2.06-7.05C236.34,112.73,236,111.33,235.67,109.9Z"/><path class="cls-2" d="M10.56,84.46a89.9,89.9,0,0,0,12,10.38c3.61,2.5,7.25,5,11.06,7.16a71.65,71.65,0,0,0,8.78,4,73.13,73.13,0,0,0,7.09,2.43,30.43,30.43,0,0,0,4.86.92c3.54.42,7.1.73,10.78,1.1l-3.48,12.14c-1.88-.19-3.71-.35-5.54-.54-1.2-.13-2.41-.27-3.61-.49-1.91-.36-3.82-.77-5.73-1.21s-3.6-.79-5.34-1.36c-2.76-.91-5.54-1.82-8.19-3-3.44-1.51-6.86-3.13-10.13-5a125.77,125.77,0,0,1-10.76-6.73c-3.51-2.49-6.8-5.31-10.18-8-.73-.58-.88-1.09-.14-1.92,2.71-3,5.33-6.17,8-9.27Z"/><path class="cls-2" d="M125,14.32l4,1.44,6.23,2.35c2,.74,4,1.47,6,2.22s4.16,1.6,6.24,2.4a6.47,6.47,0,0,0,1.78.67,7.08,7.08,0,0,0,2.45-.37c2.28-.75,4.53-1.6,6.78-2.42,2.57-.94,5.12-1.91,7.7-2.82,2.21-.78,4.44-1.48,6.65-2.25a23.42,23.42,0,0,1,3.32-1c-2.05,3.6-4.12,7.19-6.15,10.8-1.9,3.37-3.76,6.77-5.64,10.15-.61,1.11-1.83,1.17-2.83,1.56-1.74.67-3.51,1.24-5.26,1.88-2,.74-4,1.53-6.1,2.22-.33.11-.83-.17-1.21-.36-3.8-1.84-7.55-3.77-11.38-5.52-1.61-.74-2.21-2.17-3-3.48-1.81-3.1-3.48-6.28-5.22-9.43-1.38-2.5-2.78-5-4.18-7.47-.07-.12-.3-.14-.46-.2Z"/><path class="cls-2" d="M170.84,130.19a60.65,60.65,0,0,1-11.73-14.55,61.54,61.54,0,0,1-7.05-17.37,59,59,0,0,1-1.59-19.22c2.26,0,4.46,0,6.66,0a1,1,0,0,1,.67.51c1.78,3.34,3.59,6.66,5.27,10,1.17,2.37,2.23,4.81,3.21,7.27.72,1.79,1.25,3.66,1.82,5.51s1.16,3.56,1.58,5.38.69,3.65,1,5.49c.31,2.16.65,4.32.78,6.49a60.37,60.37,0,0,1,0,6.31C171.35,127.33,171.07,128.56,170.84,130.19Z"/><path class="cls-2" d="M149.18,79.07c0,3.44-.14,6.7,0,9.94.15,2.47.82,4.9,1.1,7.36a7.9,7.9,0,0,1-.41,2.95,61,61,0,0,1-2,5.85,80.67,80.67,0,0,1-3.79,8.36,72,72,0,0,1-5.52,8.58c-1.89,2.53-4.15,4.78-6.27,7.13a9.52,9.52,0,0,1-1.16.92c-.19-2.29-.41-4.28-.5-6.27a35.3,35.3,0,0,1,.05-5c.27-2.57.7-5.13,1.13-7.68.25-1.56.56-3.1.93-4.63s.81-3.1,1.3-4.62,1-2.8,1.56-4.18c1-2.47,1.9-5,3-7.37,1.43-3,3.2-5.89,4.54-8.94a3.53,3.53,0,0,1,4.37-2.37A10.24,10.24,0,0,0,149.18,79.07Z"/><path class="cls-2" d="M154.87,55.42c.56-1.13,1.15-2.13,1.59-3.2.75-1.81,2-2.28,3.94-2.25a26,26,0,0,0,6-1.09c1.58-.37,3.15-.83,4.7-1.34,2.09-.68,4.17-1.38,6.22-2.18,2.22-.88,4.4-1.86,6.59-2.83,2.41-1.07,4.81-2.13,7.19-3.27,3.5-1.66,7-3.35,10.45-5.1,3.79-1.92,7.56-3.9,11.31-5.91,4.64-2.5,9.25-5.07,13.87-7.61.88-.49,1.71-1.05,2.61-1.5a1.5,1.5,0,0,1,1.08-.08c1.81.67,3.59,1.41,5.58,2.21-1.46.93-2.77,1.83-4.15,2.63q-4.87,2.85-9.8,5.59C217.49,32,213,34.6,208.38,37c-4.91,2.54-9.92,4.9-14.93,7.26-3.63,1.7-7.28,3.38-11,4.86-3.33,1.33-6.76,2.41-10.18,3.52a60.44,60.44,0,0,1-7.08,2A32.12,32.12,0,0,1,154.87,55.42Z"/><path class="cls-2" d="M146.36,55.7c-2.23-.19-4.19-.33-6.15-.52a29.46,29.46,0,0,1-3.39-.5c-2.12-.47-4.24-1-6.34-1.57-1.89-.53-3.76-1.14-5.62-1.77-2.08-.7-4.17-1.41-6.21-2.21-2.23-.89-4.43-1.86-6.62-2.84-3.21-1.44-6.43-2.86-9.58-4.41q-7.35-3.63-14.6-7.43c-3.14-1.63-6.22-3.38-9.28-5.14-4.24-2.45-8.44-5-12.65-7.45-.28-.17-.55-.37-.91-.61,2-.79,3.84-1.56,5.73-2.27a1.38,1.38,0,0,1,1,.14c4.82,2.7,9.57,5.52,14.43,8.13,5.48,2.94,11.06,5.72,16.61,8.54,3.33,1.68,6.67,3.37,10.06,4.92,3.59,1.64,7.22,3.22,10.91,4.64,3,1.16,6.08,2.07,9.14,3.07a28,28,0,0,0,9.72,1.64c1.14-.05,1.11,1,1.5,1.62C144.86,52.84,145.48,54.1,146.36,55.7Z"/><path class="cls-2" d="M151.08,63.93c4,0,8,0,12,0,.55,0,1.39.28,1.56.67a2.27,2.27,0,0,1-.18,1.88c-1.88,3-3.86,5.88-5.81,8.82-.15.22-.23.49-.36.72a3.28,3.28,0,0,1-3.43,1.81,54.4,54.4,0,0,0-7.66,0A3.38,3.38,0,0,1,143.79,76c-1.62-2.47-3.25-4.94-4.85-7.42a11.31,11.31,0,0,1-1.51-2.65c-.41-1.31.2-1.94,1.58-1.94Z"/><path class="cls-2" d="M133.45,55.44c1.47.22,2.66.41,3.85.57,2,.27,4,.52,6.06.77a6.06,6.06,0,0,0,.74,0c3.2,0,3.2,0,4.64,2.91.35.72.73,1.4,1.69,1.39s1.35-.65,1.7-1.38c.17-.36.4-.7.55-1.07.59-1.48,1.58-2,3.25-1.92a41.82,41.82,0,0,0,7-.42c1.62-.21,3.2-.75,4.81-1.12a7.62,7.62,0,0,1,1.11-.07L166.3,59.7c-.13.23-.24.46-.37.69-1.25,2.29-1.25,2.29-4,2.29-7.84,0-15.69,0-23.54,0a1.2,1.2,0,0,1-1.25-.75C136,59.84,134.8,57.78,133.45,55.44Z"/><path class="cls-2" d="M180.94,51.51c-.56,1.61-1,3.26-1.69,4.83-2,4.69-5.37,8.39-9.18,11.63-2.63,2.24-5.6,4.08-8.42,6.1l-.33-.33c.4-.61.82-1.21,1.21-1.82A55.94,55.94,0,0,0,165.61,67a4.27,4.27,0,0,0,.25-2.84,1.55,1.55,0,0,1,.13-1.4c1.47-2.55,3-5.1,4.37-7.69.56-1,1.6-.89,2.43-1.2,2.21-.84,4.48-1.55,6.72-2.3l1.06-.35Z"/><path class="cls-2" d="M121.58,51.64l3.22,1.06a35.84,35.84,0,0,0,4.61,1.49,4.34,4.34,0,0,1,3.3,2.45c1.16,2.18,2.41,4.31,3.6,6.48a.91.91,0,0,1,.14.71,3.5,3.5,0,0,0,.46,4c1.31,1.79,2.52,3.67,3.75,5.51.08.13,0,.33.07.72C131.86,68.6,124.18,62.41,121.34,52Z"/><path class="cls-2" d="M141.44,43.56c1.92.92,3.52,1.68,5.11,2.47a19.11,19.11,0,0,0,2.75,1.38,3.4,3.4,0,0,0,1.94-.33c2.32-.88,4.62-1.83,6.93-2.74a8.48,8.48,0,0,1,1.19-.25c-1,1.81-1.83,3.45-2.74,5.06-1.89,3.37-3.82,6.72-5.74,10.07a2.74,2.74,0,0,1-.43.48,2.4,2.4,0,0,1-.45-.45q-4-7-7.9-14A15.25,15.25,0,0,1,141.44,43.56Z"/><path class="cls-2" d="M138,36.88c1.08.49,2.16,1,3.22,1.48,2.68,1.33,5.3,2.76,8,4,.63.27,1.64-.13,2.42-.39,2.23-.75,4.44-1.59,6.65-2.39l4.49-1.65a26.57,26.57,0,0,0-1.23,2.43c-.72,2-2.52,2.36-4.15,3-2,.78-4.09,1.39-6.05,2.27a3.07,3.07,0,0,1-3-.09c-2.52-1.32-5.15-2.42-7.6-3.83a7.87,7.87,0,0,1-2-2.49,16.93,16.93,0,0,1-1-2Z"/></g></g></svg>