<svg xmlns="http://www.w3.org/2000/svg" viewBox="0 0 225.9 266.76"><defs><style>.cls-1,.cls-2{fill-rule:evenodd;}.cls-2{fill:#fff;}</style></defs><title>top2</title><g id="Layer_2" data-name="Layer 2"><g id="圖層_1" data-name="圖層 1"><path class="cls-1" d="M198,266.53c-1.68-11.72-3.31-23.26-8.14-34-.26,1.23-.61,2.55-.8,3.89-.3,2.07-.51,4.15-.7,6.23-.3,3.27-.53,6.55-.82,9.82-.19,2-.49,4-.66,6.06-.1,1.09-.78,1.13-1.56,1.09-3-.19-6.09-.46-9.14-.59-6.76-.29-13.52-.51-20.28-.79-4.65-.19-9.3-.45-14-.67s-9.39-.55-14.1-.67c-8.92-.23-17.85-.44-26.78-.45-4.93,0-9.86.41-14.8.65-4.47.21-8.94.45-13.41.68l-13.94.68c-4.77.23-9.53.44-14.29.7a27,27,0,0,0-3.33.47c-1.55.29-2-.7-2.16-1.88-.31-2.93-.49-5.87-.78-8.79q-.7-7.09-1.51-14.16a9.8,9.8,0,0,0-.71-2.08C31.23,243.42,29.83,255,28,266.76L0,263.31c.39-3.86.76-7.45,1.13-11,0-.29.1-.57.11-.85q.45-7.83.88-15.66c.23-4.13.38-8.28.72-12.41s.86-8.43,1.34-12.64q.66-5.72,1.38-11.43.66-5.11,1.36-10.21Q7.94,181.54,9,174q1-7.19,2.07-14.37,1-6.76,2-13.51t2.06-13.34c.67-4.22,1.32-8.44,2-12.64.58-3.31,1.31-6.6,1.89-9.91.34-1.94.47-3.92.81-5.86.58-3.31,1.25-6.61,1.86-9.91.28-1.49.52-3,.79-4.48.68-3.76,1.39-7.51,2-11.27.54-3.1.93-6.22,1.52-9.31.53-2.79,1.29-5.55,1.85-8.34s1-5.75,1.55-8.6c.52-2.57,1.24-5.09,1.83-7.64.54-2.33,1-4.69,1.54-7s1.21-4.74,1.88-7.1,1.52-4.85,2.19-7.31c1-3.62,3.32-6.29,6-8.69A50.63,50.63,0,0,1,57.28,5.94c3.59-1.51,7.42-2.49,11.15-3.68,1.42-.45,2.88-.82,4.48-1.28,1,1.8,2,3.64,3,5.42A1.73,1.73,0,0,0,77.09,7c1.64-1.91,4-1.35,6.08-1.87,3.3-.84,6.68-1.35,10-2l4-.73c3.69-.68,7.36-1.51,11.08-2,1.61-.2,3.46-1,5,.44a.7.7,0,0,0,.66,0C116-.49,118.07.34,120.2.79c3.07.65,6.21,1,9.3,1.56s6.14,1.24,9.21,1.86c1.37.28,2.76.5,4.14.78,2.23.44,4.45.93,6.69,1.32a1.28,1.28,0,0,0,1-.6c.75-1.32,1.39-2.7,2.14-4a1.26,1.26,0,0,1,1-.59c2.52.61,5.08,1.15,7.53,2,3.4,1.2,6.77,2.52,10,4a43.42,43.42,0,0,1,14.43,10.21c2.55,2.86,3.71,6.31,4.68,9.9.79,2.94,1.73,5.84,2.5,8.78.61,2.33,1,4.71,1.57,7.06.62,2.72,1.26,5.43,1.87,8.15.3,1.31.57,2.63.84,3.94.89,4.44,1.83,8.87,2.66,13.32.58,3.09,1,6.22,1.53,9.31s1.29,6.15,1.87,9.24c.35,1.87.51,3.79.85,5.67.58,3.31,1.25,6.6,1.87,9.9.27,1.44.54,2.88.75,4.32.52,3.57,1,7.14,1.51,10.7.66,4.34,1.38,8.66,2.07,13s1.36,8.55,2,12.83c.71,4.62,1.38,9.25,2.07,13.87.46,3.06.9,6.12,1.38,9.17.61,3.83,1.3,7.64,1.88,11.47.35,2.35.49,4.73.81,7.08.61,4.4,1.3,8.79,1.92,13.19q.42,3,.74,6.05c.29,3,.48,6,.8,9,.61,5.61,1.4,11.21,1.87,16.84.29,3.52,0,7.08.2,10.6.24,3.71.8,7.41,1.18,11.11.09.91,0,1.83.11,2.74.2,2.3.36,4.61.67,6.91.23,1.72-.58,2.14-2.1,2.28-4.67.43-9.34.93-14,1.47-3.37.39-6.72.88-10.08,1.31A14,14,0,0,1,198,266.53ZM92.45,37.2c.16-.48.18-1.12.51-1.41,2.13-1.88,4.34-3.66,6.49-5.51,2.31-2,4.61-4,6.87-6,.24-.21.42-.89.27-1.07a28.88,28.88,0,0,0-2.67-2.86,1.11,1.11,0,0,0-1.06,0c-1.27,1.84-2.84.95-4.15.32-5.43-2.57-10.79-5.29-16.2-7.92-1.18-.58-2.42-1-3.63-1.55-.12.12-.23.24-.34.37.51.93,1,1.85,1.53,2.79Q85.94,25.6,91.82,36.89c.08.16.45.17.69.25a3.54,3.54,0,0,0,.12,1.32c1.43,2.76,2.94,5.48,4.39,8.24,2.82,5.38,5.6,10.78,8.44,16.16,2.13,4,4.31,8.08,6.5,12.1a9.9,9.9,0,0,0,1.14,1.46,12.17,12.17,0,0,0,1.13-1.49q8.19-15.5,16.31-31a3.56,3.56,0,0,0,.15-1.15,45.08,45.08,0,0,0-4,4.4c-1.43,1.7-3.06,1.51-4.09-.45q-4.12-7.91-8.27-15.82a5.21,5.21,0,0,0-.78-.92,9.13,9.13,0,0,0-.62.91c-3.11,5.84-6.19,11.69-9.31,17.52-.85,1.59-1.12,1.53-2.25,0q-3.09-4.14-6.28-8.21C94.27,39.15,93.34,38.19,92.45,37.2Zm88.32,35.52.53,0c.24,2.16.64,4.32.7,6.49.29,10,.49,20,.72,30a39.64,39.64,0,0,0,.18,6c.7,4.11,1.8,8.16,2.53,12.28.61,3.5,1,7,1.36,10.58.53,5.23,1,10.48,1.38,15.72.29,3.61.5,7.23.7,10.85.25,4.59.5,9.17.68,13.76.27,6.87.56,13.74.67,20.62.13,8.49.28,17,0,25.48-.12,4,1.19,7.46,2.25,11.07.91,3.11,2.35,6.07,3.17,9.2.92,3.52,1.45,7.15,2.06,10.74.54,3.15,1,6.32,1.45,9.49a23.93,23.93,0,0,0,3.19,0c2.4-.33,4.78-.85,7.18-1.16,2.75-.35,5.52-.51,8.28-.83,2.17-.24,4.34-.6,6.64-.93-.23-2.7-.46-5.34-.66-8-.08-1-.08-2-.17-3.07-.38-3.93-.9-7.86-1.15-11.8-.22-3.41,0-6.84-.26-10.25s-.77-7.07-1.13-10.61c-.31-3-.53-6-.83-9-.19-1.91-.41-3.81-.68-5.71-.61-4.23-1.31-8.45-1.88-12.68-.35-2.52-.51-5.06-.79-7.59q-.33-2.86-.78-5.71c-.6-3.77-1.26-7.53-1.86-11.29-.46-2.89-.88-5.79-1.31-8.68-.7-4.62-1.39-9.24-2.1-13.85-.66-4.33-1.35-8.66-2-13s-1.36-8.65-2.07-13c-.66-4.05-1.35-8.09-2-12.13s-1.37-8.19-2.1-12.29q-1.32-7.53-2.71-15.05c-.67-3.63-1.38-7.26-2.05-10.89-.74-4.08-1.44-8.16-2.18-12.24-.24-1.31-.53-2.62-.83-3.92-.6-2.6-1.24-5.19-1.83-7.79-.54-2.4-1-4.82-1.58-7.2-.78-3.07-1.61-6.13-2.58-9.14a39.65,39.65,0,0,0-2.63-6.55c-2.35-4.33-6.3-7.11-10.43-9.44a122.58,122.58,0,0,0-12.81-6A70.74,70.74,0,0,0,155.2,3c-1.28-.36-2,.29-2.47,1.38C152,6.15,151.32,8,150.41,9.69c-2.62,4.9-5.41,9.71-8,14.61-3.47,6.5-6.86,13-10.27,19.56-2.38,4.56-4.7,9.16-7.1,13.71-3.29,6.21-6.67,12.36-9.91,18.59a9,9,0,0,0-1.52,4.43q.09,86.15,0,172.28v1.73c4,.27,7.84.55,11.68.76,5,.27,10,.46,15,.7,4.31.21,8.62.46,12.92.67,4.7.24,9.4.49,14.1.68,3.14.13,6.27.09,9.4.23,2.38.11,4.74.4,7.12.57.81.07,1.56.08,1.69-1.12.37-3.53.89-7,1.26-10.59.33-3.21.55-6.43.82-9.64,0-.4.09-.79.14-1.18.41-2.89,1.18-5.77,1.16-8.66-.07-12.06-.35-24.11-.63-36.17-.14-5.9-.42-11.8-.67-17.7-.19-4.36-.4-8.72-.7-13.07-.4-5.82-.84-11.64-1.36-17.45-.37-4.16-.8-8.32-1.37-12.45s-1.33-8-2-11.94a28.27,28.27,0,0,1-.7-3.58c-.28-5.9-.54-11.8-.66-17.7-.15-7.46-.17-14.93-.22-22.4A13,13,0,0,1,180.77,72.72Zm-68.5,182v-1.2q0-86.82,0-173.64a3.6,3.6,0,0,0-.19-1.48c-1.1-2.24-2.26-4.45-3.42-6.66-3.82-7.22-7.67-14.42-11.48-21.65Q90.56,37.48,84,24.88L73.16,4.18c-.43-.82-1-1.51-2.06-1.2-1.61.45-3.24.81-4.8,1.36C62.84,5.58,59.38,6.81,56,8.23a47.57,47.57,0,0,0-11.28,6.9,20.19,20.19,0,0,0-7,10c-1.11,3.6-2,7.28-2.89,10.93-1.12,4.38-2.27,8.74-3.26,13.14S29.73,58,28.85,62.47q-1.41,7.08-2.74,14.17c-.72,3.85-1.39,7.72-2.08,11.58S22.65,96,22,99.82c-.7,4-1.37,8.09-2,12.14q-1.05,6.32-2.08,12.64-1,6.48-2.05,13c-.68,4.33-1.36,8.67-2,13q-1.05,6.93-2.06,13.87-1,7.17-2.05,14.36-1,7.62-2.06,15.26-.7,5.35-1.36,10.73c-.47,3.92-1,7.84-1.37,11.77-.49,4.84-.94,9.69-1.29,14.54-.31,4.41-.39,8.83-.7,13.24-.4,5.53-.92,11.05-1.42,16.58-.09.94.17,1.33,1.15,1.43,4.5.45,9,.95,13.49,1.44.28,0,.56.11.84.15l9.66,1.37c.72-3.82,1.38-7.39,2.06-10.95s1.23-7.28,2.15-10.84c.83-3.18,2.2-6.22,3.11-9.38.69-2.38,1.66-4.66,1.67-7.28,0-9,.28-18,.51-27,.18-7.33.42-14.65.68-22,.17-4.65.44-9.3.68-13.94.28-5.62.51-11.24.92-16.84.3-4.12.86-8.22,1.3-12.32.25-2.3.46-4.61.75-6.9.21-1.68.45-3.36.8-5,.57-2.72,1.42-5.4,1.81-8.14a80.33,80.33,0,0,0,.56-8.64c.11-3,.06-5.93.14-8.89.2-7.28.44-14.55.66-21.83,0-.88,0-1.77,0-2.66l.64-.23c.25.4.73.81.71,1.2,0,1.35-.37,2.69-.41,4q-.39,13-.7,26.09c-.08,3.24-.08,6.49-.13,9.74a12.53,12.53,0,0,1-.16,2.38c-.82,4.06-1.8,8.08-2.52,12.15-.59,3.38-1,6.8-1.3,10.22-.56,5.76-1,11.53-1.48,17.29-.23,2.88-.41,5.77-.56,8.65-.25,4.7-.52,9.4-.69,14.1-.28,7.78-.69,15.56-.68,23.34,0,9.37-1,18.76.44,28.13.6,3.95,1,7.95,1.38,11.93.52,5,1,10,1.42,15,.1,1.13.55,1.53,1.6,1.4,1.63-.19,3.25-.47,4.89-.56,5-.28,10.09-.47,15.13-.72,4.25-.2,8.5-.45,12.75-.66,5-.24,10-.5,15-.69,7.38-.29,14.77-.52,22.15-.77Zm.28-252.89A6.56,6.56,0,0,0,111,1.55c-1.28.18-2.54.45-3.81.66L98.09,3.69c-1.66.27-3.32.53-5,.83-3.35.62-6.73,1.14-10,2-1.67.42-3.73.06-5.16,2a13.31,13.31,0,0,0,1.85,1.35c1.58.79,3.24,1.44,4.83,2.22,4.84,2.38,9.66,4.82,14.52,7.16,1.09.52,2.28.81,3.19-.62,3-4.72,6.07-9.38,9.06-14.1A17.77,17.77,0,0,0,112.55,1.79ZM117,1.43c-.48.22-1.36.38-1.73.89-.25.34.09,1.29.42,1.81,2.92,4.63,5.93,9.2,8.85,13.83,1.14,1.81,1.93,2.1,3.8,1.16,1.66-.84,3.34-1.65,5-2.45,4.83-2.31,9.68-4.57,14.49-6.94a2.29,2.29,0,0,0,.94-1.59c0-.28-.66-.83-1.13-1a19.16,19.16,0,0,0-2.93-.67c-4.36-.73-8.74-1.43-13.11-2.16-1.43-.24-2.86-.49-4.29-.77C124,2.88,120.7,2.18,117,1.43Zm2.78,22L134.62,36l12.6-24a2.66,2.66,0,0,0-.83,0c-5.87,2.81-11.76,5.6-17.59,8.48-2.75,1.35-3,1.35-5-.94a1.28,1.28,0,0,0-1.23,0C121.66,20.7,120.83,22,119.81,23.42Zm-5.57,4.11c3.36,6.4,6.57,12.33,9.6,18.36.8,1.6,1.39.91,2,.15,1.73-2.18,3.32-4.47,5.07-6.63,2.22-2.74,2.29-2.72-.29-4.92-3.57-3-7.21-6-10.73-9.09-.82-.72-1.2-.63-1.63.2C117.48,27.08,116.45,28.1,114.24,27.53ZM107.89,25c-1.56,1.3-3,2.5-4.47,3.74C101,30.83,98.63,33,96.1,35c-2.11,1.66-2.14,1.5-.43,3.61,2.28,2.83,4.45,5.75,6.87,8.89,3.49-6.65,6.88-13.13,10.29-19.64C110.69,27.42,110.69,27.42,107.89,25Zm-3.75-6.62,6,6.62c1,1.07,4.61,1.79,5.86,1.17.17-.08.28-.31.4-.48,1.74-2.38,3.51-4.74,5.19-7.16a2,2,0,0,0,0-2.6,8.22,8.22,0,0,1-1.5-2.3c-.36-.94-.94-1.08-1.81-1.07-3.13,0-6.27,0-9.4,0a2.25,2.25,0,0,0-1.48.9C106.23,15.1,105.2,16.76,104.14,18.38Zm14.36-7.22c-1.49-2.28-2.83-4.3-4.14-6.35-.52-.83-.92-.83-1.45,0-1.32,2.08-2.68,4.14-4.13,6.36Z"/><path class="cls-2" d="M180.77,72.72a13,13,0,0,0-.22,1.84c0,7.47.07,14.94.22,22.4.12,5.9.38,11.8.66,17.7a28.27,28.27,0,0,0,.7,3.58c.7,4,1.47,8,2,11.94s1,8.29,1.37,12.45c.52,5.81,1,11.63,1.36,17.45.3,4.35.51,8.71.7,13.07.25,5.9.53,11.8.67,17.7.28,12.06.56,24.11.63,36.17,0,2.89-.75,5.77-1.16,8.66,0,.39-.11.78-.14,1.18-.27,3.21-.49,6.43-.82,9.64-.37,3.54-.89,7.06-1.26,10.59-.13,1.2-.88,1.19-1.69,1.12-2.38-.17-4.74-.46-7.12-.57-3.13-.14-6.26-.1-9.4-.23-4.7-.19-9.4-.44-14.1-.68-4.3-.21-8.61-.46-12.92-.67-5-.24-10-.43-15-.7-3.84-.21-7.66-.49-11.68-.76v-1.73q0-86.13,0-172.28a9,9,0,0,1,1.52-4.43c3.24-6.23,6.62-12.38,9.91-18.59,2.4-4.55,4.72-9.15,7.1-13.71,3.41-6.53,6.8-13.06,10.27-19.56,2.62-4.9,5.41-9.71,8-14.61.91-1.7,1.55-3.54,2.32-5.32.47-1.09,1.19-1.74,2.47-1.38A70.74,70.74,0,0,1,163,5.26a122.58,122.58,0,0,1,12.81,6c4.13,2.33,8.08,5.11,10.43,9.44a39.65,39.65,0,0,1,2.63,6.55c1,3,1.8,6.07,2.58,9.14.61,2.38,1,4.8,1.58,7.2.59,2.6,1.23,5.19,1.83,7.79.3,1.3.59,2.61.83,3.92.74,4.08,1.44,8.16,2.18,12.24.67,3.63,1.38,7.26,2.05,10.89q1.38,7.52,2.71,15.05c.73,4.1,1.41,8.19,2.1,12.29s1.37,8.08,2,12.13c.71,4.32,1.39,8.64,2.07,13s1.37,8.66,2,13c.71,4.61,1.4,9.23,2.1,13.85.43,2.89.85,5.79,1.31,8.68.6,3.76,1.26,7.52,1.86,11.29q.45,2.85.78,5.71c.28,2.53.44,5.07.79,7.59.57,4.23,1.27,8.45,1.88,12.68.27,1.9.49,3.8.68,5.71.3,3,.52,6,.83,9,.36,3.54.89,7.07,1.13,10.61s0,6.84.26,10.25c.25,3.94.77,7.87,1.15,11.8.09,1,.09,2.05.17,3.07.2,2.64.43,5.28.66,8-2.3.33-4.47.69-6.64.93-2.76.32-5.53.48-8.28.83-2.4.31-4.78.83-7.18,1.16a23.93,23.93,0,0,1-3.19,0c-.48-3.17-.91-6.34-1.45-9.49-.61-3.59-1.14-7.22-2.06-10.74-.82-3.13-2.26-6.09-3.17-9.2-1.06-3.61-2.37-7.1-2.25-11.07.25-8.49.1-17,0-25.48-.11-6.88-.4-13.75-.67-20.62-.18-4.59-.43-9.17-.68-13.76-.2-3.62-.41-7.24-.7-10.85-.41-5.24-.85-10.49-1.38-15.72-.35-3.54-.75-7.08-1.36-10.58-.73-4.12-1.83-8.17-2.53-12.28a39.64,39.64,0,0,1-.18-6c-.23-10-.43-20-.72-30-.06-2.17-.46-4.33-.7-6.49Z"/><path class="cls-2" d="M112.27,254.68l-.4.14c-7.38.25-14.77.48-22.15.77-5,.19-10,.45-15,.69-4.25.21-8.5.46-12.75.66-5,.25-10.09.44-15.13.72-1.64.09-3.26.37-4.89.56-1,.13-1.5-.27-1.6-1.4-.41-5-.9-10-1.42-15-.41-4-.78-8-1.38-11.93-1.42-9.37-.43-18.76-.44-28.13,0-7.78.4-15.56.68-23.34.17-4.7.44-9.4.69-14.1.15-2.88.33-5.77.56-8.65.46-5.76.92-11.53,1.48-17.29.33-3.42.71-6.84,1.3-10.22.72-4.07,1.7-8.09,2.52-12.15a12.53,12.53,0,0,0,.16-2.38c.05-3.25.05-6.5.13-9.74q.32-13,.7-26.09c0-1.34.36-2.68.41-4,0-.39-.46-.8-.71-1.2l-.64.23c0,.89,0,1.78,0,2.66C44.22,82.71,44,90,43.78,97.26c-.08,3,0,5.92-.14,8.89a80.33,80.33,0,0,1-.56,8.64c-.39,2.74-1.24,5.42-1.81,8.14-.35,1.65-.59,3.33-.8,5-.29,2.29-.5,4.6-.75,6.9-.44,4.1-1,8.2-1.3,12.32-.41,5.6-.64,11.22-.92,16.84-.24,4.64-.51,9.29-.68,13.94-.26,7.33-.5,14.65-.68,22-.23,9-.49,18-.51,27,0,2.62-1,4.9-1.67,7.28-.91,3.16-2.28,6.2-3.11,9.38-.92,3.56-1.46,7.22-2.15,10.84s-1.34,7.13-2.06,10.95L17,264c-.28,0-.56-.12-.84-.15-4.5-.49-9-1-13.49-1.44-1-.1-1.24-.49-1.15-1.43.5-5.53,1-11.05,1.42-16.58.31-4.41.39-8.83.7-13.24.35-4.85.8-9.7,1.29-14.54.39-3.93.9-7.85,1.37-11.77q.66-5.37,1.36-10.73,1-7.63,2.06-15.26,1-7.19,2.05-14.36,1-6.94,2.06-13.87c.65-4.33,1.33-8.67,2-13s1.36-8.66,2.05-13S19.25,116.17,20,112c.67-4,1.34-8.1,2-12.14.66-3.87,1.36-7.74,2-11.6s1.36-7.73,2.08-11.58q1.32-7.1,2.74-14.17c.88-4.44,1.73-8.89,2.74-13.31S33.73,40.4,34.85,36c.93-3.65,1.78-7.33,2.89-10.93a20.19,20.19,0,0,1,7-10A47.57,47.57,0,0,1,56,8.23c3.38-1.42,6.84-2.65,10.3-3.89,1.56-.55,3.19-.91,4.8-1.36,1.1-.31,1.63.38,2.06,1.2L84,24.88q6.58,12.59,13.18,25.17c3.81,7.23,7.66,14.43,11.48,21.65,1.16,2.21,2.32,4.42,3.42,6.66a3.6,3.6,0,0,1,.19,1.48q0,86.82,0,173.64ZM106.1,137.12a4.1,4.1,0,1,0-4.08,4.12A4,4,0,0,0,106.1,137.12ZM102,164.51a4.11,4.11,0,1,0-4.08-4.12A4,4,0,0,0,102,164.51Zm4.12,19.18a4.1,4.1,0,1,0-4.12,4.09A4,4,0,0,0,106.1,183.69Z"/><path class="cls-2" d="M92.45,37.19c.89,1,1.82,2,2.64,3q3.18,4.06,6.28,8.21c1.13,1.52,1.4,1.58,2.25,0,3.12-5.83,6.2-11.68,9.31-17.52a9.13,9.13,0,0,1,.62-.91,5.21,5.21,0,0,1,.78.92q4.15,7.9,8.27,15.82c1,2,2.66,2.15,4.09.45a45.08,45.08,0,0,1,4-4.4,3.56,3.56,0,0,1-.15,1.15q-8.13,15.53-16.31,31a12.17,12.17,0,0,1-1.13,1.49A9.9,9.9,0,0,1,112,75c-2.19-4-4.37-8-6.5-12.1C102.62,57.48,99.84,52.08,97,46.7c-1.45-2.76-3-5.48-4.39-8.24a3.54,3.54,0,0,1-.12-1.32Z"/><path class="cls-2" d="M112.55,1.79a17.77,17.77,0,0,1-1.17,2.72c-3,4.72-6.07,9.38-9.06,14.1-.91,1.43-2.1,1.14-3.19.62-4.86-2.34-9.68-4.78-14.52-7.16-1.59-.78-3.25-1.43-4.83-2.22A13.31,13.31,0,0,1,77.93,8.5c1.43-1.95,3.49-1.59,5.16-2,3.29-.83,6.67-1.35,10-2,1.66-.3,3.32-.56,5-.83l9.12-1.48c1.27-.21,2.53-.48,3.81-.66A6.56,6.56,0,0,1,112.55,1.79Z"/><path class="cls-2" d="M117,1.43c3.67.75,7,1.45,10.34,2.12,1.43.28,2.86.53,4.29.77,4.37.73,8.75,1.43,13.11,2.16a19.16,19.16,0,0,1,2.93.67c.47.16,1.17.71,1.13,1a2.29,2.29,0,0,1-.94,1.59c-4.81,2.37-9.66,4.63-14.49,6.94-1.69.8-3.37,1.61-5,2.45-1.87.94-2.66.65-3.8-1.16-2.92-4.63-5.93-9.2-8.85-13.83-.33-.52-.67-1.47-.42-1.81C115.67,1.81,116.55,1.65,117,1.43Z"/><path class="cls-2" d="M92.51,37.14c-.24-.08-.61-.09-.69-.25Q85.91,25.61,80.07,14.31c-.49-.94-1-1.86-1.53-2.79.11-.13.22-.25.34-.37,1.21.51,2.45,1,3.63,1.55,5.41,2.63,10.77,5.35,16.2,7.92,1.31.63,2.88,1.52,4.15-.32a1.11,1.11,0,0,1,1.06,0,28.88,28.88,0,0,1,2.67,2.86c.15.18,0,.86-.27,1.07-2.26,2-4.56,4.05-6.87,6-2.15,1.85-4.36,3.63-6.49,5.51-.33.29-.35.93-.51,1.4Z"/><path class="cls-2" d="M119.81,23.42c1-1.46,1.85-2.72,2.79-3.89a1.28,1.28,0,0,1,1.23,0c2,2.29,2.22,2.29,5,.94,5.83-2.88,11.72-5.67,17.59-8.48a2.66,2.66,0,0,1,.83,0l-12.6,24Z"/><path class="cls-2" d="M114.24,27.53c2.21.57,3.24-.45,4-1.93.43-.83.81-.92,1.63-.2,3.52,3.09,7.16,6.05,10.73,9.09,2.58,2.2,2.51,2.18.29,4.92-1.75,2.16-3.34,4.45-5.07,6.63-.61.76-1.2,1.45-2-.15C120.81,39.86,117.6,33.93,114.24,27.53Z"/><path class="cls-2" d="M107.89,25c2.8,2.42,2.8,2.42,4.94,2.88-3.41,6.51-6.8,13-10.29,19.64-2.42-3.14-4.59-6.06-6.87-8.89C94,36.52,94,36.68,96.1,35c2.53-2,4.88-4.19,7.32-6.28C104.86,27.5,106.33,26.3,107.89,25Z"/><path class="cls-2" d="M104.14,18.38c1.06-1.62,2.09-3.28,3.23-4.87a2.25,2.25,0,0,1,1.48-.9c3.13-.08,6.27,0,9.4,0,.87,0,1.45.13,1.81,1.07a8.22,8.22,0,0,0,1.5,2.3,2,2,0,0,1,0,2.6c-1.68,2.42-3.45,4.78-5.19,7.16-.12.17-.23.4-.4.48-1.25.62-4.89-.1-5.86-1.17Z"/><path class="cls-2" d="M118.5,11.16h-9.72c1.45-2.22,2.81-4.28,4.13-6.36.53-.82.93-.82,1.45,0C115.67,6.86,117,8.88,118.5,11.16Z"/><path class="cls-1" d="M106.1,137.12A4.1,4.1,0,1,1,102,133,4,4,0,0,1,106.1,137.12Zm-1.36-.08a2.74,2.74,0,1,0-2.64,2.83A2.86,2.86,0,0,0,104.74,137Z"/><path class="cls-1" d="M102,164.51a4.11,4.11,0,1,1,4.12-4.09A4,4,0,0,1,102,164.51Zm0-6.83a2.73,2.73,0,1,0,2.74,2.72A2.81,2.81,0,0,0,102,157.68Z"/><path class="cls-1" d="M106.1,183.69a4.1,4.1,0,1,1-4.08-4.12A4,4,0,0,1,106.1,183.69Zm-1.36-.09a2.74,2.74,0,1,0-2.66,2.81A2.85,2.85,0,0,0,104.74,183.6Z"/><path class="cls-2" d="M104.74,137a2.74,2.74,0,1,1-2.84-2.63A2.89,2.89,0,0,1,104.74,137Z"/><path class="cls-2" d="M102,157.68a2.73,2.73,0,1,1,0,5.46,2.73,2.73,0,1,1,0-5.46Z"/><path class="cls-2" d="M104.74,183.6a2.74,2.74,0,1,1-2.81-2.65A2.87,2.87,0,0,1,104.74,183.6Z"/></g></g></svg>