<svg xmlns="http://www.w3.org/2000/svg" viewBox="0 0 298.21 258.85"><defs><style>.cls-1,.cls-2{fill-rule:evenodd;}.cls-2{fill:#fff;}</style></defs><title>top3</title><g id="Layer_2" data-name="Layer 2"><g id="圖層_1" data-name="圖層 1"><path class="cls-1" d="M44,258.83l-3.91-1.41-5.82-2.16c-2.38-.89-4.76-1.79-7.15-2.67-1.94-.71-3.9-1.39-5.85-2.08s-3.9-1.36-5.83-2.07c-2.4-.88-4.78-1.8-7.17-2.7s-5-1.92-7.51-2.77a.88.88,0,0,1-.7-1.11c.31-2.69.65-5.38,1-8.07.18-1.4.32-2.8.57-4.19.39-2.22.85-4.43,1.28-6.65.19-1,.37-2,.55-3,.51-2.8,1-5.6,1.54-8.39s1.21-5.84,1.89-8.75c.71-3.09,1.52-6.16,2.25-9.25.4-1.7.66-3.43,1.06-5.13.54-2.24,1.18-4.47,1.73-6.71.4-1.59.73-3.19,1.09-4.78s.71-3.18,1.1-4.76.86-3.12,1.28-4.68.9-3.43,1.33-5.15c.37-1.5.7-3,1.06-4.52s.73-3,1.12-4.51.84-3.21,1.27-4.82c.55-2.08,1.11-4.17,1.66-6.26.4-1.49.78-3,1.18-4.47.58-2.16,1.18-4.32,1.76-6.48.38-1.42.72-2.85,1.1-4.28.6-2.19,1.23-4.37,1.82-6.56.52-2,1-4,1.53-5.95s1.19-4.06,1.75-6.09c.4-1.42.71-2.86,1.1-4.29s.83-2.79,1.23-4.2.74-2.84,1.14-4.25c.59-2.07,1.22-4.13,1.79-6.2s1-4,1.56-6,1.2-3.88,1.77-5.83c.39-1.33.69-2.69,1.08-4,.57-2,1.18-4,1.76-6,.52-1.77,1-3.55,1.54-5.33.6-2.06,1.23-4.12,1.82-6.19.69-2.41,1.32-4.83,2-7.23.54-1.85,1.17-3.66,1.73-5.5s1-3.63,1.59-5.43c.72-2.34,1.48-4.67,2.22-7,.5-1.53,1.07-3,1.47-4.6.79-3,2.77-5.23,5-7.23a17.62,17.62,0,0,1,6.84-3.34c2.35-.72,4.68-1.49,7-2.23,1.69-.53,3.38-1,5.06-1.56,2.42-.76,4.82-1.55,7.24-2.29,1.76-.55,3.55-1,5.32-1.56,2.17-.66,4.32-1.36,6.48-2,1.9-.6,3.81-1.19,5.71-1.76,2.07-.62,4.13-1.22,6.21-1.79,1.42-.39,2.86-.69,4.28-1.08A41.43,41.43,0,0,0,118.18.22a3.17,3.17,0,0,1,4.27,2.61c.25,1.74.64,3.45,1,5.15.32,1.3,1.62,1.55,2.57,2.08,5.49,3,11,6,16.54,9,2.06,1.12,4.1,2.3,6.22,3.31a2.91,2.91,0,0,0,2.15,0c3.7-1.63,7.35-3.37,11-5.09,4.47-2.11,8.92-4.26,13.38-6.37,1.29-.6,2.61-1.13,3.88-1.76a1.57,1.57,0,0,0,.76-.9c.54-2.05,1-4.13,1.51-6.19.43-1.63,2.71-2.19,4.55-1.32,2.13,1,4.31,1.9,6.5,2.76s4.22,1.59,6.36,2.28,4.58,1.33,6.86,2,4.51,1.49,6.77,2.21c1.76.55,3.55,1,5.31,1.59,2.31.71,4.6,1.47,6.9,2.19,1.76.55,3.51,1.16,5.29,1.59,5.91,1.44,10.67,4.39,13.17,10.15a66.79,66.79,0,0,1,2,6.48c.74,2.34,1.54,4.65,2.25,7,.57,1.88,1,3.8,1.58,5.68.7,2.36,1.5,4.68,2.21,7,.57,1.89,1,3.8,1.58,5.69s1.08,3.69,1.62,5.54,1.13,3.92,1.71,5.87,1.14,3.82,1.69,5.73c.4,1.41.76,2.83,1.16,4.24s.84,2.79,1.23,4.19.75,2.76,1.14,4.14c.56,2,1.15,4,1.72,6,.38,1.34.74,2.67,1.12,4,.61,2.14,1.23,4.28,1.81,6.43.53,1.94,1,3.89,1.54,5.83s1.19,4.14,1.77,6.21c.38,1.38.7,2.78,1.08,4.16.43,1.59.92,3.17,1.33,4.77.54,2.06,1,4.14,1.55,6.2s1.17,4.07,1.73,6.12c.39,1.45.72,2.92,1.1,4.38s.91,3.19,1.32,4.79.71,3,1.07,4.52.74,3,1.13,4.51.83,3.22,1.26,4.82.85,3.13,1.25,4.7.73,3.08,1.12,4.62.87,3.28,1.28,4.93.71,3.18,1.1,4.76.86,3.37,1.27,5.06.73,3.17,1.1,4.76c.42,1.81.88,3.61,1.3,5.41.37,1.59.71,3.19,1.07,4.78.46,2,.94,4,1.36,6,.38,1.79.67,3.6,1.06,5.39s.87,3.77,1.3,5.66c.19.88.38,1.75.52,2.64.36,2.11.67,4.24,1.05,6.35.57,3.27,1.27,6.51,1.76,9.79.36,2.41.44,4.86.71,7.29.11,1.08-.84,1.09-1.35,1.28-3.72,1.39-7.5,2.64-11.24,4-4.31,1.56-8.6,3.17-12.9,4.74q-7.14,2.63-14.29,5.25c-1.31.48-2.61,1-4.13,1.61-.19-1-.35-1.71-.48-2.46-.31-1.85-.6-3.7-.89-5.55-.18-1.08-.35-2.16-.5-3.24-.35-2.56-.62-5.13-1-7.68-.53-3.23-1.2-6.44-1.78-9.66-.24-1.35-.33-2.73-.58-4.08-.4-2.25-.89-4.5-1.32-6.75-.19-1-.35-1.93-.52-2.89-.5-3-1-5.94-1.52-8.9-.6-3.25-1.25-6.49-1.91-9.74-.61-3.05-1.25-6.09-1.9-9.13-.61-2.85-1.22-5.69-1.88-8.53-.56-2.41-1.21-4.81-1.78-7.22-.39-1.67-.67-3.37-1.08-5-.54-2.25-1.2-4.47-1.76-6.71-.4-1.58-.67-3.18-1.08-4.76-.54-2.08-1.17-4.14-1.74-6.21-.38-1.38-.7-2.77-1.08-4.15-.58-2.08-1.2-4.14-1.79-6.22-.54-1.89-1-3.8-1.58-5.69-.5-1.73-1-3.45-1.58-5.16s-1.15-3.58-1.73-5.37q-.81-2.46-1.63-4.92a18.25,18.25,0,0,0-.77-2c-.11-.24-.45-.38-.88-.71,0,.77-.08,1.2-.08,1.64.05,7.85.05,15.7.16,23.55.1,7,.29,14,.47,21q.21,8.6.47,17.19c.14,4.62.31,9.24.48,13.86q.21,6,.47,12,.22,5,.48,9.93.23,4.26.47,8.51c.14,2.28.26,4.57.43,6.85.3,3.89.59,7.78.95,11.66.24,2.54.49,5.1,1,7.6.44,2.26,1.19,4.46,1.79,6.69a3.12,3.12,0,0,1,0,.69h-4.91c-9.6,0-19.19.07-28.79.07-5.35,0-10.7,0-16.06-.15-3.15-.07-6.31-.24-9.46-.49-2.7-.21-5.39-.58-8.08-.94a6.81,6.81,0,0,1-5.58-3.79c-1.83-3.46-4-6.71-6-10.09-.46-.78-.55-1-1.09-.05-2,3.42-4.22,6.7-6.05,10.19-1.36,2.59-3.46,3.44-6.09,3.79a127.15,127.15,0,0,1-15.1,1.08c-3.31.05-6.63.33-9.94.36-8.88.08-17.77.08-26.65.1-5,0-10,0-15.27,0a9.57,9.57,0,0,0,.59-1.5c.52-2.51,1.09-5,1.46-7.56.52-3.57.88-7.17,1.31-10.75,0-.16,0-.32.05-.48l.57-11q.25-4.6.49-9.22c.16-2.87.34-5.75.46-8.63.18-4.38.33-8.76.49-13.14.15-4.11.34-8.21.46-12.32.19-6.16.32-12.32.49-18.49.14-5.33.35-10.66.45-16q.28-15.13.49-30.28c0-.51,0-1-.06-1.55-1.34-.2-1.11,1-1.32,1.53-.87,2.16-1.56,4.4-2.28,6.61-.56,1.72-1.06,3.45-1.6,5.17-.59,1.9-1.22,3.79-1.79,5.7s-1,3.56-1.53,5.34c-.6,2.11-1.22,4.21-1.8,6.33-.38,1.37-.7,2.76-1.07,4.14-.59,2.24-1.21,4.46-1.78,6.7-.39,1.54-.7,3.1-1.08,4.64s-.87,3.27-1.27,4.92-.73,3.19-1.1,4.78c-.41,1.77-.85,3.54-1.26,5.31s-.74,3.42-1.12,5.12c-.43,2-.88,3.93-1.3,5.9-.38,1.79-.71,3.59-1.08,5.39-.42,2-.86,4-1.29,6-.2.92-.4,1.83-.56,2.75-.52,2.92-1,5.85-1.53,8.76s-1.23,5.8-1.77,8.71c-.42,2.23-.68,4.49-1.06,6.72s-.87,4.6-1.3,6.9c-.19,1-.38,2.08-.54,3.12-.35,2.44-.64,4.89-1,7.32s-.89,4.91-1.29,7.37c-.25,1.51-.39,3-.59,4.56C44.27,257,44.13,257.77,44,258.83Zm-1.1-1.95c.23-1.82.41-3.34.61-4.85.16-1.24.33-2.48.52-3.72.28-1.77.59-3.54.88-5.31.19-1.24.33-2.49.55-3.72.41-2.26.91-4.51,1.3-6.78s.68-4.56,1-6.85c.16-1,.33-2.08.53-3.12.43-2.14.92-4.27,1.32-6.41s.63-4.25,1-6.36c.55-2.82,1.24-5.62,1.8-8.44.4-2,.67-4,1.06-6,.59-3,1.24-5.94,1.88-8.9.18-.88.39-1.75.58-2.62.43-1.85.87-3.7,1.28-5.55s.72-3.42,1.11-5.13.86-3.44,1.27-5.16.74-3.26,1.14-4.89.84-3.12,1.23-4.69.71-3,1.09-4.52.88-3.21,1.31-4.81c.37-1.38.72-2.77,1.1-4.14s.86-2.95,1.28-4.43.71-2.68,1.11-4c.55-1.83,1.17-3.65,1.73-5.48.68-2.19,1.29-4.42,2-6.6.86-2.62,1.85-5.19,2.71-7.81.49-1.47,1.11-2,2.64-1.76,1.33.17,1.25,1.18,1.24,2.13l-.39,20.76c-.16,7.91-.3,15.83-.49,23.74-.12,5.41-.3,10.82-.47,16.23-.15,5.06-.3,10.11-.48,15.16-.13,4-.3,8-.47,12-.15,3.71-.3,7.41-.48,11.12-.14,2.76-.3,5.51-.47,8.27-.18,2.91-.36,5.83-.56,8.74-.12,1.73-.25,3.45-.41,5.17-.32,3.37-.63,6.74-1,10.1-.29,2.48-.73,4.95-1.09,7.38,4.49.17,9.07.47,13.65.47,6.52,0,13-.16,19.57-.3,6.24-.13,12.48-.36,18.73-.46a71.37,71.37,0,0,0,14.28-1.42,3.33,3.33,0,0,0,2.45-1.65c2.19-3.77,4.49-7.48,6.69-11.25.7-1.21,1.73-2.49,1.78-3.77.29-7.38.34-14.76.46-22.15.05-2.89.06-5.78.09-8.68q.19-14,.39-28c0-4.52,0-9,.1-13.56.1-7.62.34-15.24.34-22.86,0-3.88.54-7.81-.38-11.66a28.51,28.51,0,0,0-1.35-4.23c-.71-1.71-1.58-3.36-2.4-5q-3.74-7.64-7.47-15.27c-2.1-4.28-4.24-8.54-6.33-12.82-2.47-5.06-4.9-10.14-7.36-15.2q-3.27-6.73-6.59-13.44c-2.92-5.88-5.88-11.74-8.79-17.63-.31-.62-.72-1.5-.51-2,.87-2.22,2-4.35,3-6.52,1.2-2.63,2.38-5.27,3.63-8.06H97.5c1.88-8,3.72-15.84,5.63-24-2.33.67-4.33,1.2-6.29,1.81-2.78.87-5.53,1.83-8.31,2.7-2.28.71-4.58,1.32-6.86,2-2.77.87-5.53,1.82-8.3,2.72-3,1-5.94,1.82-8.87,2.85a12.91,12.91,0,0,0-7.77,7.28c-.63,1.42-1,3-1.54,4.43-.75,2.21-1.51,4.42-2.2,6.65-.58,1.88-1,3.8-1.59,5.69s-1.19,3.89-1.79,5.83-1.17,3.65-1.72,5.49-1.08,3.7-1.6,5.56-1,3.8-1.56,5.7-1.2,4-1.78,6-1.05,3.72-1.58,5.58-1.17,4-1.74,6c-.4,1.42-.76,2.85-1.17,4.26-.54,1.92-1.14,3.83-1.68,5.75-.4,1.42-.71,2.85-1.11,4.27-.56,2-1.17,4.06-1.75,6.09-.44,1.52-.91,3-1.32,4.56s-.72,2.85-1.08,4.27-.72,2.77-1.09,4.15-.87,3-1.28,4.54-.72,2.77-1.09,4.15c-.58,2.16-1.19,4.31-1.77,6.46-.38,1.46-.72,2.92-1.1,4.37s-.87,3-1.27,4.58-.7,2.93-1.08,4.39-.89,3.2-1.31,4.8-.73,2.93-1.11,4.39-.85,3.21-1.26,4.82-.73,3-1.12,4.51-.86,3.2-1.26,4.81-.69,3.1-1.08,4.64c-.56,2.24-1.21,4.46-1.76,6.71s-1,4.55-1.53,6.81-1.23,4.72-1.78,7.1-1,4.87-1.55,7.3S7.84,205,7.31,207.45c-.57,2.66-1,5.35-1.54,8S4.5,220.92,4,223.67c-.6,3.35-1,6.73-1.55,10.1-.19,1.24-.36,2.48-.53,3.72-.19,1.43-.37,2.86-.54,4.2Zm254-15.2-.63-5.23c-.19-1.52-.36-3-.57-4.56-.14-1-.34-2.08-.54-3.12-.42-2.18-.87-4.35-1.27-6.54-.37-2-.66-4-1.06-6s-.9-4.18-1.35-6.27c-.21-1-.4-2-.63-3-.41-1.81-.85-3.63-1.25-5.45s-.7-3.43-1.09-5.14-.87-3.53-1.29-5.3-.73-3.34-1.12-5-.86-3.45-1.28-5.18c-.37-1.51-.7-3-1.08-4.53-.41-1.68-.87-3.36-1.29-5s-.73-3.09-1.12-4.62-.85-3.13-1.24-4.7-.69-3.1-1.09-4.64c-.56-2.16-1.2-4.3-1.76-6.47s-1-4.22-1.55-6.33c-.58-2.27-1.21-4.54-1.82-6.81-.37-1.38-.71-2.77-1.08-4.15-.42-1.53-.86-3-1.28-4.57s-.83-3.06-1.24-4.58-.77-2.84-1.14-4.26-.7-2.85-1.09-4.26c-.57-2-1.19-4.07-1.75-6.11s-1-4-1.58-6-1.2-3.89-1.74-5.86-1-4.06-1.56-6.06c-.7-2.48-1.51-4.92-2.23-7.39-.82-2.78-1.61-5.56-2.38-8.36-1-3.61-1.93-7.24-3-10.83-.85-3-1.85-5.94-2.73-8.93-1-3.51-1.94-7.06-3-10.57s-2.16-6.81-3.23-10.22c-1-3.11-1.82-6.26-2.93-9.33a13.56,13.56,0,0,0-5.31-6.64c-3-2.05-6.61-2.61-10-3.76-2.21-.76-4.5-1.32-6.73-2-3.73-1.19-7.43-2.44-11.15-3.64q-4.48-1.45-9-2.83c-.94-.28-1.91-.46-3.1-.74,1.86,8,3.67,15.65,5.52,23.55H183.69a4.71,4.71,0,0,1,.48.66c2,4.27,3.9,8.54,5.81,12.82a3.12,3.12,0,0,1,.42,2c-.55,1.53-1.36,3-2.05,4.46l-3.56,7.77c-1.37,3-2.75,6-4.11,8.93-1.17,2.55-2.34,5.12-3.5,7.68-1.33,3-2.64,5.93-4,8.88-2,4.32-4,8.61-6,12.93-1.51,3.29-3,6.61-4.48,9.91-1.36,3-2.74,5.92-4.12,8.89-1.68,3.62-3.37,7.23-5,10.86-.61,1.36-1.52,2.77-1.56,4.17-.27,8.93-.33,17.87-.46,26.8l-.09,5.11-.39,29.18c0,2.54-.05,5.07-.09,7.61q-.18,14.17-.38,28.34c-.05,3.85,0,7.69-.12,11.53a4.12,4.12,0,0,0,.48,2.5c1.83,3,3.57,6,5.33,9,1.15,2,2.33,3.84,4.93,4.1s5.45.66,8.19.92q3.41.3,6.83.41c6.65.19,13.29.44,19.94.46,8,0,16.06-.2,24.1-.3,2.05,0,4.11,0,6.18,0-.42-2-.88-3.91-1.17-5.82q-.59-4-1-7.95c-.37-3.92-.66-7.85-1-11.77-.19-2.52-.33-5-.48-7.56q-.26-4.49-.47-9c-.18-3.51-.33-7-.48-10.53q-.25-6.21-.48-12.42-.25-7.41-.47-14.81-.25-8.84-.48-17.66c-.17-7.48-.36-15-.46-22.43-.09-6.34-.06-12.69-.08-19,0-.83-.07-1.7,1-2a2.23,2.23,0,0,1,2.68,1.08c.74,2,1.37,4.08,2,6.13q.84,2.56,1.67,5.13t1.66,5.38c.58,1.87,1.17,3.73,1.72,5.61s1.09,3.77,1.6,5.66,1,4,1.56,6.06c.58,2.21,1.2,4.4,1.77,6.61.38,1.46.7,2.94,1.06,4.4.44,1.76.91,3.52,1.33,5.28.38,1.55.71,3.1,1.08,4.65.42,1.8.89,3.59,1.3,5.4s.68,3.35,1.06,5,.9,3.53,1.28,5.31.69,3.84,1.07,5.75c.43,2.21.92,4.41,1.38,6.62.19,1,.36,1.92.56,2.87.43,2,.91,4.1,1.3,6.16s.67,4.09,1.06,6.12.92,4.11,1.29,6.17c.4,2.27.69,4.56,1.05,6.84.16,1,.35,2,.53,3,.44,2.46.9,4.91,1.31,7.38.23,1.35.34,2.72.57,4.07.41,2.38.92,4.75,1.29,7.14.41,2.63.7,5.27,1.09,8.2ZM146.92,118.94h.19a8.66,8.66,0,0,0,0-1.69c-.24-1.26-.59-2.49-.87-3.74-.36-1.55-.69-3.11-1.05-4.66-.43-1.84-.89-3.68-1.31-5.52-.39-1.67-.71-3.34-1.1-5s-.87-3.44-1.27-5.17-.69-3.44-1.07-5.15c-.42-1.89-.9-3.76-1.33-5.65-.36-1.59-.68-3.19-1.05-4.78-.43-1.88-.9-3.76-1.33-5.64-.37-1.63-.69-3.27-1.07-4.9s-.89-3.44-1.28-5.18-.7-3.42-1.09-5.12-.89-3.53-1.29-5.3-.69-3.42-1.07-5.12c-.59-2.65-1.21-5.29-1.83-7.93-.21-.91-.41-1.82-.63-2.73-.41-1.73-.85-3.45-1.24-5.19s-.68-3.43-1.08-5.13c-.55-2.37-1.21-4.72-1.75-7.1s-1-4.86-1.53-7.28c-.6-2.69-1.24-5.37-1.86-8a1.71,1.71,0,0,0-2.31-1.27c-1.49.5-3,.94-4.53,1.35s-2.85.69-4.27,1.08c-1.63.45-3.24,1-5.12,1.52q-2.67,11.33-5.45,23.17h18.78c-.49,1-.92,1.9-1.32,2.78-1.89,4.13-3.79,8.25-5.61,12.41-.19.44-.62.88-.24,1.62,1.48,2.86,2.78,5.81,4.2,8.71,2.1,4.27,4.25,8.51,6.35,12.77,2.5,5.1,5,10.21,7.45,15.31,2.1,4.26,4.25,8.5,6.35,12.77,2.5,5.09,5,10.21,7.45,15.31C144.11,113.27,145.52,116.1,146.92,118.94Zm6,4.34.36.07c.56-1.34,1.08-2.7,1.69-4,2.65-5.78,5.33-11.54,8-17.31,1.65-3.6,3.25-7.23,4.9-10.83,1.83-4,3.72-7.92,5.54-11.9,1.67-3.64,3.27-7.3,4.93-10.94,1.35-2.93,2.76-5.83,4.11-8.75q3.08-6.64,6.09-13.3a2.66,2.66,0,0,0,.34-1.44,10,10,0,0,0-.83-2c-2.13-4.66-4.27-9.31-6.49-14.16h18.63c-.1-.77-.12-1.41-.26-2-.4-1.77-.86-3.52-1.28-5.29-.37-1.59-.68-3.19-1.06-4.77s-.89-3.36-1.29-5-.67-3.27-1.07-4.89a1.39,1.39,0,0,0-.72-.82q-5-2.12-10.06-4.15c-.16-.07-.41.05-.61.13-1.26.52-1.07,1.78-1.35,2.76-.44,1.53-.74,3.1-1.13,4.64s-.86,3.31-1.27,5c-.37,1.5-.71,3-1.09,4.53-.42,1.69-.87,3.38-1.29,5.08-.37,1.47-.7,2.94-1.07,4.41-.43,1.7-.88,3.38-1.31,5.08-.38,1.5-.74,3-1.12,4.52s-.85,3.23-1.25,4.85-.73,3.1-1.12,4.64-.85,3.31-1.27,5-.71,3-1.09,4.54c-.42,1.69-.87,3.38-1.29,5.07-.37,1.47-.7,3-1.07,4.42-.42,1.62-.89,3.22-1.29,4.84s-.7,3.11-1.07,4.66c-.43,1.76-.9,3.52-1.33,5.28-.38,1.5-.72,3-1.1,4.52s-.87,3.19-1.27,4.8-.68,3.1-1.08,4.64c-.56,2.21-1.2,4.39-1.76,6.59-.4,1.58-.67,3.19-1.07,4.77-.56,2.2-1.2,4.38-1.78,6.58q-1,3.65-1.85,7.3C153.22,121.27,153.07,122.28,152.88,123.28Zm3.47-76h-10c-.18.92-.41,1.76-.49,2.62-.22,2.27-.36,4.55-.56,6.83-.15,1.6-.31,3.21-.51,4.81-.42,3.46-.92,6.92-1.3,10.39-.26,2.35-.38,4.72-.57,7.07,0,.16,0,.32-.06.48-.27,3-1.27,6-.84,9,.25,1.73.68,3.43,1.07,5.14s.88,3.44,1.28,5.16.7,3.43,1.08,5.13c.42,1.89.89,3.78,1.33,5.66.37,1.63.71,3.27,1.09,4.89s.87,3.37,1.25,5.07.67,3.42,1.05,5.12c.06.25.39.45.66.73.26-1.08.49-1.94.69-2.81.36-1.55.7-3.1,1.08-4.64s.89-3.35,1.31-5c.38-1.5.71-3,1.08-4.51.42-1.69.88-3.37,1.29-5s.73-3.1,1.12-4.63.84-3.21,1.26-4.81.92-3.26,1.27-4.92a32,32,0,0,0,.55-4c0-.48-.29-1-.35-1.48-.33-3-.64-5.94-1-8.91s-.62-5.86-.94-8.79-.66-6-1-9S156.64,50.51,156.35,47.32Zm22.92-36.14-.33-.24c-.71.28-1.43.52-2.11.85-3.8,1.8-7.59,3.64-11.39,5.45-4.34,2.05-8.69,4.06-13,6.13-1.2.57-1.19.64-.17,1.51,1.76,1.5,3.55,3,5.29,4.49,4,3.52,8,7.05,12,10.63.31.27.31.89.46,1.35-.47-.08-1.07,0-1.39-.27-1.91-1.56-3.75-3.2-5.62-4.81-.24-.2-.51-.37-.81-.59-1.21,2.88-2.41,5.59-3.47,8.35-.56,1.45-1.28,2.87-.94,4.58.41,2,.61,4,.83,6,.24,2.31.38,4.64.59,7,.14,1.53.31,3,.49,4.57.27,2.18.6,4.35.83,6.54s.35,4.39.59,6.58a15.54,15.54,0,0,0,.61,2.29C167.6,58,173.43,34.56,179.27,11.18Zm-55-.38c.11.75.14,1.14.23,1.51.25,1.06.56,2.1.79,3.15.37,1.67.68,3.35,1.06,5,.43,1.93.9,3.84,1.34,5.77.37,1.58.71,3.18,1.08,4.77.42,1.8.87,3.61,1.28,5.42s.71,3.33,1.09,5c.42,1.85.88,3.69,1.3,5.54.38,1.63.71,3.27,1.09,4.89.41,1.81.87,3.61,1.28,5.41s.7,3.36,1.08,5c.42,1.84.89,3.67,1.31,5.51.37,1.63.7,3.27,1.07,4.9.43,1.85.88,3.7,1.32,5.54.35,1.48.71,3,1.06,4.43a8,8,0,0,0,.43-2.32c.42-3.54.91-7.08,1.3-10.63.25-2.27.36-4.56.57-6.83.14-1.61.33-3.21.51-4.81.29-2.53.58-5.07.89-7.6.07-.58.25-1.15.27-1.73a6.32,6.32,0,0,0-.15-2.47c-.9-2.24-2-4.4-3-6.58-.64-1.35-1.34-2.66-1.85-3.66-1.83,1.67-3.61,3.29-5.36,4.92-.89.84-1.08.83-1.8-.25.28-.35.54-.73.86-1.06q7-7.35,14.13-14.69c1.09-1.13,1.06-1.27-.38-2-1.67-.82-3.33-1.66-5-2.55-4.77-2.61-9.53-5.25-14.3-7.86C126.73,12,125.64,11.49,124.27,10.8Zm26.92,35h3.45c2,0,1.87,0,2.57-1.86,1-2.63,2.1-5.22,3.2-7.81.45-1.05.62-1.93-.51-2.71a32.28,32.28,0,0,1-2.69-2.27c-2.22-2-4.45-3.9-6.65-5.88-.39-.35-.58-.63-1.1-.09-2.83,2.94-5.72,5.83-8.56,8.77a1,1,0,0,0-.13.94c1.49,3.23,3,6.42,4.55,9.64a1.83,1.83,0,0,0,2.07,1.3A34.37,34.37,0,0,1,151.19,45.84Z"/><path class="cls-2" d="M42.86,256.88,1.39,241.69c.17-1.34.35-2.77.54-4.2.17-1.24.34-2.48.53-3.72.5-3.37,1-6.75,1.55-10.1.49-2.75,1.2-5.46,1.76-8.21s1-5.35,1.54-8c.53-2.47,1.22-4.89,1.77-7.35s1-4.88,1.55-7.3,1.21-4.73,1.78-7.1,1-4.55,1.53-6.81,1.2-4.47,1.76-6.71c.39-1.54.7-3.1,1.08-4.64s.85-3.21,1.26-4.81.73-3,1.12-4.51S20,155,20.42,153.4s.73-2.93,1.11-4.39.89-3.19,1.31-4.8.69-2.93,1.08-4.39.86-3,1.27-4.58.72-2.91,1.1-4.37c.58-2.15,1.19-4.3,1.77-6.46.37-1.38.71-2.77,1.09-4.15s.86-3,1.28-4.54.73-2.77,1.09-4.15.69-2.85,1.08-4.27.88-3,1.32-4.56c.58-2,1.19-4,1.75-6.09.4-1.42.71-2.85,1.11-4.27.54-1.92,1.14-3.83,1.68-5.75.41-1.41.77-2.84,1.17-4.26.57-2,1.17-4,1.74-6s1-3.72,1.58-5.58,1.21-4,1.78-6,1-3.8,1.56-5.7,1.05-3.71,1.6-5.56S49,49.9,49.61,48.07s1.21-3.88,1.79-5.83,1-3.81,1.59-5.69c.69-2.23,1.45-4.44,2.2-6.65.5-1.48.91-3,1.54-4.43a12.91,12.91,0,0,1,7.77-7.28c2.93-1,5.92-1.89,8.87-2.85,2.77-.9,5.53-1.85,8.3-2.72,2.28-.71,4.58-1.32,6.86-2,2.78-.87,5.53-1.83,8.31-2.7,2-.61,4-1.14,6.29-1.81-1.91,8.17-3.75,16-5.63,24h18.33c-1.25,2.79-2.43,5.43-3.63,8.06-1,2.17-2.11,4.3-3,6.52-.21.53.2,1.41.51,2,2.91,5.89,5.87,11.75,8.79,17.63q3.33,6.7,6.59,13.44c2.46,5.06,4.89,10.14,7.36,15.2,2.09,4.28,4.23,8.54,6.33,12.82q3.75,7.62,7.47,15.27c.82,1.67,1.69,3.32,2.4,5a28.51,28.51,0,0,1,1.35,4.23c.92,3.85.38,7.78.38,11.66,0,7.62-.24,15.24-.34,22.86-.07,4.52-.05,9-.1,13.56q-.18,14-.39,28c0,2.9,0,5.79-.09,8.68-.12,7.39-.17,14.77-.46,22.15-.05,1.28-1.08,2.56-1.78,3.77-2.2,3.77-4.5,7.48-6.69,11.25a3.33,3.33,0,0,1-2.45,1.65,71.37,71.37,0,0,1-14.28,1.42c-6.25.1-12.49.33-18.73.46-6.53.14-13,.32-19.57.3-4.58,0-9.16-.3-13.65-.47.36-2.43.8-4.9,1.09-7.38.4-3.36.71-6.73,1-10.1.16-1.72.29-3.44.41-5.17.2-2.91.38-5.83.56-8.74.17-2.76.33-5.51.47-8.27.18-3.71.33-7.41.48-11.12.17-4,.34-8,.47-12,.18-5,.33-10.1.48-15.16.17-5.41.35-10.82.47-16.23.19-7.91.33-15.83.49-23.74L78.21,117c0-.95.09-2-1.24-2.13-1.53-.2-2.15.29-2.64,1.76-.86,2.62-1.85,5.19-2.71,7.81-.73,2.18-1.34,4.41-2,6.6-.56,1.83-1.18,3.65-1.73,5.48-.4,1.33-.73,2.68-1.11,4s-.87,2.95-1.28,4.43-.73,2.76-1.1,4.14c-.43,1.6-.89,3.2-1.31,4.81s-.71,3-1.09,4.52-.84,3.12-1.23,4.69S60,166.34,59.61,168s-.87,3.44-1.27,5.16-.73,3.42-1.11,5.13-.85,3.7-1.28,5.55c-.19.87-.4,1.74-.58,2.62-.64,3-1.29,5.92-1.88,8.9-.39,2-.66,4-1.06,6-.56,2.82-1.25,5.62-1.8,8.44-.41,2.11-.65,4.25-1,6.36s-.89,4.27-1.32,6.41c-.2,1-.37,2.08-.53,3.12-.34,2.29-.63,4.58-1,6.85s-.89,4.52-1.3,6.78c-.22,1.23-.36,2.48-.55,3.72-.29,1.77-.6,3.54-.88,5.31-.19,1.24-.36,2.48-.52,3.72C43.27,253.54,43.09,255.06,42.86,256.88Zm96.24-99.65c-.35,1.92,2.22,4.35,4.31,4.33a4.36,4.36,0,1,0-.06-8.71C141.41,152.87,138.74,155.18,139.1,157.23Zm0,24.15a4.28,4.28,0,1,0,4.38-4.18A4.24,4.24,0,0,0,139.1,181.38Zm8.56,24.42a4.4,4.4,0,0,0-4.24-4.36c-2.1-.16-4.37,2.36-4.39,4.27,0,2.09,2.39,4.38,4.31,4.4C145.45,210.13,148,207.72,147.66,205.8Z"/><path class="cls-2" d="M296.81,241.68l-41.49,15.2c-.39-2.93-.68-5.57-1.09-8.2-.37-2.39-.88-4.76-1.29-7.14-.23-1.35-.34-2.72-.57-4.07-.41-2.47-.87-4.92-1.31-7.38-.18-1-.37-2-.53-3-.36-2.28-.65-4.57-1.05-6.84-.37-2.06-.9-4.11-1.29-6.17s-.67-4.09-1.06-6.12-.87-4.11-1.3-6.16c-.2-1-.37-1.91-.56-2.87-.46-2.21-1-4.41-1.38-6.62-.38-1.91-.67-3.84-1.07-5.75s-.88-3.53-1.28-5.31-.69-3.34-1.06-5-.88-3.6-1.3-5.4c-.37-1.55-.7-3.1-1.08-4.65-.42-1.76-.89-3.52-1.33-5.28-.36-1.46-.68-2.94-1.06-4.4-.57-2.21-1.19-4.4-1.77-6.61-.53-2-1-4-1.56-6.06s-1-3.78-1.6-5.66-1.14-3.74-1.72-5.61-1.1-3.59-1.66-5.38-1.11-3.42-1.67-5.13c-.67-2-1.3-4.11-2-6.13a2.23,2.23,0,0,0-2.68-1.08c-1.1.26-1,1.13-1,2,0,6.34,0,12.69.08,19,.1,7.48.29,14.95.46,22.43q.21,8.83.48,17.66.21,7.41.47,14.81.22,6.21.48,12.42c.15,3.51.3,7,.48,10.53q.21,4.49.47,9c.15,2.52.29,5,.48,7.56.3,3.92.59,7.85,1,11.77q.38,4,1,7.95c.29,1.91.75,3.78,1.17,5.82-2.07,0-4.13,0-6.18,0-8,.1-16.07.31-24.1.3-6.65,0-13.29-.27-19.94-.46q-3.42-.11-6.83-.41c-2.74-.26-5.46-.65-8.19-.92s-3.78-2.13-4.93-4.1c-1.76-3-3.5-6.05-5.33-9a4.12,4.12,0,0,1-.48-2.5c.1-3.84.07-7.68.12-11.53q.18-14.18.38-28.34c0-2.54.06-5.07.09-7.61l.39-29.18.09-5.11c.13-8.93.19-17.87.46-26.8,0-1.4.95-2.81,1.56-4.17,1.65-3.63,3.34-7.24,5-10.86,1.38-3,2.76-5.92,4.12-8.89,1.51-3.3,3-6.62,4.48-9.91,2-4.32,4-8.61,6-12.93,1.35-2.95,2.66-5.92,4-8.88,1.16-2.56,2.33-5.13,3.5-7.68,1.36-3,2.74-6,4.11-8.93l3.56-7.77c.69-1.49,1.5-2.93,2.05-4.46a3.12,3.12,0,0,0-.42-2c-1.91-4.28-3.86-8.55-5.81-12.82a4.71,4.71,0,0,0-.48-.66h18.43c-1.85-7.9-3.66-15.59-5.52-23.55,1.19.28,2.16.46,3.1.74q4.52,1.38,9,2.83c3.72,1.2,7.42,2.45,11.15,3.64,2.23.71,4.52,1.27,6.73,2,3.36,1.15,6.94,1.71,10,3.76a13.56,13.56,0,0,1,5.31,6.64c1.11,3.07,2,6.22,2.93,9.33C245.86,39,247,42.39,248,45.81s2,7.06,3,10.57c.88,3,1.88,5.94,2.73,8.93,1,3.59,2,7.22,3,10.83.77,2.8,1.56,5.58,2.38,8.36.72,2.47,1.53,4.91,2.23,7.39.57,2,1,4,1.56,6.06s1.2,3.9,1.74,5.86,1,4,1.58,6,1.18,4.07,1.75,6.11c.39,1.41.72,2.84,1.09,4.26s.76,2.84,1.14,4.26.82,3,1.24,4.58.86,3,1.28,4.57c.37,1.38.71,2.77,1.08,4.15.61,2.27,1.24,4.54,1.82,6.81.54,2.11,1,4.23,1.55,6.33s1.2,4.31,1.76,6.47c.4,1.54.71,3.1,1.09,4.64s.84,3.13,1.24,4.7.74,3.08,1.12,4.62.88,3.36,1.29,5c.38,1.5.71,3,1.08,4.53.42,1.73.87,3.45,1.28,5.18s.73,3.35,1.12,5,.89,3.53,1.29,5.3.71,3.43,1.09,5.14.84,3.64,1.25,5.45c.23,1,.42,2,.63,3,.45,2.09.94,4.17,1.35,6.27s.69,4,1.06,6c.4,2.19.85,4.36,1.27,6.54.2,1,.4,2.08.54,3.12.21,1.52.38,3,.57,4.56Z"/><path class="cls-2" d="M146.92,118.94c-1.4-2.84-2.81-5.67-4.2-8.51-2.49-5.1-4.95-10.22-7.45-15.31-2.1-4.27-4.25-8.51-6.35-12.77-2.5-5.1-4.95-10.21-7.45-15.31-2.1-4.26-4.25-8.5-6.35-12.77-1.42-2.9-2.72-5.85-4.2-8.71-.38-.74,0-1.18.24-1.62,1.82-4.16,3.72-8.28,5.61-12.41.4-.88.83-1.75,1.32-2.78H99.31q2.79-11.85,5.45-23.17c1.88-.56,3.49-1.07,5.12-1.52,1.42-.39,2.86-.69,4.27-1.08s3-.85,4.53-1.35A1.71,1.71,0,0,1,121,2.9c.62,2.68,1.26,5.36,1.86,8,.53,2.42,1,4.86,1.53,7.28s1.2,4.73,1.75,7.1c.4,1.7.7,3.42,1.08,5.13s.83,3.46,1.24,5.19c.22.91.42,1.82.63,2.73.62,2.64,1.24,5.28,1.83,7.93.38,1.7.68,3.42,1.07,5.12s.89,3.52,1.29,5.3.69,3.42,1.09,5.12.87,3.45,1.28,5.18.7,3.27,1.07,4.9c.43,1.88.9,3.76,1.33,5.64.37,1.59.69,3.19,1.05,4.78.43,1.89.91,3.76,1.33,5.65.38,1.71.69,3.44,1.07,5.15s.87,3.44,1.27,5.17.71,3.34,1.1,5c.42,1.84.88,3.68,1.31,5.52.36,1.55.69,3.11,1.05,4.66.28,1.25.63,2.48.87,3.74a8.66,8.66,0,0,1,0,1.69Z"/><path class="cls-2" d="M152.88,123.28c.19-1,.34-2,.58-3q.89-3.66,1.85-7.3c.58-2.2,1.22-4.38,1.78-6.58.4-1.58.67-3.19,1.07-4.77.56-2.2,1.2-4.38,1.76-6.59.4-1.54.7-3.1,1.08-4.64s.86-3.2,1.27-4.8.72-3,1.1-4.52c.43-1.76.9-3.52,1.33-5.28.37-1.55.68-3.12,1.07-4.66s.87-3.22,1.29-4.84c.37-1.47.7-3,1.07-4.42.42-1.69.87-3.38,1.29-5.07.38-1.51.72-3,1.09-4.54s.86-3.3,1.27-5,.73-3.1,1.12-4.64.84-3.24,1.25-4.85.74-3,1.12-4.52c.43-1.7.88-3.38,1.31-5.08.37-1.47.7-2.94,1.07-4.41.42-1.7.87-3.39,1.29-5.08.38-1.51.72-3,1.09-4.53.41-1.66.86-3.31,1.27-5s.69-3.11,1.13-4.64c.28-1,.09-2.24,1.35-2.76.2-.08.45-.2.61-.13q5.06,2,10.06,4.15a1.39,1.39,0,0,1,.72.82c.4,1.62.69,3.26,1.07,4.89s.88,3.35,1.29,5,.69,3.18,1.06,4.77c.42,1.77.88,3.52,1.28,5.29.14.61.16,1.25.26,2H181.5c2.22,4.85,4.36,9.5,6.49,14.16a10,10,0,0,1,.83,2,2.66,2.66,0,0,1-.34,1.44q-3,6.66-6.09,13.3c-1.35,2.92-2.76,5.82-4.11,8.75-1.66,3.64-3.26,7.3-4.93,10.94-1.82,4-3.71,7.93-5.54,11.9-1.65,3.6-3.25,7.23-4.9,10.83-2.65,5.77-5.33,11.53-8,17.31-.61,1.31-1.13,2.67-1.69,4Z"/><path class="cls-2" d="M156.35,47.32c.29,3.19.56,6.32.87,9.45s.64,6,1,9,.63,5.86.94,8.79.63,5.94,1,8.91c.06.5.39,1,.35,1.48a32,32,0,0,1-.55,4c-.35,1.66-.84,3.28-1.27,4.92s-.86,3.2-1.26,4.81-.73,3.09-1.12,4.63-.87,3.36-1.29,5c-.37,1.5-.7,3-1.08,4.51-.42,1.69-.9,3.36-1.31,5s-.72,3.09-1.08,4.64c-.2.87-.43,1.73-.69,2.81-.27-.28-.6-.48-.66-.73-.38-1.7-.67-3.42-1.05-5.12s-.85-3.38-1.25-5.07-.72-3.26-1.09-4.89c-.44-1.88-.91-3.77-1.33-5.66-.38-1.7-.69-3.42-1.08-5.13s-.88-3.43-1.28-5.16-.82-3.41-1.07-5.14c-.43-3,.57-6,.84-9,0-.16.05-.32.06-.48.19-2.35.31-4.72.57-7.07.38-3.47.88-6.93,1.3-10.39.2-1.6.36-3.21.51-4.81.2-2.28.34-4.56.56-6.83.08-.86.31-1.7.49-2.62Z"/><path class="cls-2" d="M179.27,11.18C173.43,34.56,167.6,58,161.7,81.59a15.54,15.54,0,0,1-.61-2.29c-.24-2.19-.36-4.39-.59-6.58s-.56-4.36-.83-6.54c-.18-1.52-.35-3-.49-4.57-.21-2.31-.35-4.64-.59-7-.22-2-.42-4.06-.83-6-.34-1.71.38-3.13.94-4.58,1.06-2.76,2.26-5.47,3.47-8.35.3.22.57.39.81.59,1.87,1.61,3.71,3.25,5.62,4.81.32.26.92.19,1.39.27-.15-.46-.15-1.08-.46-1.35-4-3.58-8-7.11-12-10.63-1.74-1.53-3.53-3-5.29-4.49-1-.87-1-.94.17-1.51,4.33-2.07,8.68-4.08,13-6.13,3.8-1.81,7.59-3.65,11.39-5.45.68-.33,1.4-.57,2.11-.85Z"/><path class="cls-2" d="M124.27,10.8c1.37.69,2.46,1.2,3.51,1.78,4.77,2.61,9.53,5.25,14.3,7.86,1.64.89,3.3,1.73,5,2.55,1.44.72,1.47.86.38,2q-7.08,7.33-14.13,14.69c-.32.33-.58.71-.86,1.06.72,1.08.91,1.09,1.8.25,1.75-1.63,3.53-3.25,5.36-4.92.51,1,1.21,2.31,1.85,3.66,1,2.18,2.12,4.34,3,6.58a6.32,6.32,0,0,1,.15,2.47c0,.58-.2,1.15-.27,1.73-.31,2.53-.6,5.07-.89,7.6-.18,1.6-.37,3.2-.51,4.81-.21,2.27-.32,4.56-.57,6.83-.39,3.55-.88,7.09-1.3,10.63a8,8,0,0,1-.43,2.32c-.35-1.47-.71-3-1.06-4.43-.44-1.84-.89-3.69-1.32-5.54-.37-1.63-.7-3.27-1.07-4.9-.42-1.84-.89-3.67-1.31-5.51-.38-1.67-.7-3.36-1.08-5s-.87-3.6-1.28-5.41c-.38-1.62-.71-3.26-1.09-4.89-.42-1.85-.88-3.69-1.3-5.54-.38-1.67-.71-3.34-1.09-5s-.86-3.62-1.28-5.42c-.37-1.59-.71-3.19-1.08-4.77-.44-1.93-.91-3.84-1.34-5.77-.38-1.67-.69-3.35-1.06-5-.23-1.05-.54-2.09-.79-3.15C124.41,11.94,124.38,11.55,124.27,10.8Z"/><path class="cls-2" d="M151.19,45.84a34.37,34.37,0,0,0-3.8,0,1.83,1.83,0,0,1-2.07-1.3c-1.51-3.22-3.06-6.41-4.55-9.64a1,1,0,0,1,.13-.94c2.84-2.94,5.73-5.83,8.56-8.77.52-.54.71-.26,1.1.09,2.2,2,4.43,3.93,6.65,5.88a32.28,32.28,0,0,0,2.69,2.27c1.13.78,1,1.66.51,2.71-1.1,2.59-2.21,5.18-3.2,7.81-.7,1.83-.62,1.86-2.57,1.86Z"/><path class="cls-1" d="M139.1,157.23c-.36-2,2.31-4.36,4.25-4.38a4.36,4.36,0,1,1,.06,8.71C141.32,161.58,138.75,159.15,139.1,157.23Zm4.29,2.84a3,3,0,0,0,2.86-2.87,2.87,2.87,0,1,0-5.73,0A3,3,0,0,0,143.39,160.07Z"/><path class="cls-1" d="M139.1,181.38a4.28,4.28,0,1,1,4.18,4.38A4.24,4.24,0,0,1,139.1,181.38Zm4.24,3a3,3,0,0,0,2.91-2.81,2.87,2.87,0,0,0-5.73-.09A3,3,0,0,0,143.34,184.34Z"/><path class="cls-1" d="M147.66,205.8c.33,1.92-2.21,4.33-4.32,4.31-1.92,0-4.34-2.31-4.31-4.4,0-1.91,2.29-4.43,4.39-4.27A4.4,4.4,0,0,1,147.66,205.8Zm-4.29-2.9a3,3,0,0,0-2.85,2.87,2.87,2.87,0,1,0,5.73,0A3,3,0,0,0,143.37,202.9Z"/><path class="cls-2" d="M143.39,160.07a3,3,0,0,1-2.87-2.85,2.87,2.87,0,1,1,5.73,0A3,3,0,0,1,143.39,160.07Z"/><path class="cls-2" d="M143.34,184.34a3,3,0,0,1-2.82-2.9,2.87,2.87,0,0,1,5.73.09A3,3,0,0,1,143.34,184.34Z"/><path class="cls-2" d="M143.37,202.9a3,3,0,0,1,2.88,2.85,2.87,2.87,0,1,1-5.73,0A3,3,0,0,1,143.37,202.9Z"/></g></g></svg>