<svg xmlns="http://www.w3.org/2000/svg" viewBox="0 0 234.27 284.35"><defs><style>.cls-1,.cls-2{fill-rule:evenodd;}.cls-2{fill:#fff;}</style></defs><title>top4</title><g id="Layer_2" data-name="Layer 2"><g id="圖層_1" data-name="圖層 1"><path class="cls-1" d="M192,252.7c.12-.3.05-.19,0-.09-.23,4.59-.57,9.17-.63,13.76a2.17,2.17,0,0,1-1.62,2.38c-2.76.86-5.58,1.53-8.37,2.32-2.12.6-4.21,1.31-6.32,1.9s-4,1-6,1.56c-2.47.65-4.91,1.36-7.39,2-2.27.56-4.57,1-6.85,1.55-2.61.61-5.2,1.28-7.81,1.9-1.34.31-2.68.63-4,.86-4.6.76-9.21,1.4-13.79,2.23a64.49,64.49,0,0,1-15,1.23c-2.81-.16-5.59-.76-8.39-1.19-1.53-.23-3.07-.46-4.58-.79Q95,281,88.83,279.55c-3.17-.72-6.36-1.4-9.49-2.26-3.66-1-7.25-2.21-10.89-3.29-3.42-1-6.88-1.93-10.28-3s-6.62-2.23-9.94-3.32q-2.58-.85-5.21-1.57c-1.1-.3-1.8-.74-1.79-2.07,0-2.51-.07-5-.14-7.53-.05-1.59-.63-1.86-2.14-1.42a27.65,27.65,0,0,1-5.51,1.19c-4.64.34-9.29.67-13.94.62a76.87,76.87,0,0,1-9.25-1.15c-2-.26-4-.48-6-.88-3-.61-3.58-.66-3.65-3.81C.38,240.75,0,230.43,0,220.12c0-5.09.72-10.18,1.12-15.27,0-.35.07-.7.09-1,.28-3.94.48-7.89.84-11.82.4-4.26.91-8.51,1.44-12.76.4-3.26.84-6.52,1.36-9.77.59-3.75,1.32-7.48,1.93-11.22.34-2.11.5-4.25.85-6.36.58-3.39,1.25-6.77,1.89-10.16.28-1.53.57-3.05.84-4.59.74-4.3,1.43-8.62,2.22-12.92.63-3.49,1.36-7,2.09-10.45q1.38-6.65,2.81-13.27,1.39-6.35,2.84-12.68c.9-3.94,1.79-7.9,2.78-11.82,1-4.2,2.25-8.37,3.31-12.56.82-3.22,1.46-6.49,2.28-9.7s1.76-6.21,2.6-9.33c.56-2,1-4.06,1.55-6.1.27-1.1.49-2.22.82-3.31.1-.35.47-.87.74-.88,3-.2,4.82-2.55,7.31-3.66,4.4-2,8.66-4.21,13-6.24,3.46-1.61,7-3.15,10.5-4.61,3.85-1.58,7.75-3,11.64-4.52l9.8-3.76a19.73,19.73,0,0,1,3.76-1.46c3.07-.5,3.38-3.33,4.75-5.25a31.09,31.09,0,0,0,1.7-3.07l20,28.89H111c.79,1.32,1.32,2.36,2,3.31,1.83,2.62,3.68,5.22,5.58,7.8.71,1,1.47,1.43,2.48.13,2.83-3.65,5.74-7.22,9-11.24l-5.79.87-.41-.38c5.28-10.2,10.56-20.4,16-30.91,2.12,2.83,4,5.36,5.92,7.91,1.2,1.62,2.15,3.51,3.63,4.8a15.66,15.66,0,0,0,4.76,2.34c3.63,1.41,7.31,2.71,11,4.05,4.07,1.49,8.17,2.9,12.2,4.48s8.17,3.26,12.14,5.12c4.49,2.1,8.87,4.45,13.28,6.72a9.86,9.86,0,0,1,5.61,7.85c.43,3.09,1.29,6.12,1.91,9.19.31,1.52.53,3.06.74,4.6.29,2.17.47,4.37.82,6.53.58,3.63,1.27,7.25,1.9,10.87.29,1.65.55,3.3.78,5,.52,3.83.95,7.68,1.53,11.51s1.32,7.59,2,11.39c.28,1.6.51,3.2.72,4.8.52,4.13,1,8.27,1.56,12.38.56,3.87,1.3,7.71,1.93,11.57.28,1.71.52,3.42.73,5.14.29,2.47.46,4.95.81,7.41.58,4,1.28,8.08,1.9,12.13.29,1.88.55,3.76.77,5.66.29,2.47.48,5,.81,7.43.63,4.74,1.34,9.48,2,14.22q.4,2.92.7,5.86c.3,2.94.49,5.9.83,8.84.61,5.4,1.3,10.79,2,16.19,0,.17,0,.35.05.52.27,4.23.53,8.46.82,12.69.2,3,.29,6,.72,9s-.91,4.37-3.39,5.43c-4.6,2-9.08,4.26-13.74,6.09a48.72,48.72,0,0,1-8.88,2.32C202.93,251,197.63,251.78,192,252.7ZM93.63,35.36,73.15,45.54l-.24-.46,18.4-33.55a11.17,11.17,0,0,0-2.12.27c-4.06,1.54-8.09,3.12-12.13,4.69-3.18,1.23-6.4,2.39-9.55,3.71-4.07,1.72-8.14,3.45-12.12,5.37-5.53,2.67-11,5.52-16.45,8.28a7.94,7.94,0,0,0-4,3.81c-1.8,4-2.27,8.29-2.6,12.52C31.9,55.58,32,61,32.13,66.47c.12,6.75.4,13.5.69,20.24.13,3,.42,5.9.68,8.84.45,4.9.89,9.8,1.42,14.7q.57,5.25,1.38,10.47c.64,4.15,1.42,8.28,2.09,12.43A30.79,30.79,0,0,0,42,144.06c2,3.45,1.45,7.52,2,11.31a70.64,70.64,0,0,1,.18,10.5c-.17,12.59-.34,25.18-.59,37.77-.14,7.27-.49,14.54-.67,21.81-.27,10.83-.53,21.67-.68,32.5a53.49,53.49,0,0,0,.71,6.6c3.49,1.08,6.86,2.11,10.21,3.17s7,2.25,10.47,3.34c2.55.78,5.11,1.49,7.67,2.23,3.1.9,6.19,1.81,9.3,2.68,2,.56,4.09,1,6.13,1.58,2.36.62,4.69,1.33,7.07,1.86,2.75.61,5.52,1.08,8.29,1.57,3.8.67,7.6,1.68,11.42,1.83a126.66,126.66,0,0,0,13.75-.64,40.73,40.73,0,0,0,5.15-.76c3-.59,5.94-1.3,8.91-1.9,2.76-.56,5.55-.94,8.27-1.59,4.32-1,8.61-2.19,12.9-3.32s8.81-2.31,13.2-3.49,8.88-2.39,13.3-3.66a1.73,1.73,0,0,0,1-1.21,92.18,92.18,0,0,0,.65-9.37c-.13-18.61-.41-37.22-.54-55.82,0-4.77.3-9.53.45-14.3.3-9.72.55-19.45.91-29.17a48.07,48.07,0,0,1,.78-6.53,11.19,11.19,0,0,1,1.15-2.79c.94-2,2.25-3.82,2.83-5.88,1.58-5.6,2.94-11.26,4.22-16.94.86-3.81,1.47-7.68,2.11-11.53q1.14-6.91,2.12-13.84c.51-3.55,1-7.1,1.35-10.66.55-5.07,1-10.14,1.47-15.22.26-3.06.48-6.13.58-9.2a102.59,102.59,0,0,0-1.05-21,10,10,0,0,0-5.9-7.84c-5-2.46-10-4.92-15-7.17-5.39-2.4-10.85-4.63-16.34-6.78-5-2-10.14-3.75-15.23-5.58-.89-.32-1.83-.49-3-.81l18,24.66a12.41,12.41,0,0,1-2.23-.3c-1.64-.59-3.23-1.3-4.87-1.88-5.21-1.85-10.44-3.67-15.66-5.5-.89-.31-1.29-.1-1.57.93A56.59,56.59,0,0,1,142.67,41c-1.42,3.42-3,6.78-4.66,10.09a133.1,133.1,0,0,1-12.19,19.47c-2,2.73-4.09,5.43-6.07,8.19-1.24,1.73-2.4,2-3.34.58-2.23-3.35-4.46-6.69-6.66-10.05A134.23,134.23,0,0,1,93.63,35.36Zm-63,18.09-.43-.06c-.59,2.59-1.16,5.19-1.79,7.78s-1.31,4.93-1.92,7.42C26,70.8,25.52,73,25,75.25c-.64,2.71-1.34,5.41-2,8.13-.55,2.34-1,4.7-1.57,7-.6,2.5-1.32,5-1.87,7.46-.59,2.69-1,5.41-1.56,8.1-.84,3.91-1.83,7.8-2.64,11.72-.61,2.92-1,5.88-1.56,8.81C13,130.77,12,135,11.2,139.29c-.85,4.76-1.5,9.56-2.24,14.34l-.78,5c-.66,4.2-1.35,8.4-2,12.62-.33,2.22-.52,4.47-.82,6.71-.63,4.63-1.36,9.26-1.9,13.9s-1,9.22-1.29,13.84c-.36,4.87-.81,9.74-.8,14.62,0,9.43.36,18.86.58,28.29,0,1.34-.33,3,.33,3.91s2.37.89,3.64,1.09c4.67.71,9.33,1.54,14,2a59.45,59.45,0,0,0,17.63-1.33c3-.64,3.39-.88,3.51-4,.27-7.56.47-15.13.68-22.7q.36-12.75.7-25.5c.08-2.8.21-5.61.16-8.4-.28-14.12.81-28.25-.61-42.35a24.87,24.87,0,0,0-2-7.79,65.85,65.85,0,0,1-3.55-11.83c-1-4.14-1.5-8.38-2.12-12.59q-.82-5.67-1.41-11.37-.8-7.6-1.42-15.25c-.29-3.58-.6-7.17-.68-10.76-.14-6.19-.12-12.38-.15-18.57C30.66,59.85,30.67,56.65,30.67,53.45ZM192,250.65a7.16,7.16,0,0,0,1.13,0c3.73-.43,7.47-.74,11.17-1.36A59,59,0,0,0,214.63,247c5-1.79,9.86-4.07,14.75-6.2,2.34-1,3.88-2.4,3.4-5.44-.54-3.43-.53-7-.78-10.42-.26-3.65-.52-7.3-.83-10.94-.21-2.43-.47-4.86-.77-7.27-.36-2.93-.84-5.83-1.17-8.76s-.55-6.12-.86-9.18q-.3-3-.73-6c-.38-2.68-.88-5.34-1.22-8s-.54-5.29-.84-7.94c-.21-1.9-.47-3.79-.75-5.68-.63-4.16-1.32-8.31-1.91-12.48-.35-2.52-.54-5.06-.84-7.59q-.32-2.66-.74-5.31c-.63-3.92-1.33-7.83-1.91-11.76-.37-2.45-.57-4.94-.87-7.41-.2-1.6-.44-3.19-.7-4.78-.63-3.75-1.36-7.48-1.92-11.23-.6-4-1-8-1.57-12-.21-1.59-.49-3.18-.76-4.77-.64-3.79-1.32-7.58-1.92-11.39-.35-2.16-.51-4.36-.84-6.53-.23-1.55-.6-3.07-1-5a12.56,12.56,0,0,0-.79,2.47c-.32,4.93-.55,9.87-.86,14.8-.23,3.71-.53,7.41-.81,11.12a4.67,4.67,0,0,1-.08.52c-.64,4.39-1.31,8.78-1.92,13.18-.33,2.35-.53,4.71-.84,7.06-.2,1.55-.44,3.08-.74,4.61-.62,3.27-1.31,6.52-1.95,9.79-.54,2.76-1,5.54-1.58,8.29a70.42,70.42,0,0,1-2,7.58c-.9,2.65-2.09,5.2-3.18,7.78a16.69,16.69,0,0,0-1.56,3.54c-.61,3.7-1.13,7.44-1.4,11.18-.35,4.92-.51,9.86-.62,14.8-.13,5.14-.19,10.28-.12,15.42.14,11.95.4,23.91.58,35.86.06,4,0,7.95,0,11.93ZM119.51,49.72l.49,0c-.26-1.53-.08-3.34-.85-4.55-3-4.71-6.32-9.23-9.55-13.8-.23-.34-.65-.78-1-.77-2.4,0-4.87-.53-7.15.77A51.72,51.72,0,0,1,96.28,34c-1.21.52-1.12,1.35-.92,2.28a8.06,8.06,0,0,0,.53,1.06c1.74,4.5,3.21,9.12,5.26,13.47a149.94,149.94,0,0,0,15.79,26.46,5.74,5.74,0,0,0,1,.8,4.35,4.35,0,0,0,.49-1.17c.21-2.19.45-4.39.52-6.58C119.15,63.45,119.32,56.58,119.51,49.72Zm.16,25.34.64.23c1.59-2.07,3.24-4.11,4.75-6.24,2.26-3.19,4.62-6.33,6.57-9.7q4.37-7.59,8.19-15.49a90.61,90.61,0,0,0,3.75-9.94c.53-1.53-.09-2.29-1.64-2.71a21.83,21.83,0,0,1-3.19-1.1c-2.28-1-6.18-.24-7.84,1.7-2.47,2.89-4.93,5.79-7.32,8.74-.9,1.11-2.14,2.31-2.27,3.57-.48,4.44-.59,8.93-.74,13.4-.12,3.38,0,6.77-.16,10.15C120.3,70.14,119.93,72.6,119.67,75.06Zm-43.43-33,.34.25c1.33-.66,2.66-1.31,4-2,5.85-2.94,11.7-5.85,17.52-8.83,2.89-1.48,5.73-2.83,9.16-2.42a61.65,61.65,0,0,0,7,.05C108.38,20.73,102.78,12.64,97,4.29Zm88.82-4.4C156.79,25.87,148.59,14.32,140,2.77L126.5,28.86c.13.17.26.35.4.52,1.87-.27,3.73-.67,5.61-.77a23.32,23.32,0,0,1,6.58.13A88.09,88.09,0,0,1,148,31.9q6.75,2.41,13.51,4.77C162.66,37.07,163.88,37.33,165.06,37.65Z"/><path class="cls-2" d="M93.63,35.36a134.23,134.23,0,0,0,16.12,33.88c2.2,3.36,4.43,6.7,6.66,10.05.94,1.42,2.1,1.15,3.34-.58,2-2.76,4-5.46,6.07-8.19A133.1,133.1,0,0,0,138,51.05c1.66-3.31,3.24-6.67,4.66-10.09A56.59,56.59,0,0,0,145,33.72c.28-1,.68-1.24,1.57-.93,5.22,1.83,10.45,3.65,15.66,5.5,1.64.58,3.23,1.29,4.87,1.88a12.41,12.41,0,0,0,2.23.3l-18-24.66c1.21.32,2.15.49,3,.81,5.09,1.83,10.2,3.61,15.23,5.58,5.49,2.15,11,4.38,16.34,6.78,5.06,2.25,10,4.71,15,7.17a10,10,0,0,1,5.9,7.84A102.59,102.59,0,0,1,208,65c-.1,3.07-.32,6.14-.58,9.2-.44,5.08-.92,10.15-1.47,15.22-.38,3.56-.84,7.11-1.35,10.66q-1,6.93-2.12,13.84c-.64,3.85-1.25,7.72-2.11,11.53-1.28,5.68-2.64,11.34-4.22,16.94-.58,2.06-1.89,3.92-2.83,5.88a11.19,11.19,0,0,0-1.15,2.79,48.07,48.07,0,0,0-.78,6.53c-.36,9.72-.61,19.45-.91,29.17-.15,4.77-.49,9.53-.45,14.3.13,18.6.41,37.21.54,55.82a92.18,92.18,0,0,1-.65,9.37,1.73,1.73,0,0,1-1,1.21c-4.42,1.27-8.86,2.47-13.3,3.66s-8.8,2.34-13.2,3.49-8.58,2.3-12.9,3.32c-2.72.65-5.51,1-8.27,1.59-3,.6-5.93,1.31-8.91,1.9a40.73,40.73,0,0,1-5.15.76,126.66,126.66,0,0,1-13.75.64c-3.82-.15-7.62-1.16-11.42-1.83-2.77-.49-5.54-1-8.29-1.57-2.38-.53-4.71-1.24-7.07-1.86-2-.54-4.1-1-6.13-1.58-3.11-.87-6.2-1.78-9.3-2.68-2.56-.74-5.12-1.45-7.67-2.23-3.5-1.09-7-2.24-10.47-3.34s-6.72-2.09-10.21-3.17a53.49,53.49,0,0,1-.71-6.6c.15-10.83.41-21.67.68-32.5.18-7.27.53-14.54.67-21.81.25-12.59.42-25.18.59-37.77a70.64,70.64,0,0,0-.18-10.5c-.52-3.79,0-7.86-2-11.31a30.79,30.79,0,0,1-3.57-10.91c-.67-4.15-1.45-8.28-2.09-12.43q-.81-5.22-1.38-10.47c-.53-4.9-1-9.8-1.42-14.7-.26-2.94-.55-5.89-.68-8.84-.29-6.74-.57-13.49-.69-20.24C32,61,31.9,55.58,32.32,50.18c.33-4.23.8-8.53,2.6-12.52a7.94,7.94,0,0,1,4-3.81c5.48-2.76,10.92-5.61,16.45-8.28,4-1.92,8-3.65,12.12-5.37,3.15-1.32,6.37-2.48,9.55-3.71,4-1.57,8.07-3.15,12.13-4.69a11.17,11.17,0,0,1,2.12-.27L72.91,45.08l.24.46Z"/><path class="cls-2" d="M30.67,53.45c0,3.2,0,6.4,0,9.6,0,6.19,0,12.38.15,18.57.08,3.59.39,7.18.68,10.76q.63,7.64,1.42,15.25.59,5.7,1.41,11.37c.62,4.21,1.17,8.45,2.12,12.59A65.85,65.85,0,0,0,40,143.42a24.87,24.87,0,0,1,2,7.79c1.42,14.1.33,28.23.61,42.35.05,2.79-.08,5.6-.16,8.4q-.33,12.75-.7,25.5c-.21,7.57-.41,15.14-.68,22.7-.12,3.15-.5,3.39-3.51,4A59.45,59.45,0,0,1,20,255.52c-4.7-.41-9.36-1.24-14-2-1.27-.2-3-.27-3.64-1.09S2,249.91,2,248.57c-.22-9.43-.55-18.86-.58-28.29,0-4.88.44-9.75.8-14.62.34-4.62.76-9.24,1.29-13.84s1.27-9.27,1.9-13.9c.3-2.24.49-4.49.82-6.71.63-4.22,1.32-8.42,2-12.62l.78-5c.74-4.78,1.39-9.58,2.24-14.34C12,135,13,130.77,13.82,126.51c.58-2.93.95-5.89,1.56-8.81.81-3.92,1.8-7.81,2.64-11.72.57-2.69,1-5.41,1.56-8.1.55-2.5,1.27-5,1.87-7.46.56-2.34,1-4.7,1.57-7,.63-2.72,1.33-5.42,2-8.13.53-2.22,1-4.45,1.54-6.66.61-2.49,1.31-4.94,1.92-7.42s1.2-5.19,1.79-7.78Z"/><path class="cls-2" d="M192,250.65v-9.92c0-4,0-7.95,0-11.93-.18-12-.44-23.91-.58-35.86-.07-5.14,0-10.28.12-15.42.11-4.94.27-9.88.62-14.8.27-3.74.79-7.48,1.4-11.18A16.69,16.69,0,0,1,195.1,148c1.09-2.58,2.28-5.13,3.18-7.78a70.42,70.42,0,0,0,2-7.58c.61-2.75,1-5.53,1.58-8.29.64-3.27,1.33-6.52,1.95-9.79.3-1.53.54-3.06.74-4.61.31-2.35.51-4.71.84-7.06.61-4.4,1.28-8.79,1.92-13.18a4.67,4.67,0,0,0,.08-.52c.28-3.71.58-7.41.81-11.12.31-4.93.54-9.87.86-14.8a12.56,12.56,0,0,1,.79-2.47c.4,2,.77,3.47,1,5,.33,2.17.49,4.37.84,6.53.6,3.81,1.28,7.6,1.92,11.39.27,1.59.55,3.18.76,4.77.54,4,1,8,1.57,12,.56,3.75,1.29,7.48,1.92,11.23.26,1.59.5,3.18.7,4.78.3,2.47.5,5,.87,7.41.58,3.93,1.28,7.84,1.91,11.76q.42,2.66.74,5.31c.3,2.53.49,5.07.84,7.59.59,4.17,1.28,8.32,1.91,12.48.28,1.89.54,3.78.75,5.68.3,2.65.5,5.3.84,7.94s.84,5.35,1.22,8q.44,3,.73,6c.31,3.06.52,6.13.86,9.18s.81,5.83,1.17,8.76c.3,2.41.56,4.84.77,7.27.31,3.64.57,7.29.83,10.94.25,3.47.24,7,.78,10.42.48,3-1.06,4.43-3.4,5.44-4.89,2.13-9.73,4.41-14.75,6.2a59,59,0,0,1-10.34,2.36c-3.7.62-7.44.93-11.17,1.36A7.16,7.16,0,0,1,192,250.65Z"/><path class="cls-2" d="M119.51,49.72c-.19,6.86-.36,13.73-.6,20.59-.07,2.19-.31,4.39-.52,6.58a4.35,4.35,0,0,1-.49,1.17,5.74,5.74,0,0,1-1-.8A149.94,149.94,0,0,1,101.15,50.8c-2.05-4.35-3.52-9-5.26-13.47a8.06,8.06,0,0,1-.53-1.06c-.2-.93-.29-1.76.92-2.28a51.72,51.72,0,0,0,5.19-2.65c2.28-1.3,4.75-.73,7.15-.77.33,0,.75.43,1,.77,3.23,4.57,6.54,9.09,9.55,13.8.77,1.21.59,3,.85,4.55Z"/><path class="cls-2" d="M119.67,75.06c.26-2.46.63-4.92.74-7.39.15-3.38,0-6.77.16-10.15.15-4.47.26-9,.74-13.4.13-1.26,1.37-2.46,2.27-3.57,2.39-2.95,4.85-5.85,7.32-8.74,1.66-1.94,5.56-2.71,7.84-1.7a21.83,21.83,0,0,0,3.19,1.1c1.55.42,2.17,1.18,1.64,2.71a90.61,90.61,0,0,1-3.75,9.94q-3.81,7.89-8.19,15.49c-1.95,3.37-4.31,6.51-6.57,9.7-1.51,2.13-3.16,4.17-4.75,6.24Z"/><path class="cls-2" d="M76.24,42.05,97,4.29c5.78,8.35,11.38,16.44,17.2,24.83a61.65,61.65,0,0,1-7-.05c-3.43-.41-6.27.94-9.16,2.42-5.82,3-11.67,5.89-17.52,8.83-1.32.67-2.65,1.32-4,2Z"/><path class="cls-2" d="M165.06,37.65c-1.18-.32-2.4-.58-3.56-1Q154.74,34.33,148,31.9a88.09,88.09,0,0,0-8.9-3.16,23.32,23.32,0,0,0-6.58-.13c-1.88.1-3.74.5-5.61.77-.14-.17-.27-.35-.4-.52L140,2.77C148.59,14.32,156.79,25.87,165.06,37.65Z"/></g></g></svg>