<svg xmlns="http://www.w3.org/2000/svg" viewBox="0 0 433.31 460.28"><defs><style>.cls-1{fill:#fff;stroke:#000;stroke-miterlimit:10;stroke-width:3px;}</style></defs><title>top5</title><g id="Layer_2" data-name="Layer 2"><g id="Layer_1-2" data-name="Layer 1"><ellipse class="cls-1" cx="219.65" cy="36.76" rx="45" ry="20.5"/><path class="cls-1" d="M296.22,37.25c31.17,11.6,24.41,15.08,55.57,26.68q-2.18,60.36-4.37,120.72-.63,30.21-1,60.7Q345,350.26,346.41,452a1252.43,1252.43,0,0,1-137,6.79c-44.82-.24-86.33-2.87-124-6.83q1.71-104-.2-214.08-1.6-88.15-5.54-172.33l69.6-26.27c24.82.68,54.44,15.45,72.51,16.63C245.37,57.42,271.93,36.62,296.22,37.25Z"/><path class="cls-1" d="M86.33,312.75C65,296.85,18.39,266.81,1.64,245.41,14,199.28,47.05,85.71,79.86,64.89Z"/><path class="cls-1" d="M183.7,29c8.54,7.91,13.08,15.82,21.62,23.72-9.24,1.92-13.71,4.69-29.66,17.71a115.89,115.89,0,0,0-21.67,24c-5.44-22.48-5.63-44-5.44-66C154.54,23.05,180.61,1,220,1.51c43.59.52,70.67,28.16,75.45,33.22-3.19,19.7-10.38,39.41-13.57,59.11-4.14-6-9.31-14.58-18.15-21.83-12.6-10.34-17.17-16.53-25.5-19.2,7.35-8.63,9.7-15.26,17-23.88A86.39,86.39,0,0,0,183.7,29Z"/><path class="cls-1" d="M209.74,55.54l4.85,88.37,16.64-.08,3.09-88.23a38.51,38.51,0,0,1-12,2A38.1,38.1,0,0,1,209.74,55.54Z"/><path class="cls-1" d="M347,313.6c21.37-15.9,67.93-45.94,84.68-67.34C419.28,200.13,384.6,84.75,351.79,63.93Z"/></g></g></svg>