<svg xmlns="http://www.w3.org/2000/svg" viewBox="0 0 430.61 432.71"><defs><style>.cls-1{fill:#fff;stroke:#000;stroke-miterlimit:10;stroke-width:3px;}</style></defs><title>top6</title><g id="Layer_2" data-name="Layer 2"><g id="Layer_1-2" data-name="Layer 1"><path class="cls-1" d="M258.55,1.58,352,36.36q-2.19,60.36-4.37,120.72-.65,30.21-1.05,60.7-1.39,104.91,0,206.62a1249.8,1249.8,0,0,1-137,6.79c-44.81-.24-86.33-2.87-124-6.83q1.69-104-.2-214.08Q83.81,122.14,79.86,38L176.22,1.58A150.44,150.44,0,0,0,218,7.32,150.37,150.37,0,0,0,258.55,1.58Z"/><path class="cls-1" d="M86.33,285.81C65,269.91,18.39,239.87,1.64,218.47,14,172.34,47.05,58.77,79.86,38Z"/><path class="cls-1" d="M344.28,286.81c21.37-15.9,67.94-45.94,84.69-67.34C416.58,173.34,383.56,59.78,350.75,39Z"/><path class="cls-1" d="M260,1.87C257,12.75,253.94,35,219,35s-41-26.06-41.37-33.12Z"/></g></g></svg>